%TF.GenerationSoftware,KiCad,Pcbnew,(6.0.8)*%
%TF.CreationDate,2023-05-31T19:07:23+02:00*%
%TF.ProjectId,RT5XP-EXP-Interconnect,52543558-502d-4455-9850-2d496e746572,rev?*%
%TF.SameCoordinates,Original*%
%TF.FileFunction,Legend,Top*%
%TF.FilePolarity,Positive*%
%FSLAX46Y46*%
G04 Gerber Fmt 4.6, Leading zero omitted, Abs format (unit mm)*
G04 Created by KiCad (PCBNEW (6.0.8)) date 2023-05-31 19:07:23*
%MOMM*%
%LPD*%
G01*
G04 APERTURE LIST*
%ADD10C,0.150000*%
%ADD11C,0.300000*%
G04 APERTURE END LIST*
D10*
X129540190Y-110305380D02*
X129206857Y-109829190D01*
X128968761Y-110305380D02*
X128968761Y-109305380D01*
X129349714Y-109305380D01*
X129444952Y-109353000D01*
X129492571Y-109400619D01*
X129540190Y-109495857D01*
X129540190Y-109638714D01*
X129492571Y-109733952D01*
X129444952Y-109781571D01*
X129349714Y-109829190D01*
X128968761Y-109829190D01*
X129825904Y-109305380D02*
X130397333Y-109305380D01*
X130111619Y-110305380D02*
X130111619Y-109305380D01*
X131206857Y-109305380D02*
X130730666Y-109305380D01*
X130683047Y-109781571D01*
X130730666Y-109733952D01*
X130825904Y-109686333D01*
X131064000Y-109686333D01*
X131159238Y-109733952D01*
X131206857Y-109781571D01*
X131254476Y-109876809D01*
X131254476Y-110114904D01*
X131206857Y-110210142D01*
X131159238Y-110257761D01*
X131064000Y-110305380D01*
X130825904Y-110305380D01*
X130730666Y-110257761D01*
X130683047Y-110210142D01*
X131587809Y-109305380D02*
X132254476Y-110305380D01*
X132254476Y-109305380D02*
X131587809Y-110305380D01*
X132635428Y-110305380D02*
X132635428Y-109305380D01*
X133016380Y-109305380D01*
X133111619Y-109353000D01*
X133159238Y-109400619D01*
X133206857Y-109495857D01*
X133206857Y-109638714D01*
X133159238Y-109733952D01*
X133111619Y-109781571D01*
X133016380Y-109829190D01*
X132635428Y-109829190D01*
X127897333Y-111391571D02*
X128230666Y-111391571D01*
X128373523Y-111915380D02*
X127897333Y-111915380D01*
X127897333Y-110915380D01*
X128373523Y-110915380D01*
X128706857Y-111915380D02*
X129230666Y-111248714D01*
X128706857Y-111248714D02*
X129230666Y-111915380D01*
X129611619Y-111248714D02*
X129611619Y-112248714D01*
X129611619Y-111296333D02*
X129706857Y-111248714D01*
X129897333Y-111248714D01*
X129992571Y-111296333D01*
X130040190Y-111343952D01*
X130087809Y-111439190D01*
X130087809Y-111724904D01*
X130040190Y-111820142D01*
X129992571Y-111867761D01*
X129897333Y-111915380D01*
X129706857Y-111915380D01*
X129611619Y-111867761D01*
X130944952Y-111915380D02*
X130944952Y-111391571D01*
X130897333Y-111296333D01*
X130802095Y-111248714D01*
X130611619Y-111248714D01*
X130516380Y-111296333D01*
X130944952Y-111867761D02*
X130849714Y-111915380D01*
X130611619Y-111915380D01*
X130516380Y-111867761D01*
X130468761Y-111772523D01*
X130468761Y-111677285D01*
X130516380Y-111582047D01*
X130611619Y-111534428D01*
X130849714Y-111534428D01*
X130944952Y-111486809D01*
X131421142Y-111248714D02*
X131421142Y-111915380D01*
X131421142Y-111343952D02*
X131468761Y-111296333D01*
X131564000Y-111248714D01*
X131706857Y-111248714D01*
X131802095Y-111296333D01*
X131849714Y-111391571D01*
X131849714Y-111915380D01*
X132754476Y-111915380D02*
X132754476Y-110915380D01*
X132754476Y-111867761D02*
X132659238Y-111915380D01*
X132468761Y-111915380D01*
X132373523Y-111867761D01*
X132325904Y-111820142D01*
X132278285Y-111724904D01*
X132278285Y-111439190D01*
X132325904Y-111343952D01*
X132373523Y-111296333D01*
X132468761Y-111248714D01*
X132659238Y-111248714D01*
X132754476Y-111296333D01*
X133611619Y-111867761D02*
X133516380Y-111915380D01*
X133325904Y-111915380D01*
X133230666Y-111867761D01*
X133183047Y-111772523D01*
X133183047Y-111391571D01*
X133230666Y-111296333D01*
X133325904Y-111248714D01*
X133516380Y-111248714D01*
X133611619Y-111296333D01*
X133659238Y-111391571D01*
X133659238Y-111486809D01*
X133183047Y-111582047D01*
X134087809Y-111915380D02*
X134087809Y-111248714D01*
X134087809Y-111439190D02*
X134135428Y-111343952D01*
X134183047Y-111296333D01*
X134278285Y-111248714D01*
X134373523Y-111248714D01*
X126659238Y-113525380D02*
X126659238Y-112525380D01*
X127135428Y-112858714D02*
X127135428Y-113525380D01*
X127135428Y-112953952D02*
X127183047Y-112906333D01*
X127278285Y-112858714D01*
X127421142Y-112858714D01*
X127516380Y-112906333D01*
X127564000Y-113001571D01*
X127564000Y-113525380D01*
X127897333Y-112858714D02*
X128278285Y-112858714D01*
X128040190Y-112525380D02*
X128040190Y-113382523D01*
X128087809Y-113477761D01*
X128183047Y-113525380D01*
X128278285Y-113525380D01*
X128992571Y-113477761D02*
X128897333Y-113525380D01*
X128706857Y-113525380D01*
X128611619Y-113477761D01*
X128564000Y-113382523D01*
X128564000Y-113001571D01*
X128611619Y-112906333D01*
X128706857Y-112858714D01*
X128897333Y-112858714D01*
X128992571Y-112906333D01*
X129040190Y-113001571D01*
X129040190Y-113096809D01*
X128564000Y-113192047D01*
X129468761Y-113525380D02*
X129468761Y-112858714D01*
X129468761Y-113049190D02*
X129516380Y-112953952D01*
X129564000Y-112906333D01*
X129659238Y-112858714D01*
X129754476Y-112858714D01*
X130516380Y-113477761D02*
X130421142Y-113525380D01*
X130230666Y-113525380D01*
X130135428Y-113477761D01*
X130087809Y-113430142D01*
X130040190Y-113334904D01*
X130040190Y-113049190D01*
X130087809Y-112953952D01*
X130135428Y-112906333D01*
X130230666Y-112858714D01*
X130421142Y-112858714D01*
X130516380Y-112906333D01*
X131087809Y-113525380D02*
X130992571Y-113477761D01*
X130944952Y-113430142D01*
X130897333Y-113334904D01*
X130897333Y-113049190D01*
X130944952Y-112953952D01*
X130992571Y-112906333D01*
X131087809Y-112858714D01*
X131230666Y-112858714D01*
X131325904Y-112906333D01*
X131373523Y-112953952D01*
X131421142Y-113049190D01*
X131421142Y-113334904D01*
X131373523Y-113430142D01*
X131325904Y-113477761D01*
X131230666Y-113525380D01*
X131087809Y-113525380D01*
X131849714Y-112858714D02*
X131849714Y-113525380D01*
X131849714Y-112953952D02*
X131897333Y-112906333D01*
X131992571Y-112858714D01*
X132135428Y-112858714D01*
X132230666Y-112906333D01*
X132278285Y-113001571D01*
X132278285Y-113525380D01*
X132754476Y-112858714D02*
X132754476Y-113525380D01*
X132754476Y-112953952D02*
X132802095Y-112906333D01*
X132897333Y-112858714D01*
X133040190Y-112858714D01*
X133135428Y-112906333D01*
X133183047Y-113001571D01*
X133183047Y-113525380D01*
X134040190Y-113477761D02*
X133944952Y-113525380D01*
X133754476Y-113525380D01*
X133659238Y-113477761D01*
X133611619Y-113382523D01*
X133611619Y-113001571D01*
X133659238Y-112906333D01*
X133754476Y-112858714D01*
X133944952Y-112858714D01*
X134040190Y-112906333D01*
X134087809Y-113001571D01*
X134087809Y-113096809D01*
X133611619Y-113192047D01*
X134944952Y-113477761D02*
X134849714Y-113525380D01*
X134659238Y-113525380D01*
X134564000Y-113477761D01*
X134516380Y-113430142D01*
X134468761Y-113334904D01*
X134468761Y-113049190D01*
X134516380Y-112953952D01*
X134564000Y-112906333D01*
X134659238Y-112858714D01*
X134849714Y-112858714D01*
X134944952Y-112906333D01*
X135230666Y-112858714D02*
X135611619Y-112858714D01*
X135373523Y-112525380D02*
X135373523Y-113382523D01*
X135421142Y-113477761D01*
X135516380Y-113525380D01*
X135611619Y-113525380D01*
X123516380Y-114230619D02*
X123564000Y-114183000D01*
X123659238Y-114135380D01*
X123897333Y-114135380D01*
X123992571Y-114183000D01*
X124040190Y-114230619D01*
X124087809Y-114325857D01*
X124087809Y-114421095D01*
X124040190Y-114563952D01*
X123468761Y-115135380D01*
X124087809Y-115135380D01*
X124706857Y-114135380D02*
X124802095Y-114135380D01*
X124897333Y-114183000D01*
X124944952Y-114230619D01*
X124992571Y-114325857D01*
X125040190Y-114516333D01*
X125040190Y-114754428D01*
X124992571Y-114944904D01*
X124944952Y-115040142D01*
X124897333Y-115087761D01*
X124802095Y-115135380D01*
X124706857Y-115135380D01*
X124611619Y-115087761D01*
X124564000Y-115040142D01*
X124516380Y-114944904D01*
X124468761Y-114754428D01*
X124468761Y-114516333D01*
X124516380Y-114325857D01*
X124564000Y-114230619D01*
X124611619Y-114183000D01*
X124706857Y-114135380D01*
X125421142Y-114230619D02*
X125468761Y-114183000D01*
X125564000Y-114135380D01*
X125802095Y-114135380D01*
X125897333Y-114183000D01*
X125944952Y-114230619D01*
X125992571Y-114325857D01*
X125992571Y-114421095D01*
X125944952Y-114563952D01*
X125373523Y-115135380D01*
X125992571Y-115135380D01*
X126325904Y-114135380D02*
X126944952Y-114135380D01*
X126611619Y-114516333D01*
X126754476Y-114516333D01*
X126849714Y-114563952D01*
X126897333Y-114611571D01*
X126944952Y-114706809D01*
X126944952Y-114944904D01*
X126897333Y-115040142D01*
X126849714Y-115087761D01*
X126754476Y-115135380D01*
X126468761Y-115135380D01*
X126373523Y-115087761D01*
X126325904Y-115040142D01*
X128135428Y-114754428D02*
X128897333Y-114754428D01*
X130087809Y-114849666D02*
X130564000Y-114849666D01*
X129992571Y-115135380D02*
X130325904Y-114135380D01*
X130659238Y-115135380D01*
X130992571Y-115135380D02*
X130992571Y-114468714D01*
X130992571Y-114659190D02*
X131040190Y-114563952D01*
X131087809Y-114516333D01*
X131183047Y-114468714D01*
X131278285Y-114468714D01*
X131468761Y-114468714D02*
X131849714Y-114468714D01*
X131611619Y-114135380D02*
X131611619Y-114992523D01*
X131659238Y-115087761D01*
X131754476Y-115135380D01*
X131849714Y-115135380D01*
X132183047Y-114468714D02*
X132183047Y-115325857D01*
X132135428Y-115421095D01*
X132040190Y-115468714D01*
X131992571Y-115468714D01*
X132183047Y-114135380D02*
X132135428Y-114183000D01*
X132183047Y-114230619D01*
X132230666Y-114183000D01*
X132183047Y-114135380D01*
X132183047Y-114230619D01*
X132802095Y-115135380D02*
X132706857Y-115087761D01*
X132659238Y-115040142D01*
X132611619Y-114944904D01*
X132611619Y-114659190D01*
X132659238Y-114563952D01*
X132706857Y-114516333D01*
X132802095Y-114468714D01*
X132944952Y-114468714D01*
X133040190Y-114516333D01*
X133087809Y-114563952D01*
X133135428Y-114659190D01*
X133135428Y-114944904D01*
X133087809Y-115040142D01*
X133040190Y-115087761D01*
X132944952Y-115135380D01*
X132802095Y-115135380D01*
X133564000Y-115135380D02*
X133564000Y-114468714D01*
X133564000Y-114563952D02*
X133611619Y-114516333D01*
X133706857Y-114468714D01*
X133849714Y-114468714D01*
X133944952Y-114516333D01*
X133992571Y-114611571D01*
X133992571Y-115135380D01*
X133992571Y-114611571D02*
X134040190Y-114516333D01*
X134135428Y-114468714D01*
X134278285Y-114468714D01*
X134373523Y-114516333D01*
X134421142Y-114611571D01*
X134421142Y-115135380D01*
X135659238Y-114611571D02*
X135992571Y-114611571D01*
X136135428Y-115135380D02*
X135659238Y-115135380D01*
X135659238Y-114135380D01*
X136135428Y-114135380D01*
X136516380Y-115087761D02*
X136611619Y-115135380D01*
X136802095Y-115135380D01*
X136897333Y-115087761D01*
X136944952Y-114992523D01*
X136944952Y-114944904D01*
X136897333Y-114849666D01*
X136802095Y-114802047D01*
X136659238Y-114802047D01*
X136564000Y-114754428D01*
X136516380Y-114659190D01*
X136516380Y-114611571D01*
X136564000Y-114516333D01*
X136659238Y-114468714D01*
X136802095Y-114468714D01*
X136897333Y-114516333D01*
X137373523Y-115135380D02*
X137373523Y-114135380D01*
X137468761Y-114754428D02*
X137754476Y-115135380D01*
X137754476Y-114468714D02*
X137373523Y-114849666D01*
X138564000Y-115087761D02*
X138468761Y-115135380D01*
X138278285Y-115135380D01*
X138183047Y-115087761D01*
X138135428Y-114992523D01*
X138135428Y-114611571D01*
X138183047Y-114516333D01*
X138278285Y-114468714D01*
X138468761Y-114468714D01*
X138564000Y-114516333D01*
X138611619Y-114611571D01*
X138611619Y-114706809D01*
X138135428Y-114802047D01*
D11*
X150816571Y-119768000D02*
X150816571Y-118910857D01*
X152316571Y-119339428D02*
X150816571Y-119339428D01*
X152316571Y-118410857D02*
X150816571Y-118410857D01*
X152316571Y-117768000D02*
X151530857Y-117768000D01*
X151388000Y-117839428D01*
X151316571Y-117982285D01*
X151316571Y-118196571D01*
X151388000Y-118339428D01*
X151459428Y-118410857D01*
X152316571Y-117053714D02*
X151316571Y-117053714D01*
X150816571Y-117053714D02*
X150888000Y-117125142D01*
X150959428Y-117053714D01*
X150888000Y-116982285D01*
X150816571Y-117053714D01*
X150959428Y-117053714D01*
X152245142Y-116410857D02*
X152316571Y-116268000D01*
X152316571Y-115982285D01*
X152245142Y-115839428D01*
X152102285Y-115768000D01*
X152030857Y-115768000D01*
X151888000Y-115839428D01*
X151816571Y-115982285D01*
X151816571Y-116196571D01*
X151745142Y-116339428D01*
X151602285Y-116410857D01*
X151530857Y-116410857D01*
X151388000Y-116339428D01*
X151316571Y-116196571D01*
X151316571Y-115982285D01*
X151388000Y-115839428D01*
X152245142Y-114053714D02*
X152316571Y-113839428D01*
X152316571Y-113482285D01*
X152245142Y-113339428D01*
X152173714Y-113268000D01*
X152030857Y-113196571D01*
X151888000Y-113196571D01*
X151745142Y-113268000D01*
X151673714Y-113339428D01*
X151602285Y-113482285D01*
X151530857Y-113768000D01*
X151459428Y-113910857D01*
X151388000Y-113982285D01*
X151245142Y-114053714D01*
X151102285Y-114053714D01*
X150959428Y-113982285D01*
X150888000Y-113910857D01*
X150816571Y-113768000D01*
X150816571Y-113410857D01*
X150888000Y-113196571D01*
X152316571Y-112553714D02*
X151316571Y-112553714D01*
X150816571Y-112553714D02*
X150888000Y-112625142D01*
X150959428Y-112553714D01*
X150888000Y-112482285D01*
X150816571Y-112553714D01*
X150959428Y-112553714D01*
X152316571Y-111196571D02*
X150816571Y-111196571D01*
X152245142Y-111196571D02*
X152316571Y-111339428D01*
X152316571Y-111625142D01*
X152245142Y-111768000D01*
X152173714Y-111839428D01*
X152030857Y-111910857D01*
X151602285Y-111910857D01*
X151459428Y-111839428D01*
X151388000Y-111768000D01*
X151316571Y-111625142D01*
X151316571Y-111339428D01*
X151388000Y-111196571D01*
X152245142Y-109910857D02*
X152316571Y-110053714D01*
X152316571Y-110339428D01*
X152245142Y-110482285D01*
X152102285Y-110553714D01*
X151530857Y-110553714D01*
X151388000Y-110482285D01*
X151316571Y-110339428D01*
X151316571Y-110053714D01*
X151388000Y-109910857D01*
X151530857Y-109839428D01*
X151673714Y-109839428D01*
X151816571Y-110553714D01*
X150816571Y-107768000D02*
X150816571Y-107482285D01*
X150888000Y-107339428D01*
X151030857Y-107196571D01*
X151316571Y-107125142D01*
X151816571Y-107125142D01*
X152102285Y-107196571D01*
X152245142Y-107339428D01*
X152316571Y-107482285D01*
X152316571Y-107768000D01*
X152245142Y-107910857D01*
X152102285Y-108053714D01*
X151816571Y-108125142D01*
X151316571Y-108125142D01*
X151030857Y-108053714D01*
X150888000Y-107910857D01*
X150816571Y-107768000D01*
X151316571Y-105839428D02*
X152316571Y-105839428D01*
X151316571Y-106482285D02*
X152102285Y-106482285D01*
X152245142Y-106410857D01*
X152316571Y-106268000D01*
X152316571Y-106053714D01*
X152245142Y-105910857D01*
X152173714Y-105839428D01*
X151316571Y-105339428D02*
X151316571Y-104768000D01*
X150816571Y-105125142D02*
X152102285Y-105125142D01*
X152245142Y-105053714D01*
X152316571Y-104910857D01*
X152316571Y-104768000D01*
D10*
%TO.C,J2*%
X130666666Y-94472380D02*
X130666666Y-95186666D01*
X130619047Y-95329523D01*
X130523809Y-95424761D01*
X130380952Y-95472380D01*
X130285714Y-95472380D01*
X131095238Y-94567619D02*
X131142857Y-94520000D01*
X131238095Y-94472380D01*
X131476190Y-94472380D01*
X131571428Y-94520000D01*
X131619047Y-94567619D01*
X131666666Y-94662857D01*
X131666666Y-94758095D01*
X131619047Y-94900952D01*
X131047619Y-95472380D01*
X131666666Y-95472380D01*
%TO.C,J1*%
X130730666Y-129500380D02*
X130730666Y-130214666D01*
X130683047Y-130357523D01*
X130587809Y-130452761D01*
X130444952Y-130500380D01*
X130349714Y-130500380D01*
X131730666Y-130500380D02*
X131159238Y-130500380D01*
X131444952Y-130500380D02*
X131444952Y-129500380D01*
X131349714Y-129643238D01*
X131254476Y-129738476D01*
X131159238Y-129786095D01*
%TD*%
M02*
