%TF.GenerationSoftware,KiCad,Pcbnew,(6.0.8)*%
%TF.CreationDate,2023-05-31T19:07:23+02:00*%
%TF.ProjectId,RT5XP-EXP-Interconnect,52543558-502d-4455-9850-2d496e746572,rev?*%
%TF.SameCoordinates,Original*%
%TF.FileFunction,Copper,L2,Bot*%
%TF.FilePolarity,Positive*%
%FSLAX46Y46*%
G04 Gerber Fmt 4.6, Leading zero omitted, Abs format (unit mm)*
G04 Created by KiCad (PCBNEW (6.0.8)) date 2023-05-31 19:07:23*
%MOMM*%
%LPD*%
G01*
G04 APERTURE LIST*
%TA.AperFunction,ComponentPad*%
%ADD10C,3.000000*%
%TD*%
G04 APERTURE END LIST*
D10*
%TO.P,J2,1,Pin_1*%
%TO.N,unconnected-(J2-Pad1)*%
X149950000Y-90000000D03*
%TO.P,J2,2,Pin_2*%
%TO.N,AUDIOR*%
X148045000Y-85000000D03*
%TO.P,J2,3,Pin_3*%
%TO.N,unconnected-(J2-Pad3)*%
X146140000Y-90000000D03*
%TO.P,J2,4,Pin_4*%
%TO.N,GND*%
X144235000Y-85000000D03*
%TO.P,J2,5,Pin_5*%
X142330000Y-90000000D03*
%TO.P,J2,6,Pin_6*%
%TO.N,AUDIOL*%
X140425000Y-85000000D03*
%TO.P,J2,7,Pin_7*%
%TO.N,BLUE*%
X138520000Y-90000000D03*
%TO.P,J2,8,Pin_8*%
%TO.N,unconnected-(J2-Pad8)*%
X136615000Y-85000000D03*
%TO.P,J2,9,Pin_9*%
%TO.N,GND*%
X134710000Y-90000000D03*
%TO.P,J2,10,Pin_10*%
%TO.N,unconnected-(J2-Pad10)*%
X132805000Y-85000000D03*
%TO.P,J2,11,Pin_11*%
%TO.N,GREEN*%
X130900000Y-90000000D03*
%TO.P,J2,12,Pin_12*%
%TO.N,unconnected-(J2-Pad12)*%
X128995000Y-85000000D03*
%TO.P,J2,13,Pin_13*%
%TO.N,GND*%
X127090000Y-90000000D03*
%TO.P,J2,14,Pin_14*%
%TO.N,unconnected-(J2-Pad14)*%
X125185000Y-85000000D03*
%TO.P,J2,15,Pin_15*%
%TO.N,RED*%
X123280000Y-90000000D03*
%TO.P,J2,16,Pin_16*%
%TO.N,unconnected-(J2-Pad16)*%
X121375000Y-85000000D03*
%TO.P,J2,17,Pin_17*%
%TO.N,GND*%
X119470000Y-90000000D03*
%TO.P,J2,18,Pin_18*%
X117565000Y-85000000D03*
%TO.P,J2,19,Pin_19*%
%TO.N,unconnected-(J2-Pad19)*%
X115660000Y-90000000D03*
%TO.P,J2,20,Pin_20*%
%TO.N,SYNC*%
X113755000Y-85000000D03*
%TO.P,J2,21,Pin_21*%
%TO.N,GND*%
X111850000Y-90000000D03*
%TD*%
%TO.P,J1,21,Pin_21*%
%TO.N,GND*%
X111850000Y-140000000D03*
%TO.P,J1,20,Pin_20*%
%TO.N,unconnected-(J1-Pad20)*%
X113755000Y-135000000D03*
%TO.P,J1,19,Pin_19*%
%TO.N,SYNC*%
X115660000Y-140000000D03*
%TO.P,J1,18,Pin_18*%
%TO.N,GND*%
X117565000Y-135000000D03*
%TO.P,J1,17,Pin_17*%
X119470000Y-140000000D03*
%TO.P,J1,16,Pin_16*%
%TO.N,unconnected-(J1-Pad16)*%
X121375000Y-135000000D03*
%TO.P,J1,15,Pin_15*%
%TO.N,RED*%
X123280000Y-140000000D03*
%TO.P,J1,14,Pin_14*%
%TO.N,unconnected-(J1-Pad14)*%
X125185000Y-135000000D03*
%TO.P,J1,13,Pin_13*%
%TO.N,GND*%
X127090000Y-140000000D03*
%TO.P,J1,12,Pin_12*%
%TO.N,unconnected-(J1-Pad12)*%
X128995000Y-135000000D03*
%TO.P,J1,11,Pin_11*%
%TO.N,GREEN*%
X130900000Y-140000000D03*
%TO.P,J1,10,Pin_10*%
%TO.N,unconnected-(J1-Pad10)*%
X132805000Y-135000000D03*
%TO.P,J1,9,Pin_9*%
%TO.N,GND*%
X134710000Y-140000000D03*
%TO.P,J1,8,Pin_8*%
%TO.N,unconnected-(J1-Pad8)*%
X136615000Y-135000000D03*
%TO.P,J1,7,Pin_7*%
%TO.N,BLUE*%
X138520000Y-140000000D03*
%TO.P,J1,6,Pin_6*%
%TO.N,unconnected-(J1-Pad6)*%
X140425000Y-135000000D03*
%TO.P,J1,5,Pin_5*%
%TO.N,GND*%
X142330000Y-140000000D03*
%TO.P,J1,4,Pin_4*%
X144235000Y-135000000D03*
%TO.P,J1,3,Pin_3*%
%TO.N,AUDIOL*%
X146140000Y-140000000D03*
%TO.P,J1,2,Pin_2*%
%TO.N,unconnected-(J1-Pad2)*%
X148045000Y-135000000D03*
%TO.P,J1,1,Pin_1*%
%TO.N,AUDIOR*%
X149950000Y-140000000D03*
%TD*%
%TA.AperFunction,Conductor*%
%TO.N,GND*%
G36*
X153103621Y-81300502D02*
G01*
X153150114Y-81354158D01*
X153161500Y-81406500D01*
X153161500Y-143637500D01*
X153141498Y-143705621D01*
X153087842Y-143752114D01*
X153035500Y-143763500D01*
X109854500Y-143763500D01*
X109786379Y-143743498D01*
X109739886Y-143689842D01*
X109728500Y-143637500D01*
X109728500Y-141589654D01*
X110625618Y-141589654D01*
X110632673Y-141599627D01*
X110663679Y-141625551D01*
X110670598Y-141630579D01*
X110895272Y-141771515D01*
X110902807Y-141775556D01*
X111144520Y-141884694D01*
X111152551Y-141887680D01*
X111406832Y-141963002D01*
X111415184Y-141964869D01*
X111677340Y-142004984D01*
X111685874Y-142005700D01*
X111951045Y-142009867D01*
X111959596Y-142009418D01*
X112222883Y-141977557D01*
X112231284Y-141975955D01*
X112487824Y-141908653D01*
X112495926Y-141905926D01*
X112740949Y-141804434D01*
X112748617Y-141800628D01*
X112977598Y-141666822D01*
X112984679Y-141662009D01*
X113064655Y-141599301D01*
X113073125Y-141587442D01*
X113066608Y-141575818D01*
X111862812Y-140372022D01*
X111848868Y-140364408D01*
X111847035Y-140364539D01*
X111840420Y-140368790D01*
X110632910Y-141576300D01*
X110625618Y-141589654D01*
X109728500Y-141589654D01*
X109728500Y-140759818D01*
X109748502Y-140691697D01*
X109802158Y-140645204D01*
X109872432Y-140635100D01*
X109937012Y-140664594D01*
X109973707Y-140719005D01*
X109993184Y-140775894D01*
X109996499Y-140783779D01*
X110115664Y-141020713D01*
X110120020Y-141028079D01*
X110249347Y-141216250D01*
X110259601Y-141224594D01*
X110273342Y-141217448D01*
X111477978Y-140012812D01*
X111484356Y-140001132D01*
X112214408Y-140001132D01*
X112214539Y-140002965D01*
X112218790Y-140009580D01*
X113425730Y-141216520D01*
X113437939Y-141223187D01*
X113449439Y-141214497D01*
X113546831Y-141081913D01*
X113551418Y-141074685D01*
X113644498Y-140903254D01*
X113694581Y-140852932D01*
X113763919Y-140837676D01*
X113830498Y-140862328D01*
X113867794Y-140906762D01*
X113927160Y-141024799D01*
X113929586Y-141028328D01*
X113929589Y-141028334D01*
X114058741Y-141216250D01*
X114082274Y-141250490D01*
X114266582Y-141453043D01*
X114476675Y-141628707D01*
X114480316Y-141630991D01*
X114705024Y-141771951D01*
X114705028Y-141771953D01*
X114708664Y-141774234D01*
X114776544Y-141804883D01*
X114954345Y-141885164D01*
X114954349Y-141885166D01*
X114958257Y-141886930D01*
X114962377Y-141888150D01*
X114962376Y-141888150D01*
X115216723Y-141963491D01*
X115216727Y-141963492D01*
X115220836Y-141964709D01*
X115225070Y-141965357D01*
X115225075Y-141965358D01*
X115487298Y-142005483D01*
X115487300Y-142005483D01*
X115491540Y-142006132D01*
X115630912Y-142008322D01*
X115761071Y-142010367D01*
X115761077Y-142010367D01*
X115765362Y-142010434D01*
X116037235Y-141977534D01*
X116302127Y-141908041D01*
X116306087Y-141906401D01*
X116306092Y-141906399D01*
X116428631Y-141855641D01*
X116555136Y-141803241D01*
X116791582Y-141665073D01*
X116887767Y-141589654D01*
X118245618Y-141589654D01*
X118252673Y-141599627D01*
X118283679Y-141625551D01*
X118290598Y-141630579D01*
X118515272Y-141771515D01*
X118522807Y-141775556D01*
X118764520Y-141884694D01*
X118772551Y-141887680D01*
X119026832Y-141963002D01*
X119035184Y-141964869D01*
X119297340Y-142004984D01*
X119305874Y-142005700D01*
X119571045Y-142009867D01*
X119579596Y-142009418D01*
X119842883Y-141977557D01*
X119851284Y-141975955D01*
X120107824Y-141908653D01*
X120115926Y-141905926D01*
X120360949Y-141804434D01*
X120368617Y-141800628D01*
X120597598Y-141666822D01*
X120604679Y-141662009D01*
X120684655Y-141599301D01*
X120693125Y-141587442D01*
X120686608Y-141575818D01*
X119482812Y-140372022D01*
X119468868Y-140364408D01*
X119467035Y-140364539D01*
X119460420Y-140368790D01*
X118252910Y-141576300D01*
X118245618Y-141589654D01*
X116887767Y-141589654D01*
X117007089Y-141496094D01*
X117048809Y-141453043D01*
X117194686Y-141302509D01*
X117197669Y-141299431D01*
X117200202Y-141295983D01*
X117200206Y-141295978D01*
X117357257Y-141082178D01*
X117359795Y-141078723D01*
X117361841Y-141074955D01*
X117455062Y-140903264D01*
X117505145Y-140852942D01*
X117574483Y-140837686D01*
X117641062Y-140862339D01*
X117678358Y-140906772D01*
X117735664Y-141020713D01*
X117740020Y-141028079D01*
X117869347Y-141216250D01*
X117879601Y-141224594D01*
X117893342Y-141217448D01*
X119097978Y-140012812D01*
X119104356Y-140001132D01*
X119834408Y-140001132D01*
X119834539Y-140002965D01*
X119838790Y-140009580D01*
X121045730Y-141216520D01*
X121057939Y-141223187D01*
X121069439Y-141214497D01*
X121166831Y-141081913D01*
X121171418Y-141074685D01*
X121264498Y-140903254D01*
X121314581Y-140852932D01*
X121383919Y-140837676D01*
X121450498Y-140862328D01*
X121487794Y-140906762D01*
X121547160Y-141024799D01*
X121549586Y-141028328D01*
X121549589Y-141028334D01*
X121678741Y-141216250D01*
X121702274Y-141250490D01*
X121886582Y-141453043D01*
X122096675Y-141628707D01*
X122100316Y-141630991D01*
X122325024Y-141771951D01*
X122325028Y-141771953D01*
X122328664Y-141774234D01*
X122396544Y-141804883D01*
X122574345Y-141885164D01*
X122574349Y-141885166D01*
X122578257Y-141886930D01*
X122582377Y-141888150D01*
X122582376Y-141888150D01*
X122836723Y-141963491D01*
X122836727Y-141963492D01*
X122840836Y-141964709D01*
X122845070Y-141965357D01*
X122845075Y-141965358D01*
X123107298Y-142005483D01*
X123107300Y-142005483D01*
X123111540Y-142006132D01*
X123250912Y-142008322D01*
X123381071Y-142010367D01*
X123381077Y-142010367D01*
X123385362Y-142010434D01*
X123657235Y-141977534D01*
X123922127Y-141908041D01*
X123926087Y-141906401D01*
X123926092Y-141906399D01*
X124048631Y-141855641D01*
X124175136Y-141803241D01*
X124411582Y-141665073D01*
X124507767Y-141589654D01*
X125865618Y-141589654D01*
X125872673Y-141599627D01*
X125903679Y-141625551D01*
X125910598Y-141630579D01*
X126135272Y-141771515D01*
X126142807Y-141775556D01*
X126384520Y-141884694D01*
X126392551Y-141887680D01*
X126646832Y-141963002D01*
X126655184Y-141964869D01*
X126917340Y-142004984D01*
X126925874Y-142005700D01*
X127191045Y-142009867D01*
X127199596Y-142009418D01*
X127462883Y-141977557D01*
X127471284Y-141975955D01*
X127727824Y-141908653D01*
X127735926Y-141905926D01*
X127980949Y-141804434D01*
X127988617Y-141800628D01*
X128217598Y-141666822D01*
X128224679Y-141662009D01*
X128304655Y-141599301D01*
X128313125Y-141587442D01*
X128306608Y-141575818D01*
X127102812Y-140372022D01*
X127088868Y-140364408D01*
X127087035Y-140364539D01*
X127080420Y-140368790D01*
X125872910Y-141576300D01*
X125865618Y-141589654D01*
X124507767Y-141589654D01*
X124627089Y-141496094D01*
X124668809Y-141453043D01*
X124814686Y-141302509D01*
X124817669Y-141299431D01*
X124820202Y-141295983D01*
X124820206Y-141295978D01*
X124977257Y-141082178D01*
X124979795Y-141078723D01*
X124981841Y-141074955D01*
X125075062Y-140903264D01*
X125125145Y-140852942D01*
X125194483Y-140837686D01*
X125261062Y-140862339D01*
X125298358Y-140906772D01*
X125355664Y-141020713D01*
X125360020Y-141028079D01*
X125489347Y-141216250D01*
X125499601Y-141224594D01*
X125513342Y-141217448D01*
X126717978Y-140012812D01*
X126724356Y-140001132D01*
X127454408Y-140001132D01*
X127454539Y-140002965D01*
X127458790Y-140009580D01*
X128665730Y-141216520D01*
X128677939Y-141223187D01*
X128689439Y-141214497D01*
X128786831Y-141081913D01*
X128791418Y-141074685D01*
X128884498Y-140903254D01*
X128934581Y-140852932D01*
X129003919Y-140837676D01*
X129070498Y-140862328D01*
X129107794Y-140906762D01*
X129167160Y-141024799D01*
X129169586Y-141028328D01*
X129169589Y-141028334D01*
X129298741Y-141216250D01*
X129322274Y-141250490D01*
X129506582Y-141453043D01*
X129716675Y-141628707D01*
X129720316Y-141630991D01*
X129945024Y-141771951D01*
X129945028Y-141771953D01*
X129948664Y-141774234D01*
X130016544Y-141804883D01*
X130194345Y-141885164D01*
X130194349Y-141885166D01*
X130198257Y-141886930D01*
X130202377Y-141888150D01*
X130202376Y-141888150D01*
X130456723Y-141963491D01*
X130456727Y-141963492D01*
X130460836Y-141964709D01*
X130465070Y-141965357D01*
X130465075Y-141965358D01*
X130727298Y-142005483D01*
X130727300Y-142005483D01*
X130731540Y-142006132D01*
X130870912Y-142008322D01*
X131001071Y-142010367D01*
X131001077Y-142010367D01*
X131005362Y-142010434D01*
X131277235Y-141977534D01*
X131542127Y-141908041D01*
X131546087Y-141906401D01*
X131546092Y-141906399D01*
X131668631Y-141855641D01*
X131795136Y-141803241D01*
X132031582Y-141665073D01*
X132127767Y-141589654D01*
X133485618Y-141589654D01*
X133492673Y-141599627D01*
X133523679Y-141625551D01*
X133530598Y-141630579D01*
X133755272Y-141771515D01*
X133762807Y-141775556D01*
X134004520Y-141884694D01*
X134012551Y-141887680D01*
X134266832Y-141963002D01*
X134275184Y-141964869D01*
X134537340Y-142004984D01*
X134545874Y-142005700D01*
X134811045Y-142009867D01*
X134819596Y-142009418D01*
X135082883Y-141977557D01*
X135091284Y-141975955D01*
X135347824Y-141908653D01*
X135355926Y-141905926D01*
X135600949Y-141804434D01*
X135608617Y-141800628D01*
X135837598Y-141666822D01*
X135844679Y-141662009D01*
X135924655Y-141599301D01*
X135933125Y-141587442D01*
X135926608Y-141575818D01*
X134722812Y-140372022D01*
X134708868Y-140364408D01*
X134707035Y-140364539D01*
X134700420Y-140368790D01*
X133492910Y-141576300D01*
X133485618Y-141589654D01*
X132127767Y-141589654D01*
X132247089Y-141496094D01*
X132288809Y-141453043D01*
X132434686Y-141302509D01*
X132437669Y-141299431D01*
X132440202Y-141295983D01*
X132440206Y-141295978D01*
X132597257Y-141082178D01*
X132599795Y-141078723D01*
X132601841Y-141074955D01*
X132695062Y-140903264D01*
X132745145Y-140852942D01*
X132814483Y-140837686D01*
X132881062Y-140862339D01*
X132918358Y-140906772D01*
X132975664Y-141020713D01*
X132980020Y-141028079D01*
X133109347Y-141216250D01*
X133119601Y-141224594D01*
X133133342Y-141217448D01*
X134337978Y-140012812D01*
X134344356Y-140001132D01*
X135074408Y-140001132D01*
X135074539Y-140002965D01*
X135078790Y-140009580D01*
X136285730Y-141216520D01*
X136297939Y-141223187D01*
X136309439Y-141214497D01*
X136406831Y-141081913D01*
X136411418Y-141074685D01*
X136504498Y-140903254D01*
X136554581Y-140852932D01*
X136623919Y-140837676D01*
X136690498Y-140862328D01*
X136727794Y-140906762D01*
X136787160Y-141024799D01*
X136789586Y-141028328D01*
X136789589Y-141028334D01*
X136918741Y-141216250D01*
X136942274Y-141250490D01*
X137126582Y-141453043D01*
X137336675Y-141628707D01*
X137340316Y-141630991D01*
X137565024Y-141771951D01*
X137565028Y-141771953D01*
X137568664Y-141774234D01*
X137636544Y-141804883D01*
X137814345Y-141885164D01*
X137814349Y-141885166D01*
X137818257Y-141886930D01*
X137822377Y-141888150D01*
X137822376Y-141888150D01*
X138076723Y-141963491D01*
X138076727Y-141963492D01*
X138080836Y-141964709D01*
X138085070Y-141965357D01*
X138085075Y-141965358D01*
X138347298Y-142005483D01*
X138347300Y-142005483D01*
X138351540Y-142006132D01*
X138490912Y-142008322D01*
X138621071Y-142010367D01*
X138621077Y-142010367D01*
X138625362Y-142010434D01*
X138897235Y-141977534D01*
X139162127Y-141908041D01*
X139166087Y-141906401D01*
X139166092Y-141906399D01*
X139288631Y-141855641D01*
X139415136Y-141803241D01*
X139651582Y-141665073D01*
X139747767Y-141589654D01*
X141105618Y-141589654D01*
X141112673Y-141599627D01*
X141143679Y-141625551D01*
X141150598Y-141630579D01*
X141375272Y-141771515D01*
X141382807Y-141775556D01*
X141624520Y-141884694D01*
X141632551Y-141887680D01*
X141886832Y-141963002D01*
X141895184Y-141964869D01*
X142157340Y-142004984D01*
X142165874Y-142005700D01*
X142431045Y-142009867D01*
X142439596Y-142009418D01*
X142702883Y-141977557D01*
X142711284Y-141975955D01*
X142967824Y-141908653D01*
X142975926Y-141905926D01*
X143220949Y-141804434D01*
X143228617Y-141800628D01*
X143457598Y-141666822D01*
X143464679Y-141662009D01*
X143544655Y-141599301D01*
X143553125Y-141587442D01*
X143546608Y-141575818D01*
X142342812Y-140372022D01*
X142328868Y-140364408D01*
X142327035Y-140364539D01*
X142320420Y-140368790D01*
X141112910Y-141576300D01*
X141105618Y-141589654D01*
X139747767Y-141589654D01*
X139867089Y-141496094D01*
X139908809Y-141453043D01*
X140054686Y-141302509D01*
X140057669Y-141299431D01*
X140060202Y-141295983D01*
X140060206Y-141295978D01*
X140217257Y-141082178D01*
X140219795Y-141078723D01*
X140221841Y-141074955D01*
X140315062Y-140903264D01*
X140365145Y-140852942D01*
X140434483Y-140837686D01*
X140501062Y-140862339D01*
X140538358Y-140906772D01*
X140595664Y-141020713D01*
X140600020Y-141028079D01*
X140729347Y-141216250D01*
X140739601Y-141224594D01*
X140753342Y-141217448D01*
X141957978Y-140012812D01*
X141964356Y-140001132D01*
X142694408Y-140001132D01*
X142694539Y-140002965D01*
X142698790Y-140009580D01*
X143905730Y-141216520D01*
X143917939Y-141223187D01*
X143929439Y-141214497D01*
X144026831Y-141081913D01*
X144031418Y-141074685D01*
X144124498Y-140903254D01*
X144174581Y-140852932D01*
X144243919Y-140837676D01*
X144310498Y-140862328D01*
X144347794Y-140906762D01*
X144407160Y-141024799D01*
X144409586Y-141028328D01*
X144409589Y-141028334D01*
X144538741Y-141216250D01*
X144562274Y-141250490D01*
X144746582Y-141453043D01*
X144956675Y-141628707D01*
X144960316Y-141630991D01*
X145185024Y-141771951D01*
X145185028Y-141771953D01*
X145188664Y-141774234D01*
X145256544Y-141804883D01*
X145434345Y-141885164D01*
X145434349Y-141885166D01*
X145438257Y-141886930D01*
X145442377Y-141888150D01*
X145442376Y-141888150D01*
X145696723Y-141963491D01*
X145696727Y-141963492D01*
X145700836Y-141964709D01*
X145705070Y-141965357D01*
X145705075Y-141965358D01*
X145967298Y-142005483D01*
X145967300Y-142005483D01*
X145971540Y-142006132D01*
X146110912Y-142008322D01*
X146241071Y-142010367D01*
X146241077Y-142010367D01*
X146245362Y-142010434D01*
X146517235Y-141977534D01*
X146782127Y-141908041D01*
X146786087Y-141906401D01*
X146786092Y-141906399D01*
X146908631Y-141855641D01*
X147035136Y-141803241D01*
X147271582Y-141665073D01*
X147487089Y-141496094D01*
X147528809Y-141453043D01*
X147674686Y-141302509D01*
X147677669Y-141299431D01*
X147680202Y-141295983D01*
X147680206Y-141295978D01*
X147837257Y-141082178D01*
X147839795Y-141078723D01*
X147841841Y-141074955D01*
X147934772Y-140903798D01*
X147984855Y-140853476D01*
X148054193Y-140838220D01*
X148120772Y-140862873D01*
X148158067Y-140907304D01*
X148217160Y-141024799D01*
X148219586Y-141028328D01*
X148219589Y-141028334D01*
X148348741Y-141216250D01*
X148372274Y-141250490D01*
X148556582Y-141453043D01*
X148766675Y-141628707D01*
X148770316Y-141630991D01*
X148995024Y-141771951D01*
X148995028Y-141771953D01*
X148998664Y-141774234D01*
X149066544Y-141804883D01*
X149244345Y-141885164D01*
X149244349Y-141885166D01*
X149248257Y-141886930D01*
X149252377Y-141888150D01*
X149252376Y-141888150D01*
X149506723Y-141963491D01*
X149506727Y-141963492D01*
X149510836Y-141964709D01*
X149515070Y-141965357D01*
X149515075Y-141965358D01*
X149777298Y-142005483D01*
X149777300Y-142005483D01*
X149781540Y-142006132D01*
X149920912Y-142008322D01*
X150051071Y-142010367D01*
X150051077Y-142010367D01*
X150055362Y-142010434D01*
X150327235Y-141977534D01*
X150592127Y-141908041D01*
X150596087Y-141906401D01*
X150596092Y-141906399D01*
X150718631Y-141855641D01*
X150845136Y-141803241D01*
X151081582Y-141665073D01*
X151297089Y-141496094D01*
X151338809Y-141453043D01*
X151484686Y-141302509D01*
X151487669Y-141299431D01*
X151490202Y-141295983D01*
X151490206Y-141295978D01*
X151647257Y-141082178D01*
X151649795Y-141078723D01*
X151651841Y-141074955D01*
X151778418Y-140841830D01*
X151778419Y-140841828D01*
X151780468Y-140838054D01*
X151853340Y-140645204D01*
X151875751Y-140585895D01*
X151875752Y-140585891D01*
X151877269Y-140581877D01*
X151938407Y-140314933D01*
X151962751Y-140042161D01*
X151963193Y-140000000D01*
X151944567Y-139726778D01*
X151889032Y-139458612D01*
X151797617Y-139200465D01*
X151672013Y-138957112D01*
X151662040Y-138942921D01*
X151517008Y-138736562D01*
X151514545Y-138733057D01*
X151328125Y-138532445D01*
X151324810Y-138529731D01*
X151324806Y-138529728D01*
X151119523Y-138361706D01*
X151116205Y-138358990D01*
X150882704Y-138215901D01*
X150878768Y-138214173D01*
X150635873Y-138107549D01*
X150635869Y-138107548D01*
X150631945Y-138105825D01*
X150368566Y-138030800D01*
X150364324Y-138030196D01*
X150364318Y-138030195D01*
X150163834Y-138001662D01*
X150097443Y-137992213D01*
X149953589Y-137991460D01*
X149827877Y-137990802D01*
X149827871Y-137990802D01*
X149823591Y-137990780D01*
X149819347Y-137991339D01*
X149819343Y-137991339D01*
X149700302Y-138007011D01*
X149552078Y-138026525D01*
X149547938Y-138027658D01*
X149547936Y-138027658D01*
X149475008Y-138047609D01*
X149287928Y-138098788D01*
X149283980Y-138100472D01*
X149039982Y-138204546D01*
X149039978Y-138204548D01*
X149036030Y-138206232D01*
X149016125Y-138218145D01*
X148804725Y-138344664D01*
X148804721Y-138344667D01*
X148801043Y-138346868D01*
X148587318Y-138518094D01*
X148398808Y-138716742D01*
X148239002Y-138939136D01*
X148236998Y-138942921D01*
X148156185Y-139095551D01*
X148106632Y-139146394D01*
X148037457Y-139162376D01*
X147970624Y-139138422D01*
X147932864Y-139094382D01*
X147863978Y-138960919D01*
X147863978Y-138960918D01*
X147862013Y-138957112D01*
X147852040Y-138942921D01*
X147707008Y-138736562D01*
X147704545Y-138733057D01*
X147518125Y-138532445D01*
X147514810Y-138529731D01*
X147514806Y-138529728D01*
X147309523Y-138361706D01*
X147306205Y-138358990D01*
X147072704Y-138215901D01*
X147068768Y-138214173D01*
X146825873Y-138107549D01*
X146825869Y-138107548D01*
X146821945Y-138105825D01*
X146558566Y-138030800D01*
X146554324Y-138030196D01*
X146554318Y-138030195D01*
X146353834Y-138001662D01*
X146287443Y-137992213D01*
X146143589Y-137991460D01*
X146017877Y-137990802D01*
X146017871Y-137990802D01*
X146013591Y-137990780D01*
X146009347Y-137991339D01*
X146009343Y-137991339D01*
X145890302Y-138007011D01*
X145742078Y-138026525D01*
X145737938Y-138027658D01*
X145737936Y-138027658D01*
X145665008Y-138047609D01*
X145477928Y-138098788D01*
X145473980Y-138100472D01*
X145229982Y-138204546D01*
X145229978Y-138204548D01*
X145226030Y-138206232D01*
X145206125Y-138218145D01*
X144994725Y-138344664D01*
X144994721Y-138344667D01*
X144991043Y-138346868D01*
X144777318Y-138518094D01*
X144588808Y-138716742D01*
X144429002Y-138939136D01*
X144426998Y-138942921D01*
X144345900Y-139096089D01*
X144296347Y-139146932D01*
X144227172Y-139162914D01*
X144160339Y-139138960D01*
X144122579Y-139094920D01*
X144053550Y-138961178D01*
X144049122Y-138953866D01*
X143930031Y-138784417D01*
X143919509Y-138776037D01*
X143906121Y-138783089D01*
X142702022Y-139987188D01*
X142694408Y-140001132D01*
X141964356Y-140001132D01*
X141965592Y-139998868D01*
X141965461Y-139997035D01*
X141961210Y-139990420D01*
X140753814Y-138783024D01*
X140741804Y-138776466D01*
X140730064Y-138785434D01*
X140621935Y-138935911D01*
X140617418Y-138943196D01*
X140536463Y-139096093D01*
X140486910Y-139146936D01*
X140417736Y-139162918D01*
X140350902Y-139138964D01*
X140313143Y-139094924D01*
X140243978Y-138960919D01*
X140243978Y-138960918D01*
X140242013Y-138957112D01*
X140232040Y-138942921D01*
X140087008Y-138736562D01*
X140084545Y-138733057D01*
X139898125Y-138532445D01*
X139894810Y-138529731D01*
X139894806Y-138529728D01*
X139751581Y-138412500D01*
X141106584Y-138412500D01*
X141112980Y-138423770D01*
X142317188Y-139627978D01*
X142331132Y-139635592D01*
X142332965Y-139635461D01*
X142339580Y-139631210D01*
X143546604Y-138424186D01*
X143553795Y-138411017D01*
X143546473Y-138400780D01*
X143499233Y-138362115D01*
X143492261Y-138357160D01*
X143266122Y-138218582D01*
X143258552Y-138214624D01*
X143015704Y-138108022D01*
X143007644Y-138105120D01*
X142752592Y-138032467D01*
X142744214Y-138030685D01*
X142481656Y-137993318D01*
X142473111Y-137992691D01*
X142207908Y-137991302D01*
X142199374Y-137991839D01*
X141936433Y-138026456D01*
X141928035Y-138028149D01*
X141672238Y-138098127D01*
X141664143Y-138100946D01*
X141420199Y-138204997D01*
X141412577Y-138208881D01*
X141185013Y-138345075D01*
X141177981Y-138349962D01*
X141115053Y-138400377D01*
X141106584Y-138412500D01*
X139751581Y-138412500D01*
X139689523Y-138361706D01*
X139686205Y-138358990D01*
X139452704Y-138215901D01*
X139448768Y-138214173D01*
X139205873Y-138107549D01*
X139205869Y-138107548D01*
X139201945Y-138105825D01*
X138938566Y-138030800D01*
X138934324Y-138030196D01*
X138934318Y-138030195D01*
X138733834Y-138001662D01*
X138667443Y-137992213D01*
X138523589Y-137991460D01*
X138397877Y-137990802D01*
X138397871Y-137990802D01*
X138393591Y-137990780D01*
X138389347Y-137991339D01*
X138389343Y-137991339D01*
X138270302Y-138007011D01*
X138122078Y-138026525D01*
X138117938Y-138027658D01*
X138117936Y-138027658D01*
X138045008Y-138047609D01*
X137857928Y-138098788D01*
X137853980Y-138100472D01*
X137609982Y-138204546D01*
X137609978Y-138204548D01*
X137606030Y-138206232D01*
X137586125Y-138218145D01*
X137374725Y-138344664D01*
X137374721Y-138344667D01*
X137371043Y-138346868D01*
X137157318Y-138518094D01*
X136968808Y-138716742D01*
X136809002Y-138939136D01*
X136806998Y-138942921D01*
X136725900Y-139096089D01*
X136676347Y-139146932D01*
X136607172Y-139162914D01*
X136540339Y-139138960D01*
X136502579Y-139094920D01*
X136433550Y-138961178D01*
X136429122Y-138953866D01*
X136310031Y-138784417D01*
X136299509Y-138776037D01*
X136286121Y-138783089D01*
X135082022Y-139987188D01*
X135074408Y-140001132D01*
X134344356Y-140001132D01*
X134345592Y-139998868D01*
X134345461Y-139997035D01*
X134341210Y-139990420D01*
X133133814Y-138783024D01*
X133121804Y-138776466D01*
X133110064Y-138785434D01*
X133001935Y-138935911D01*
X132997418Y-138943196D01*
X132916463Y-139096093D01*
X132866910Y-139146936D01*
X132797736Y-139162918D01*
X132730902Y-139138964D01*
X132693143Y-139094924D01*
X132623978Y-138960919D01*
X132623978Y-138960918D01*
X132622013Y-138957112D01*
X132612040Y-138942921D01*
X132467008Y-138736562D01*
X132464545Y-138733057D01*
X132278125Y-138532445D01*
X132274810Y-138529731D01*
X132274806Y-138529728D01*
X132131581Y-138412500D01*
X133486584Y-138412500D01*
X133492980Y-138423770D01*
X134697188Y-139627978D01*
X134711132Y-139635592D01*
X134712965Y-139635461D01*
X134719580Y-139631210D01*
X135926604Y-138424186D01*
X135933795Y-138411017D01*
X135926473Y-138400780D01*
X135879233Y-138362115D01*
X135872261Y-138357160D01*
X135646122Y-138218582D01*
X135638552Y-138214624D01*
X135395704Y-138108022D01*
X135387644Y-138105120D01*
X135132592Y-138032467D01*
X135124214Y-138030685D01*
X134861656Y-137993318D01*
X134853111Y-137992691D01*
X134587908Y-137991302D01*
X134579374Y-137991839D01*
X134316433Y-138026456D01*
X134308035Y-138028149D01*
X134052238Y-138098127D01*
X134044143Y-138100946D01*
X133800199Y-138204997D01*
X133792577Y-138208881D01*
X133565013Y-138345075D01*
X133557981Y-138349962D01*
X133495053Y-138400377D01*
X133486584Y-138412500D01*
X132131581Y-138412500D01*
X132069523Y-138361706D01*
X132066205Y-138358990D01*
X131832704Y-138215901D01*
X131828768Y-138214173D01*
X131585873Y-138107549D01*
X131585869Y-138107548D01*
X131581945Y-138105825D01*
X131318566Y-138030800D01*
X131314324Y-138030196D01*
X131314318Y-138030195D01*
X131113834Y-138001662D01*
X131047443Y-137992213D01*
X130903589Y-137991460D01*
X130777877Y-137990802D01*
X130777871Y-137990802D01*
X130773591Y-137990780D01*
X130769347Y-137991339D01*
X130769343Y-137991339D01*
X130650302Y-138007011D01*
X130502078Y-138026525D01*
X130497938Y-138027658D01*
X130497936Y-138027658D01*
X130425008Y-138047609D01*
X130237928Y-138098788D01*
X130233980Y-138100472D01*
X129989982Y-138204546D01*
X129989978Y-138204548D01*
X129986030Y-138206232D01*
X129966125Y-138218145D01*
X129754725Y-138344664D01*
X129754721Y-138344667D01*
X129751043Y-138346868D01*
X129537318Y-138518094D01*
X129348808Y-138716742D01*
X129189002Y-138939136D01*
X129186998Y-138942921D01*
X129105900Y-139096089D01*
X129056347Y-139146932D01*
X128987172Y-139162914D01*
X128920339Y-139138960D01*
X128882579Y-139094920D01*
X128813550Y-138961178D01*
X128809122Y-138953866D01*
X128690031Y-138784417D01*
X128679509Y-138776037D01*
X128666121Y-138783089D01*
X127462022Y-139987188D01*
X127454408Y-140001132D01*
X126724356Y-140001132D01*
X126725592Y-139998868D01*
X126725461Y-139997035D01*
X126721210Y-139990420D01*
X125513814Y-138783024D01*
X125501804Y-138776466D01*
X125490064Y-138785434D01*
X125381935Y-138935911D01*
X125377418Y-138943196D01*
X125296463Y-139096093D01*
X125246910Y-139146936D01*
X125177736Y-139162918D01*
X125110902Y-139138964D01*
X125073143Y-139094924D01*
X125003978Y-138960919D01*
X125003978Y-138960918D01*
X125002013Y-138957112D01*
X124992040Y-138942921D01*
X124847008Y-138736562D01*
X124844545Y-138733057D01*
X124658125Y-138532445D01*
X124654810Y-138529731D01*
X124654806Y-138529728D01*
X124511581Y-138412500D01*
X125866584Y-138412500D01*
X125872980Y-138423770D01*
X127077188Y-139627978D01*
X127091132Y-139635592D01*
X127092965Y-139635461D01*
X127099580Y-139631210D01*
X128306604Y-138424186D01*
X128313795Y-138411017D01*
X128306473Y-138400780D01*
X128259233Y-138362115D01*
X128252261Y-138357160D01*
X128026122Y-138218582D01*
X128018552Y-138214624D01*
X127775704Y-138108022D01*
X127767644Y-138105120D01*
X127512592Y-138032467D01*
X127504214Y-138030685D01*
X127241656Y-137993318D01*
X127233111Y-137992691D01*
X126967908Y-137991302D01*
X126959374Y-137991839D01*
X126696433Y-138026456D01*
X126688035Y-138028149D01*
X126432238Y-138098127D01*
X126424143Y-138100946D01*
X126180199Y-138204997D01*
X126172577Y-138208881D01*
X125945013Y-138345075D01*
X125937981Y-138349962D01*
X125875053Y-138400377D01*
X125866584Y-138412500D01*
X124511581Y-138412500D01*
X124449523Y-138361706D01*
X124446205Y-138358990D01*
X124212704Y-138215901D01*
X124208768Y-138214173D01*
X123965873Y-138107549D01*
X123965869Y-138107548D01*
X123961945Y-138105825D01*
X123698566Y-138030800D01*
X123694324Y-138030196D01*
X123694318Y-138030195D01*
X123493834Y-138001662D01*
X123427443Y-137992213D01*
X123283589Y-137991460D01*
X123157877Y-137990802D01*
X123157871Y-137990802D01*
X123153591Y-137990780D01*
X123149347Y-137991339D01*
X123149343Y-137991339D01*
X123030302Y-138007011D01*
X122882078Y-138026525D01*
X122877938Y-138027658D01*
X122877936Y-138027658D01*
X122805008Y-138047609D01*
X122617928Y-138098788D01*
X122613980Y-138100472D01*
X122369982Y-138204546D01*
X122369978Y-138204548D01*
X122366030Y-138206232D01*
X122346125Y-138218145D01*
X122134725Y-138344664D01*
X122134721Y-138344667D01*
X122131043Y-138346868D01*
X121917318Y-138518094D01*
X121728808Y-138716742D01*
X121569002Y-138939136D01*
X121566998Y-138942921D01*
X121485900Y-139096089D01*
X121436347Y-139146932D01*
X121367172Y-139162914D01*
X121300339Y-139138960D01*
X121262579Y-139094920D01*
X121193550Y-138961178D01*
X121189122Y-138953866D01*
X121070031Y-138784417D01*
X121059509Y-138776037D01*
X121046121Y-138783089D01*
X119842022Y-139987188D01*
X119834408Y-140001132D01*
X119104356Y-140001132D01*
X119105592Y-139998868D01*
X119105461Y-139997035D01*
X119101210Y-139990420D01*
X117893814Y-138783024D01*
X117881804Y-138776466D01*
X117870064Y-138785434D01*
X117761935Y-138935911D01*
X117757418Y-138943196D01*
X117676463Y-139096093D01*
X117626910Y-139146936D01*
X117557736Y-139162918D01*
X117490902Y-139138964D01*
X117453143Y-139094924D01*
X117383978Y-138960919D01*
X117383978Y-138960918D01*
X117382013Y-138957112D01*
X117372040Y-138942921D01*
X117227008Y-138736562D01*
X117224545Y-138733057D01*
X117038125Y-138532445D01*
X117034810Y-138529731D01*
X117034806Y-138529728D01*
X116891581Y-138412500D01*
X118246584Y-138412500D01*
X118252980Y-138423770D01*
X119457188Y-139627978D01*
X119471132Y-139635592D01*
X119472965Y-139635461D01*
X119479580Y-139631210D01*
X120686604Y-138424186D01*
X120693795Y-138411017D01*
X120686473Y-138400780D01*
X120639233Y-138362115D01*
X120632261Y-138357160D01*
X120406122Y-138218582D01*
X120398552Y-138214624D01*
X120155704Y-138108022D01*
X120147644Y-138105120D01*
X119892592Y-138032467D01*
X119884214Y-138030685D01*
X119621656Y-137993318D01*
X119613111Y-137992691D01*
X119347908Y-137991302D01*
X119339374Y-137991839D01*
X119076433Y-138026456D01*
X119068035Y-138028149D01*
X118812238Y-138098127D01*
X118804143Y-138100946D01*
X118560199Y-138204997D01*
X118552577Y-138208881D01*
X118325013Y-138345075D01*
X118317981Y-138349962D01*
X118255053Y-138400377D01*
X118246584Y-138412500D01*
X116891581Y-138412500D01*
X116829523Y-138361706D01*
X116826205Y-138358990D01*
X116592704Y-138215901D01*
X116588768Y-138214173D01*
X116345873Y-138107549D01*
X116345869Y-138107548D01*
X116341945Y-138105825D01*
X116078566Y-138030800D01*
X116074324Y-138030196D01*
X116074318Y-138030195D01*
X115873834Y-138001662D01*
X115807443Y-137992213D01*
X115663589Y-137991460D01*
X115537877Y-137990802D01*
X115537871Y-137990802D01*
X115533591Y-137990780D01*
X115529347Y-137991339D01*
X115529343Y-137991339D01*
X115410302Y-138007011D01*
X115262078Y-138026525D01*
X115257938Y-138027658D01*
X115257936Y-138027658D01*
X115185008Y-138047609D01*
X114997928Y-138098788D01*
X114993980Y-138100472D01*
X114749982Y-138204546D01*
X114749978Y-138204548D01*
X114746030Y-138206232D01*
X114726125Y-138218145D01*
X114514725Y-138344664D01*
X114514721Y-138344667D01*
X114511043Y-138346868D01*
X114297318Y-138518094D01*
X114108808Y-138716742D01*
X113949002Y-138939136D01*
X113946998Y-138942921D01*
X113865900Y-139096089D01*
X113816347Y-139146932D01*
X113747172Y-139162914D01*
X113680339Y-139138960D01*
X113642579Y-139094920D01*
X113573550Y-138961178D01*
X113569122Y-138953866D01*
X113450031Y-138784417D01*
X113439509Y-138776037D01*
X113426121Y-138783089D01*
X112222022Y-139987188D01*
X112214408Y-140001132D01*
X111484356Y-140001132D01*
X111485592Y-139998868D01*
X111485461Y-139997035D01*
X111481210Y-139990420D01*
X110273814Y-138783024D01*
X110261804Y-138776466D01*
X110250064Y-138785434D01*
X110141935Y-138935911D01*
X110137418Y-138943196D01*
X110013325Y-139177567D01*
X110009839Y-139185395D01*
X109972826Y-139286539D01*
X109930632Y-139343637D01*
X109864267Y-139368859D01*
X109794801Y-139354197D01*
X109744289Y-139304307D01*
X109728500Y-139243238D01*
X109728500Y-138412500D01*
X110626584Y-138412500D01*
X110632980Y-138423770D01*
X111837188Y-139627978D01*
X111851132Y-139635592D01*
X111852965Y-139635461D01*
X111859580Y-139631210D01*
X113066604Y-138424186D01*
X113073795Y-138411017D01*
X113066473Y-138400780D01*
X113019233Y-138362115D01*
X113012261Y-138357160D01*
X112786122Y-138218582D01*
X112778552Y-138214624D01*
X112535704Y-138108022D01*
X112527644Y-138105120D01*
X112272592Y-138032467D01*
X112264214Y-138030685D01*
X112001656Y-137993318D01*
X111993111Y-137992691D01*
X111727908Y-137991302D01*
X111719374Y-137991839D01*
X111456433Y-138026456D01*
X111448035Y-138028149D01*
X111192238Y-138098127D01*
X111184143Y-138100946D01*
X110940199Y-138204997D01*
X110932577Y-138208881D01*
X110705013Y-138345075D01*
X110697981Y-138349962D01*
X110635053Y-138400377D01*
X110626584Y-138412500D01*
X109728500Y-138412500D01*
X109728500Y-134978918D01*
X111741917Y-134978918D01*
X111757682Y-135252320D01*
X111758507Y-135256525D01*
X111758508Y-135256533D01*
X111779698Y-135364539D01*
X111810405Y-135521053D01*
X111811792Y-135525103D01*
X111811793Y-135525108D01*
X111832605Y-135585895D01*
X111899112Y-135780144D01*
X112022160Y-136024799D01*
X112024586Y-136028328D01*
X112024589Y-136028334D01*
X112153741Y-136216250D01*
X112177274Y-136250490D01*
X112361582Y-136453043D01*
X112571675Y-136628707D01*
X112575316Y-136630991D01*
X112800024Y-136771951D01*
X112800028Y-136771953D01*
X112803664Y-136774234D01*
X112871544Y-136804883D01*
X113049345Y-136885164D01*
X113049349Y-136885166D01*
X113053257Y-136886930D01*
X113057377Y-136888150D01*
X113057376Y-136888150D01*
X113311723Y-136963491D01*
X113311727Y-136963492D01*
X113315836Y-136964709D01*
X113320070Y-136965357D01*
X113320075Y-136965358D01*
X113582298Y-137005483D01*
X113582300Y-137005483D01*
X113586540Y-137006132D01*
X113725912Y-137008322D01*
X113856071Y-137010367D01*
X113856077Y-137010367D01*
X113860362Y-137010434D01*
X114132235Y-136977534D01*
X114397127Y-136908041D01*
X114401087Y-136906401D01*
X114401092Y-136906399D01*
X114523631Y-136855641D01*
X114650136Y-136803241D01*
X114886582Y-136665073D01*
X114982767Y-136589654D01*
X116340618Y-136589654D01*
X116347673Y-136599627D01*
X116378679Y-136625551D01*
X116385598Y-136630579D01*
X116610272Y-136771515D01*
X116617807Y-136775556D01*
X116859520Y-136884694D01*
X116867551Y-136887680D01*
X117121832Y-136963002D01*
X117130184Y-136964869D01*
X117392340Y-137004984D01*
X117400874Y-137005700D01*
X117666045Y-137009867D01*
X117674596Y-137009418D01*
X117937883Y-136977557D01*
X117946284Y-136975955D01*
X118202824Y-136908653D01*
X118210926Y-136905926D01*
X118455949Y-136804434D01*
X118463617Y-136800628D01*
X118692598Y-136666822D01*
X118699679Y-136662009D01*
X118779655Y-136599301D01*
X118788125Y-136587442D01*
X118781608Y-136575818D01*
X117577812Y-135372022D01*
X117563868Y-135364408D01*
X117562035Y-135364539D01*
X117555420Y-135368790D01*
X116347910Y-136576300D01*
X116340618Y-136589654D01*
X114982767Y-136589654D01*
X115102089Y-136496094D01*
X115143809Y-136453043D01*
X115289686Y-136302509D01*
X115292669Y-136299431D01*
X115295202Y-136295983D01*
X115295206Y-136295978D01*
X115452257Y-136082178D01*
X115454795Y-136078723D01*
X115456841Y-136074955D01*
X115550062Y-135903264D01*
X115600145Y-135852942D01*
X115669483Y-135837686D01*
X115736062Y-135862339D01*
X115773358Y-135906772D01*
X115830664Y-136020713D01*
X115835020Y-136028079D01*
X115964347Y-136216250D01*
X115974601Y-136224594D01*
X115988342Y-136217448D01*
X117192978Y-135012812D01*
X117199356Y-135001132D01*
X117929408Y-135001132D01*
X117929539Y-135002965D01*
X117933790Y-135009580D01*
X119140730Y-136216520D01*
X119152939Y-136223187D01*
X119164439Y-136214497D01*
X119261831Y-136081913D01*
X119266418Y-136074685D01*
X119359498Y-135903254D01*
X119409581Y-135852932D01*
X119478919Y-135837676D01*
X119545498Y-135862328D01*
X119582794Y-135906762D01*
X119642160Y-136024799D01*
X119644586Y-136028328D01*
X119644589Y-136028334D01*
X119773741Y-136216250D01*
X119797274Y-136250490D01*
X119981582Y-136453043D01*
X120191675Y-136628707D01*
X120195316Y-136630991D01*
X120420024Y-136771951D01*
X120420028Y-136771953D01*
X120423664Y-136774234D01*
X120491544Y-136804883D01*
X120669345Y-136885164D01*
X120669349Y-136885166D01*
X120673257Y-136886930D01*
X120677377Y-136888150D01*
X120677376Y-136888150D01*
X120931723Y-136963491D01*
X120931727Y-136963492D01*
X120935836Y-136964709D01*
X120940070Y-136965357D01*
X120940075Y-136965358D01*
X121202298Y-137005483D01*
X121202300Y-137005483D01*
X121206540Y-137006132D01*
X121345912Y-137008322D01*
X121476071Y-137010367D01*
X121476077Y-137010367D01*
X121480362Y-137010434D01*
X121752235Y-136977534D01*
X122017127Y-136908041D01*
X122021087Y-136906401D01*
X122021092Y-136906399D01*
X122143631Y-136855641D01*
X122270136Y-136803241D01*
X122506582Y-136665073D01*
X122722089Y-136496094D01*
X122763809Y-136453043D01*
X122909686Y-136302509D01*
X122912669Y-136299431D01*
X122915202Y-136295983D01*
X122915206Y-136295978D01*
X123072257Y-136082178D01*
X123074795Y-136078723D01*
X123076841Y-136074955D01*
X123169772Y-135903798D01*
X123219855Y-135853476D01*
X123289193Y-135838220D01*
X123355772Y-135862873D01*
X123393067Y-135907304D01*
X123452160Y-136024799D01*
X123454586Y-136028328D01*
X123454589Y-136028334D01*
X123583741Y-136216250D01*
X123607274Y-136250490D01*
X123791582Y-136453043D01*
X124001675Y-136628707D01*
X124005316Y-136630991D01*
X124230024Y-136771951D01*
X124230028Y-136771953D01*
X124233664Y-136774234D01*
X124301544Y-136804883D01*
X124479345Y-136885164D01*
X124479349Y-136885166D01*
X124483257Y-136886930D01*
X124487377Y-136888150D01*
X124487376Y-136888150D01*
X124741723Y-136963491D01*
X124741727Y-136963492D01*
X124745836Y-136964709D01*
X124750070Y-136965357D01*
X124750075Y-136965358D01*
X125012298Y-137005483D01*
X125012300Y-137005483D01*
X125016540Y-137006132D01*
X125155912Y-137008322D01*
X125286071Y-137010367D01*
X125286077Y-137010367D01*
X125290362Y-137010434D01*
X125562235Y-136977534D01*
X125827127Y-136908041D01*
X125831087Y-136906401D01*
X125831092Y-136906399D01*
X125953631Y-136855641D01*
X126080136Y-136803241D01*
X126316582Y-136665073D01*
X126532089Y-136496094D01*
X126573809Y-136453043D01*
X126719686Y-136302509D01*
X126722669Y-136299431D01*
X126725202Y-136295983D01*
X126725206Y-136295978D01*
X126882257Y-136082178D01*
X126884795Y-136078723D01*
X126886841Y-136074955D01*
X126979772Y-135903798D01*
X127029855Y-135853476D01*
X127099193Y-135838220D01*
X127165772Y-135862873D01*
X127203067Y-135907304D01*
X127262160Y-136024799D01*
X127264586Y-136028328D01*
X127264589Y-136028334D01*
X127393741Y-136216250D01*
X127417274Y-136250490D01*
X127601582Y-136453043D01*
X127811675Y-136628707D01*
X127815316Y-136630991D01*
X128040024Y-136771951D01*
X128040028Y-136771953D01*
X128043664Y-136774234D01*
X128111544Y-136804883D01*
X128289345Y-136885164D01*
X128289349Y-136885166D01*
X128293257Y-136886930D01*
X128297377Y-136888150D01*
X128297376Y-136888150D01*
X128551723Y-136963491D01*
X128551727Y-136963492D01*
X128555836Y-136964709D01*
X128560070Y-136965357D01*
X128560075Y-136965358D01*
X128822298Y-137005483D01*
X128822300Y-137005483D01*
X128826540Y-137006132D01*
X128965912Y-137008322D01*
X129096071Y-137010367D01*
X129096077Y-137010367D01*
X129100362Y-137010434D01*
X129372235Y-136977534D01*
X129637127Y-136908041D01*
X129641087Y-136906401D01*
X129641092Y-136906399D01*
X129763631Y-136855641D01*
X129890136Y-136803241D01*
X130126582Y-136665073D01*
X130342089Y-136496094D01*
X130383809Y-136453043D01*
X130529686Y-136302509D01*
X130532669Y-136299431D01*
X130535202Y-136295983D01*
X130535206Y-136295978D01*
X130692257Y-136082178D01*
X130694795Y-136078723D01*
X130696841Y-136074955D01*
X130789772Y-135903798D01*
X130839855Y-135853476D01*
X130909193Y-135838220D01*
X130975772Y-135862873D01*
X131013067Y-135907304D01*
X131072160Y-136024799D01*
X131074586Y-136028328D01*
X131074589Y-136028334D01*
X131203741Y-136216250D01*
X131227274Y-136250490D01*
X131411582Y-136453043D01*
X131621675Y-136628707D01*
X131625316Y-136630991D01*
X131850024Y-136771951D01*
X131850028Y-136771953D01*
X131853664Y-136774234D01*
X131921544Y-136804883D01*
X132099345Y-136885164D01*
X132099349Y-136885166D01*
X132103257Y-136886930D01*
X132107377Y-136888150D01*
X132107376Y-136888150D01*
X132361723Y-136963491D01*
X132361727Y-136963492D01*
X132365836Y-136964709D01*
X132370070Y-136965357D01*
X132370075Y-136965358D01*
X132632298Y-137005483D01*
X132632300Y-137005483D01*
X132636540Y-137006132D01*
X132775912Y-137008322D01*
X132906071Y-137010367D01*
X132906077Y-137010367D01*
X132910362Y-137010434D01*
X133182235Y-136977534D01*
X133447127Y-136908041D01*
X133451087Y-136906401D01*
X133451092Y-136906399D01*
X133573631Y-136855641D01*
X133700136Y-136803241D01*
X133936582Y-136665073D01*
X134152089Y-136496094D01*
X134193809Y-136453043D01*
X134339686Y-136302509D01*
X134342669Y-136299431D01*
X134345202Y-136295983D01*
X134345206Y-136295978D01*
X134502257Y-136082178D01*
X134504795Y-136078723D01*
X134506841Y-136074955D01*
X134599772Y-135903798D01*
X134649855Y-135853476D01*
X134719193Y-135838220D01*
X134785772Y-135862873D01*
X134823067Y-135907304D01*
X134882160Y-136024799D01*
X134884586Y-136028328D01*
X134884589Y-136028334D01*
X135013741Y-136216250D01*
X135037274Y-136250490D01*
X135221582Y-136453043D01*
X135431675Y-136628707D01*
X135435316Y-136630991D01*
X135660024Y-136771951D01*
X135660028Y-136771953D01*
X135663664Y-136774234D01*
X135731544Y-136804883D01*
X135909345Y-136885164D01*
X135909349Y-136885166D01*
X135913257Y-136886930D01*
X135917377Y-136888150D01*
X135917376Y-136888150D01*
X136171723Y-136963491D01*
X136171727Y-136963492D01*
X136175836Y-136964709D01*
X136180070Y-136965357D01*
X136180075Y-136965358D01*
X136442298Y-137005483D01*
X136442300Y-137005483D01*
X136446540Y-137006132D01*
X136585912Y-137008322D01*
X136716071Y-137010367D01*
X136716077Y-137010367D01*
X136720362Y-137010434D01*
X136992235Y-136977534D01*
X137257127Y-136908041D01*
X137261087Y-136906401D01*
X137261092Y-136906399D01*
X137383631Y-136855641D01*
X137510136Y-136803241D01*
X137746582Y-136665073D01*
X137962089Y-136496094D01*
X138003809Y-136453043D01*
X138149686Y-136302509D01*
X138152669Y-136299431D01*
X138155202Y-136295983D01*
X138155206Y-136295978D01*
X138312257Y-136082178D01*
X138314795Y-136078723D01*
X138316841Y-136074955D01*
X138409772Y-135903798D01*
X138459855Y-135853476D01*
X138529193Y-135838220D01*
X138595772Y-135862873D01*
X138633067Y-135907304D01*
X138692160Y-136024799D01*
X138694586Y-136028328D01*
X138694589Y-136028334D01*
X138823741Y-136216250D01*
X138847274Y-136250490D01*
X139031582Y-136453043D01*
X139241675Y-136628707D01*
X139245316Y-136630991D01*
X139470024Y-136771951D01*
X139470028Y-136771953D01*
X139473664Y-136774234D01*
X139541544Y-136804883D01*
X139719345Y-136885164D01*
X139719349Y-136885166D01*
X139723257Y-136886930D01*
X139727377Y-136888150D01*
X139727376Y-136888150D01*
X139981723Y-136963491D01*
X139981727Y-136963492D01*
X139985836Y-136964709D01*
X139990070Y-136965357D01*
X139990075Y-136965358D01*
X140252298Y-137005483D01*
X140252300Y-137005483D01*
X140256540Y-137006132D01*
X140395912Y-137008322D01*
X140526071Y-137010367D01*
X140526077Y-137010367D01*
X140530362Y-137010434D01*
X140802235Y-136977534D01*
X141067127Y-136908041D01*
X141071087Y-136906401D01*
X141071092Y-136906399D01*
X141193631Y-136855641D01*
X141320136Y-136803241D01*
X141556582Y-136665073D01*
X141652767Y-136589654D01*
X143010618Y-136589654D01*
X143017673Y-136599627D01*
X143048679Y-136625551D01*
X143055598Y-136630579D01*
X143280272Y-136771515D01*
X143287807Y-136775556D01*
X143529520Y-136884694D01*
X143537551Y-136887680D01*
X143791832Y-136963002D01*
X143800184Y-136964869D01*
X144062340Y-137004984D01*
X144070874Y-137005700D01*
X144336045Y-137009867D01*
X144344596Y-137009418D01*
X144607883Y-136977557D01*
X144616284Y-136975955D01*
X144872824Y-136908653D01*
X144880926Y-136905926D01*
X145125949Y-136804434D01*
X145133617Y-136800628D01*
X145362598Y-136666822D01*
X145369679Y-136662009D01*
X145449655Y-136599301D01*
X145458125Y-136587442D01*
X145451608Y-136575818D01*
X144247812Y-135372022D01*
X144233868Y-135364408D01*
X144232035Y-135364539D01*
X144225420Y-135368790D01*
X143017910Y-136576300D01*
X143010618Y-136589654D01*
X141652767Y-136589654D01*
X141772089Y-136496094D01*
X141813809Y-136453043D01*
X141959686Y-136302509D01*
X141962669Y-136299431D01*
X141965202Y-136295983D01*
X141965206Y-136295978D01*
X142122257Y-136082178D01*
X142124795Y-136078723D01*
X142126841Y-136074955D01*
X142220062Y-135903264D01*
X142270145Y-135852942D01*
X142339483Y-135837686D01*
X142406062Y-135862339D01*
X142443358Y-135906772D01*
X142500664Y-136020713D01*
X142505020Y-136028079D01*
X142634347Y-136216250D01*
X142644601Y-136224594D01*
X142658342Y-136217448D01*
X143862978Y-135012812D01*
X143869356Y-135001132D01*
X144599408Y-135001132D01*
X144599539Y-135002965D01*
X144603790Y-135009580D01*
X145810730Y-136216520D01*
X145822939Y-136223187D01*
X145834439Y-136214497D01*
X145931831Y-136081913D01*
X145936418Y-136074685D01*
X146029498Y-135903254D01*
X146079581Y-135852932D01*
X146148919Y-135837676D01*
X146215498Y-135862328D01*
X146252794Y-135906762D01*
X146312160Y-136024799D01*
X146314586Y-136028328D01*
X146314589Y-136028334D01*
X146443741Y-136216250D01*
X146467274Y-136250490D01*
X146651582Y-136453043D01*
X146861675Y-136628707D01*
X146865316Y-136630991D01*
X147090024Y-136771951D01*
X147090028Y-136771953D01*
X147093664Y-136774234D01*
X147161544Y-136804883D01*
X147339345Y-136885164D01*
X147339349Y-136885166D01*
X147343257Y-136886930D01*
X147347377Y-136888150D01*
X147347376Y-136888150D01*
X147601723Y-136963491D01*
X147601727Y-136963492D01*
X147605836Y-136964709D01*
X147610070Y-136965357D01*
X147610075Y-136965358D01*
X147872298Y-137005483D01*
X147872300Y-137005483D01*
X147876540Y-137006132D01*
X148015912Y-137008322D01*
X148146071Y-137010367D01*
X148146077Y-137010367D01*
X148150362Y-137010434D01*
X148422235Y-136977534D01*
X148687127Y-136908041D01*
X148691087Y-136906401D01*
X148691092Y-136906399D01*
X148813631Y-136855641D01*
X148940136Y-136803241D01*
X149176582Y-136665073D01*
X149392089Y-136496094D01*
X149433809Y-136453043D01*
X149579686Y-136302509D01*
X149582669Y-136299431D01*
X149585202Y-136295983D01*
X149585206Y-136295978D01*
X149742257Y-136082178D01*
X149744795Y-136078723D01*
X149746841Y-136074955D01*
X149873418Y-135841830D01*
X149873419Y-135841828D01*
X149875468Y-135838054D01*
X149923868Y-135709966D01*
X149970751Y-135585895D01*
X149970752Y-135585891D01*
X149972269Y-135581877D01*
X150033407Y-135314933D01*
X150057751Y-135042161D01*
X150058193Y-135000000D01*
X150039567Y-134726778D01*
X149984032Y-134458612D01*
X149892617Y-134200465D01*
X149767013Y-133957112D01*
X149757040Y-133942921D01*
X149612008Y-133736562D01*
X149609545Y-133733057D01*
X149423125Y-133532445D01*
X149419810Y-133529731D01*
X149419806Y-133529728D01*
X149214523Y-133361706D01*
X149211205Y-133358990D01*
X148977704Y-133215901D01*
X148973768Y-133214173D01*
X148730873Y-133107549D01*
X148730869Y-133107548D01*
X148726945Y-133105825D01*
X148463566Y-133030800D01*
X148459324Y-133030196D01*
X148459318Y-133030195D01*
X148258834Y-133001662D01*
X148192443Y-132992213D01*
X148048589Y-132991460D01*
X147922877Y-132990802D01*
X147922871Y-132990802D01*
X147918591Y-132990780D01*
X147914347Y-132991339D01*
X147914343Y-132991339D01*
X147795302Y-133007011D01*
X147647078Y-133026525D01*
X147642938Y-133027658D01*
X147642936Y-133027658D01*
X147570008Y-133047609D01*
X147382928Y-133098788D01*
X147378980Y-133100472D01*
X147134982Y-133204546D01*
X147134978Y-133204548D01*
X147131030Y-133206232D01*
X147111125Y-133218145D01*
X146899725Y-133344664D01*
X146899721Y-133344667D01*
X146896043Y-133346868D01*
X146682318Y-133518094D01*
X146493808Y-133716742D01*
X146334002Y-133939136D01*
X146331998Y-133942921D01*
X146250900Y-134096089D01*
X146201347Y-134146932D01*
X146132172Y-134162914D01*
X146065339Y-134138960D01*
X146027579Y-134094920D01*
X145958550Y-133961178D01*
X145954122Y-133953866D01*
X145835031Y-133784417D01*
X145824509Y-133776037D01*
X145811121Y-133783089D01*
X144607022Y-134987188D01*
X144599408Y-135001132D01*
X143869356Y-135001132D01*
X143870592Y-134998868D01*
X143870461Y-134997035D01*
X143866210Y-134990420D01*
X142658814Y-133783024D01*
X142646804Y-133776466D01*
X142635064Y-133785434D01*
X142526935Y-133935911D01*
X142522418Y-133943196D01*
X142441463Y-134096093D01*
X142391910Y-134146936D01*
X142322736Y-134162918D01*
X142255902Y-134138964D01*
X142218143Y-134094924D01*
X142148978Y-133960919D01*
X142148978Y-133960918D01*
X142147013Y-133957112D01*
X142137040Y-133942921D01*
X141992008Y-133736562D01*
X141989545Y-133733057D01*
X141803125Y-133532445D01*
X141799810Y-133529731D01*
X141799806Y-133529728D01*
X141656581Y-133412500D01*
X143011584Y-133412500D01*
X143017980Y-133423770D01*
X144222188Y-134627978D01*
X144236132Y-134635592D01*
X144237965Y-134635461D01*
X144244580Y-134631210D01*
X145451604Y-133424186D01*
X145458795Y-133411017D01*
X145451473Y-133400780D01*
X145404233Y-133362115D01*
X145397261Y-133357160D01*
X145171122Y-133218582D01*
X145163552Y-133214624D01*
X144920704Y-133108022D01*
X144912644Y-133105120D01*
X144657592Y-133032467D01*
X144649214Y-133030685D01*
X144386656Y-132993318D01*
X144378111Y-132992691D01*
X144112908Y-132991302D01*
X144104374Y-132991839D01*
X143841433Y-133026456D01*
X143833035Y-133028149D01*
X143577238Y-133098127D01*
X143569143Y-133100946D01*
X143325199Y-133204997D01*
X143317577Y-133208881D01*
X143090013Y-133345075D01*
X143082981Y-133349962D01*
X143020053Y-133400377D01*
X143011584Y-133412500D01*
X141656581Y-133412500D01*
X141594523Y-133361706D01*
X141591205Y-133358990D01*
X141357704Y-133215901D01*
X141353768Y-133214173D01*
X141110873Y-133107549D01*
X141110869Y-133107548D01*
X141106945Y-133105825D01*
X140843566Y-133030800D01*
X140839324Y-133030196D01*
X140839318Y-133030195D01*
X140638834Y-133001662D01*
X140572443Y-132992213D01*
X140428589Y-132991460D01*
X140302877Y-132990802D01*
X140302871Y-132990802D01*
X140298591Y-132990780D01*
X140294347Y-132991339D01*
X140294343Y-132991339D01*
X140175302Y-133007011D01*
X140027078Y-133026525D01*
X140022938Y-133027658D01*
X140022936Y-133027658D01*
X139950008Y-133047609D01*
X139762928Y-133098788D01*
X139758980Y-133100472D01*
X139514982Y-133204546D01*
X139514978Y-133204548D01*
X139511030Y-133206232D01*
X139491125Y-133218145D01*
X139279725Y-133344664D01*
X139279721Y-133344667D01*
X139276043Y-133346868D01*
X139062318Y-133518094D01*
X138873808Y-133716742D01*
X138714002Y-133939136D01*
X138711998Y-133942921D01*
X138631185Y-134095551D01*
X138581632Y-134146394D01*
X138512457Y-134162376D01*
X138445624Y-134138422D01*
X138407864Y-134094382D01*
X138338978Y-133960919D01*
X138338978Y-133960918D01*
X138337013Y-133957112D01*
X138327040Y-133942921D01*
X138182008Y-133736562D01*
X138179545Y-133733057D01*
X137993125Y-133532445D01*
X137989810Y-133529731D01*
X137989806Y-133529728D01*
X137784523Y-133361706D01*
X137781205Y-133358990D01*
X137547704Y-133215901D01*
X137543768Y-133214173D01*
X137300873Y-133107549D01*
X137300869Y-133107548D01*
X137296945Y-133105825D01*
X137033566Y-133030800D01*
X137029324Y-133030196D01*
X137029318Y-133030195D01*
X136828834Y-133001662D01*
X136762443Y-132992213D01*
X136618589Y-132991460D01*
X136492877Y-132990802D01*
X136492871Y-132990802D01*
X136488591Y-132990780D01*
X136484347Y-132991339D01*
X136484343Y-132991339D01*
X136365302Y-133007011D01*
X136217078Y-133026525D01*
X136212938Y-133027658D01*
X136212936Y-133027658D01*
X136140008Y-133047609D01*
X135952928Y-133098788D01*
X135948980Y-133100472D01*
X135704982Y-133204546D01*
X135704978Y-133204548D01*
X135701030Y-133206232D01*
X135681125Y-133218145D01*
X135469725Y-133344664D01*
X135469721Y-133344667D01*
X135466043Y-133346868D01*
X135252318Y-133518094D01*
X135063808Y-133716742D01*
X134904002Y-133939136D01*
X134901998Y-133942921D01*
X134821185Y-134095551D01*
X134771632Y-134146394D01*
X134702457Y-134162376D01*
X134635624Y-134138422D01*
X134597864Y-134094382D01*
X134528978Y-133960919D01*
X134528978Y-133960918D01*
X134527013Y-133957112D01*
X134517040Y-133942921D01*
X134372008Y-133736562D01*
X134369545Y-133733057D01*
X134183125Y-133532445D01*
X134179810Y-133529731D01*
X134179806Y-133529728D01*
X133974523Y-133361706D01*
X133971205Y-133358990D01*
X133737704Y-133215901D01*
X133733768Y-133214173D01*
X133490873Y-133107549D01*
X133490869Y-133107548D01*
X133486945Y-133105825D01*
X133223566Y-133030800D01*
X133219324Y-133030196D01*
X133219318Y-133030195D01*
X133018834Y-133001662D01*
X132952443Y-132992213D01*
X132808589Y-132991460D01*
X132682877Y-132990802D01*
X132682871Y-132990802D01*
X132678591Y-132990780D01*
X132674347Y-132991339D01*
X132674343Y-132991339D01*
X132555302Y-133007011D01*
X132407078Y-133026525D01*
X132402938Y-133027658D01*
X132402936Y-133027658D01*
X132330008Y-133047609D01*
X132142928Y-133098788D01*
X132138980Y-133100472D01*
X131894982Y-133204546D01*
X131894978Y-133204548D01*
X131891030Y-133206232D01*
X131871125Y-133218145D01*
X131659725Y-133344664D01*
X131659721Y-133344667D01*
X131656043Y-133346868D01*
X131442318Y-133518094D01*
X131253808Y-133716742D01*
X131094002Y-133939136D01*
X131091998Y-133942921D01*
X131011185Y-134095551D01*
X130961632Y-134146394D01*
X130892457Y-134162376D01*
X130825624Y-134138422D01*
X130787864Y-134094382D01*
X130718978Y-133960919D01*
X130718978Y-133960918D01*
X130717013Y-133957112D01*
X130707040Y-133942921D01*
X130562008Y-133736562D01*
X130559545Y-133733057D01*
X130373125Y-133532445D01*
X130369810Y-133529731D01*
X130369806Y-133529728D01*
X130164523Y-133361706D01*
X130161205Y-133358990D01*
X129927704Y-133215901D01*
X129923768Y-133214173D01*
X129680873Y-133107549D01*
X129680869Y-133107548D01*
X129676945Y-133105825D01*
X129413566Y-133030800D01*
X129409324Y-133030196D01*
X129409318Y-133030195D01*
X129208834Y-133001662D01*
X129142443Y-132992213D01*
X128998589Y-132991460D01*
X128872877Y-132990802D01*
X128872871Y-132990802D01*
X128868591Y-132990780D01*
X128864347Y-132991339D01*
X128864343Y-132991339D01*
X128745302Y-133007011D01*
X128597078Y-133026525D01*
X128592938Y-133027658D01*
X128592936Y-133027658D01*
X128520008Y-133047609D01*
X128332928Y-133098788D01*
X128328980Y-133100472D01*
X128084982Y-133204546D01*
X128084978Y-133204548D01*
X128081030Y-133206232D01*
X128061125Y-133218145D01*
X127849725Y-133344664D01*
X127849721Y-133344667D01*
X127846043Y-133346868D01*
X127632318Y-133518094D01*
X127443808Y-133716742D01*
X127284002Y-133939136D01*
X127281998Y-133942921D01*
X127201185Y-134095551D01*
X127151632Y-134146394D01*
X127082457Y-134162376D01*
X127015624Y-134138422D01*
X126977864Y-134094382D01*
X126908978Y-133960919D01*
X126908978Y-133960918D01*
X126907013Y-133957112D01*
X126897040Y-133942921D01*
X126752008Y-133736562D01*
X126749545Y-133733057D01*
X126563125Y-133532445D01*
X126559810Y-133529731D01*
X126559806Y-133529728D01*
X126354523Y-133361706D01*
X126351205Y-133358990D01*
X126117704Y-133215901D01*
X126113768Y-133214173D01*
X125870873Y-133107549D01*
X125870869Y-133107548D01*
X125866945Y-133105825D01*
X125603566Y-133030800D01*
X125599324Y-133030196D01*
X125599318Y-133030195D01*
X125398834Y-133001662D01*
X125332443Y-132992213D01*
X125188589Y-132991460D01*
X125062877Y-132990802D01*
X125062871Y-132990802D01*
X125058591Y-132990780D01*
X125054347Y-132991339D01*
X125054343Y-132991339D01*
X124935302Y-133007011D01*
X124787078Y-133026525D01*
X124782938Y-133027658D01*
X124782936Y-133027658D01*
X124710008Y-133047609D01*
X124522928Y-133098788D01*
X124518980Y-133100472D01*
X124274982Y-133204546D01*
X124274978Y-133204548D01*
X124271030Y-133206232D01*
X124251125Y-133218145D01*
X124039725Y-133344664D01*
X124039721Y-133344667D01*
X124036043Y-133346868D01*
X123822318Y-133518094D01*
X123633808Y-133716742D01*
X123474002Y-133939136D01*
X123471998Y-133942921D01*
X123391185Y-134095551D01*
X123341632Y-134146394D01*
X123272457Y-134162376D01*
X123205624Y-134138422D01*
X123167864Y-134094382D01*
X123098978Y-133960919D01*
X123098978Y-133960918D01*
X123097013Y-133957112D01*
X123087040Y-133942921D01*
X122942008Y-133736562D01*
X122939545Y-133733057D01*
X122753125Y-133532445D01*
X122749810Y-133529731D01*
X122749806Y-133529728D01*
X122544523Y-133361706D01*
X122541205Y-133358990D01*
X122307704Y-133215901D01*
X122303768Y-133214173D01*
X122060873Y-133107549D01*
X122060869Y-133107548D01*
X122056945Y-133105825D01*
X121793566Y-133030800D01*
X121789324Y-133030196D01*
X121789318Y-133030195D01*
X121588834Y-133001662D01*
X121522443Y-132992213D01*
X121378589Y-132991460D01*
X121252877Y-132990802D01*
X121252871Y-132990802D01*
X121248591Y-132990780D01*
X121244347Y-132991339D01*
X121244343Y-132991339D01*
X121125302Y-133007011D01*
X120977078Y-133026525D01*
X120972938Y-133027658D01*
X120972936Y-133027658D01*
X120900008Y-133047609D01*
X120712928Y-133098788D01*
X120708980Y-133100472D01*
X120464982Y-133204546D01*
X120464978Y-133204548D01*
X120461030Y-133206232D01*
X120441125Y-133218145D01*
X120229725Y-133344664D01*
X120229721Y-133344667D01*
X120226043Y-133346868D01*
X120012318Y-133518094D01*
X119823808Y-133716742D01*
X119664002Y-133939136D01*
X119661998Y-133942921D01*
X119580900Y-134096089D01*
X119531347Y-134146932D01*
X119462172Y-134162914D01*
X119395339Y-134138960D01*
X119357579Y-134094920D01*
X119288550Y-133961178D01*
X119284122Y-133953866D01*
X119165031Y-133784417D01*
X119154509Y-133776037D01*
X119141121Y-133783089D01*
X117937022Y-134987188D01*
X117929408Y-135001132D01*
X117199356Y-135001132D01*
X117200592Y-134998868D01*
X117200461Y-134997035D01*
X117196210Y-134990420D01*
X115988814Y-133783024D01*
X115976804Y-133776466D01*
X115965064Y-133785434D01*
X115856935Y-133935911D01*
X115852418Y-133943196D01*
X115771463Y-134096093D01*
X115721910Y-134146936D01*
X115652736Y-134162918D01*
X115585902Y-134138964D01*
X115548143Y-134094924D01*
X115478978Y-133960919D01*
X115478978Y-133960918D01*
X115477013Y-133957112D01*
X115467040Y-133942921D01*
X115322008Y-133736562D01*
X115319545Y-133733057D01*
X115133125Y-133532445D01*
X115129810Y-133529731D01*
X115129806Y-133529728D01*
X114986581Y-133412500D01*
X116341584Y-133412500D01*
X116347980Y-133423770D01*
X117552188Y-134627978D01*
X117566132Y-134635592D01*
X117567965Y-134635461D01*
X117574580Y-134631210D01*
X118781604Y-133424186D01*
X118788795Y-133411017D01*
X118781473Y-133400780D01*
X118734233Y-133362115D01*
X118727261Y-133357160D01*
X118501122Y-133218582D01*
X118493552Y-133214624D01*
X118250704Y-133108022D01*
X118242644Y-133105120D01*
X117987592Y-133032467D01*
X117979214Y-133030685D01*
X117716656Y-132993318D01*
X117708111Y-132992691D01*
X117442908Y-132991302D01*
X117434374Y-132991839D01*
X117171433Y-133026456D01*
X117163035Y-133028149D01*
X116907238Y-133098127D01*
X116899143Y-133100946D01*
X116655199Y-133204997D01*
X116647577Y-133208881D01*
X116420013Y-133345075D01*
X116412981Y-133349962D01*
X116350053Y-133400377D01*
X116341584Y-133412500D01*
X114986581Y-133412500D01*
X114924523Y-133361706D01*
X114921205Y-133358990D01*
X114687704Y-133215901D01*
X114683768Y-133214173D01*
X114440873Y-133107549D01*
X114440869Y-133107548D01*
X114436945Y-133105825D01*
X114173566Y-133030800D01*
X114169324Y-133030196D01*
X114169318Y-133030195D01*
X113968834Y-133001662D01*
X113902443Y-132992213D01*
X113758589Y-132991460D01*
X113632877Y-132990802D01*
X113632871Y-132990802D01*
X113628591Y-132990780D01*
X113624347Y-132991339D01*
X113624343Y-132991339D01*
X113505302Y-133007011D01*
X113357078Y-133026525D01*
X113352938Y-133027658D01*
X113352936Y-133027658D01*
X113280008Y-133047609D01*
X113092928Y-133098788D01*
X113088980Y-133100472D01*
X112844982Y-133204546D01*
X112844978Y-133204548D01*
X112841030Y-133206232D01*
X112821125Y-133218145D01*
X112609725Y-133344664D01*
X112609721Y-133344667D01*
X112606043Y-133346868D01*
X112392318Y-133518094D01*
X112203808Y-133716742D01*
X112044002Y-133939136D01*
X111915857Y-134181161D01*
X111914385Y-134185184D01*
X111914383Y-134185188D01*
X111907314Y-134204506D01*
X111821743Y-134438337D01*
X111763404Y-134705907D01*
X111741917Y-134978918D01*
X109728500Y-134978918D01*
X109728500Y-120500000D01*
X117786526Y-120500000D01*
X117806391Y-120752403D01*
X117865495Y-120998591D01*
X117962384Y-121232502D01*
X118094672Y-121448376D01*
X118259102Y-121640898D01*
X118451624Y-121805328D01*
X118667498Y-121937616D01*
X118672068Y-121939509D01*
X118672072Y-121939511D01*
X118896836Y-122032611D01*
X118901409Y-122034505D01*
X118986032Y-122054821D01*
X119142784Y-122092454D01*
X119142790Y-122092455D01*
X119147597Y-122093609D01*
X119247416Y-122101465D01*
X119334345Y-122108307D01*
X119334352Y-122108307D01*
X119336801Y-122108500D01*
X119463199Y-122108500D01*
X119465648Y-122108307D01*
X119465655Y-122108307D01*
X119552584Y-122101465D01*
X119652403Y-122093609D01*
X119657210Y-122092455D01*
X119657216Y-122092454D01*
X119813968Y-122054821D01*
X119898591Y-122034505D01*
X119903164Y-122032611D01*
X120127928Y-121939511D01*
X120127932Y-121939509D01*
X120132502Y-121937616D01*
X120348376Y-121805328D01*
X120540898Y-121640898D01*
X120705328Y-121448376D01*
X120837616Y-121232502D01*
X120934505Y-120998591D01*
X120993609Y-120752403D01*
X121013474Y-120500000D01*
X140786526Y-120500000D01*
X140806391Y-120752403D01*
X140865495Y-120998591D01*
X140962384Y-121232502D01*
X141094672Y-121448376D01*
X141259102Y-121640898D01*
X141451624Y-121805328D01*
X141667498Y-121937616D01*
X141672068Y-121939509D01*
X141672072Y-121939511D01*
X141896836Y-122032611D01*
X141901409Y-122034505D01*
X141986032Y-122054821D01*
X142142784Y-122092454D01*
X142142790Y-122092455D01*
X142147597Y-122093609D01*
X142247416Y-122101465D01*
X142334345Y-122108307D01*
X142334352Y-122108307D01*
X142336801Y-122108500D01*
X142463199Y-122108500D01*
X142465648Y-122108307D01*
X142465655Y-122108307D01*
X142552584Y-122101465D01*
X142652403Y-122093609D01*
X142657210Y-122092455D01*
X142657216Y-122092454D01*
X142813968Y-122054821D01*
X142898591Y-122034505D01*
X142903164Y-122032611D01*
X143127928Y-121939511D01*
X143127932Y-121939509D01*
X143132502Y-121937616D01*
X143348376Y-121805328D01*
X143540898Y-121640898D01*
X143705328Y-121448376D01*
X143837616Y-121232502D01*
X143934505Y-120998591D01*
X143993609Y-120752403D01*
X144013474Y-120500000D01*
X143993609Y-120247597D01*
X143934505Y-120001409D01*
X143837616Y-119767498D01*
X143705328Y-119551624D01*
X143540898Y-119359102D01*
X143348376Y-119194672D01*
X143132502Y-119062384D01*
X143127932Y-119060491D01*
X143127928Y-119060489D01*
X142903164Y-118967389D01*
X142903162Y-118967388D01*
X142898591Y-118965495D01*
X142813968Y-118945179D01*
X142657216Y-118907546D01*
X142657210Y-118907545D01*
X142652403Y-118906391D01*
X142552584Y-118898535D01*
X142465655Y-118891693D01*
X142465648Y-118891693D01*
X142463199Y-118891500D01*
X142336801Y-118891500D01*
X142334352Y-118891693D01*
X142334345Y-118891693D01*
X142247416Y-118898535D01*
X142147597Y-118906391D01*
X142142790Y-118907545D01*
X142142784Y-118907546D01*
X141986032Y-118945179D01*
X141901409Y-118965495D01*
X141896838Y-118967388D01*
X141896836Y-118967389D01*
X141672072Y-119060489D01*
X141672068Y-119060491D01*
X141667498Y-119062384D01*
X141451624Y-119194672D01*
X141259102Y-119359102D01*
X141094672Y-119551624D01*
X140962384Y-119767498D01*
X140865495Y-120001409D01*
X140806391Y-120247597D01*
X140786526Y-120500000D01*
X121013474Y-120500000D01*
X120993609Y-120247597D01*
X120934505Y-120001409D01*
X120837616Y-119767498D01*
X120705328Y-119551624D01*
X120540898Y-119359102D01*
X120348376Y-119194672D01*
X120132502Y-119062384D01*
X120127932Y-119060491D01*
X120127928Y-119060489D01*
X119903164Y-118967389D01*
X119903162Y-118967388D01*
X119898591Y-118965495D01*
X119813968Y-118945179D01*
X119657216Y-118907546D01*
X119657210Y-118907545D01*
X119652403Y-118906391D01*
X119552584Y-118898535D01*
X119465655Y-118891693D01*
X119465648Y-118891693D01*
X119463199Y-118891500D01*
X119336801Y-118891500D01*
X119334352Y-118891693D01*
X119334345Y-118891693D01*
X119247416Y-118898535D01*
X119147597Y-118906391D01*
X119142790Y-118907545D01*
X119142784Y-118907546D01*
X118986032Y-118945179D01*
X118901409Y-118965495D01*
X118896838Y-118967388D01*
X118896836Y-118967389D01*
X118672072Y-119060489D01*
X118672068Y-119060491D01*
X118667498Y-119062384D01*
X118451624Y-119194672D01*
X118259102Y-119359102D01*
X118094672Y-119551624D01*
X117962384Y-119767498D01*
X117865495Y-120001409D01*
X117806391Y-120247597D01*
X117786526Y-120500000D01*
X109728500Y-120500000D01*
X109728500Y-104500000D01*
X117786526Y-104500000D01*
X117806391Y-104752403D01*
X117865495Y-104998591D01*
X117962384Y-105232502D01*
X118094672Y-105448376D01*
X118259102Y-105640898D01*
X118451624Y-105805328D01*
X118667498Y-105937616D01*
X118672068Y-105939509D01*
X118672072Y-105939511D01*
X118896836Y-106032611D01*
X118901409Y-106034505D01*
X118986032Y-106054821D01*
X119142784Y-106092454D01*
X119142790Y-106092455D01*
X119147597Y-106093609D01*
X119247416Y-106101465D01*
X119334345Y-106108307D01*
X119334352Y-106108307D01*
X119336801Y-106108500D01*
X119463199Y-106108500D01*
X119465648Y-106108307D01*
X119465655Y-106108307D01*
X119552584Y-106101465D01*
X119652403Y-106093609D01*
X119657210Y-106092455D01*
X119657216Y-106092454D01*
X119813968Y-106054821D01*
X119898591Y-106034505D01*
X119903164Y-106032611D01*
X120127928Y-105939511D01*
X120127932Y-105939509D01*
X120132502Y-105937616D01*
X120348376Y-105805328D01*
X120540898Y-105640898D01*
X120705328Y-105448376D01*
X120837616Y-105232502D01*
X120934505Y-104998591D01*
X120993609Y-104752403D01*
X121013474Y-104500000D01*
X140786526Y-104500000D01*
X140806391Y-104752403D01*
X140865495Y-104998591D01*
X140962384Y-105232502D01*
X141094672Y-105448376D01*
X141259102Y-105640898D01*
X141451624Y-105805328D01*
X141667498Y-105937616D01*
X141672068Y-105939509D01*
X141672072Y-105939511D01*
X141896836Y-106032611D01*
X141901409Y-106034505D01*
X141986032Y-106054821D01*
X142142784Y-106092454D01*
X142142790Y-106092455D01*
X142147597Y-106093609D01*
X142247416Y-106101465D01*
X142334345Y-106108307D01*
X142334352Y-106108307D01*
X142336801Y-106108500D01*
X142463199Y-106108500D01*
X142465648Y-106108307D01*
X142465655Y-106108307D01*
X142552584Y-106101465D01*
X142652403Y-106093609D01*
X142657210Y-106092455D01*
X142657216Y-106092454D01*
X142813968Y-106054821D01*
X142898591Y-106034505D01*
X142903164Y-106032611D01*
X143127928Y-105939511D01*
X143127932Y-105939509D01*
X143132502Y-105937616D01*
X143348376Y-105805328D01*
X143540898Y-105640898D01*
X143705328Y-105448376D01*
X143837616Y-105232502D01*
X143934505Y-104998591D01*
X143993609Y-104752403D01*
X144013474Y-104500000D01*
X143993609Y-104247597D01*
X143934505Y-104001409D01*
X143837616Y-103767498D01*
X143705328Y-103551624D01*
X143540898Y-103359102D01*
X143348376Y-103194672D01*
X143132502Y-103062384D01*
X143127932Y-103060491D01*
X143127928Y-103060489D01*
X142903164Y-102967389D01*
X142903162Y-102967388D01*
X142898591Y-102965495D01*
X142813968Y-102945179D01*
X142657216Y-102907546D01*
X142657210Y-102907545D01*
X142652403Y-102906391D01*
X142552584Y-102898535D01*
X142465655Y-102891693D01*
X142465648Y-102891693D01*
X142463199Y-102891500D01*
X142336801Y-102891500D01*
X142334352Y-102891693D01*
X142334345Y-102891693D01*
X142247416Y-102898535D01*
X142147597Y-102906391D01*
X142142790Y-102907545D01*
X142142784Y-102907546D01*
X141986032Y-102945179D01*
X141901409Y-102965495D01*
X141896838Y-102967388D01*
X141896836Y-102967389D01*
X141672072Y-103060489D01*
X141672068Y-103060491D01*
X141667498Y-103062384D01*
X141451624Y-103194672D01*
X141259102Y-103359102D01*
X141094672Y-103551624D01*
X140962384Y-103767498D01*
X140865495Y-104001409D01*
X140806391Y-104247597D01*
X140786526Y-104500000D01*
X121013474Y-104500000D01*
X120993609Y-104247597D01*
X120934505Y-104001409D01*
X120837616Y-103767498D01*
X120705328Y-103551624D01*
X120540898Y-103359102D01*
X120348376Y-103194672D01*
X120132502Y-103062384D01*
X120127932Y-103060491D01*
X120127928Y-103060489D01*
X119903164Y-102967389D01*
X119903162Y-102967388D01*
X119898591Y-102965495D01*
X119813968Y-102945179D01*
X119657216Y-102907546D01*
X119657210Y-102907545D01*
X119652403Y-102906391D01*
X119552584Y-102898535D01*
X119465655Y-102891693D01*
X119465648Y-102891693D01*
X119463199Y-102891500D01*
X119336801Y-102891500D01*
X119334352Y-102891693D01*
X119334345Y-102891693D01*
X119247416Y-102898535D01*
X119147597Y-102906391D01*
X119142790Y-102907545D01*
X119142784Y-102907546D01*
X118986032Y-102945179D01*
X118901409Y-102965495D01*
X118896838Y-102967388D01*
X118896836Y-102967389D01*
X118672072Y-103060489D01*
X118672068Y-103060491D01*
X118667498Y-103062384D01*
X118451624Y-103194672D01*
X118259102Y-103359102D01*
X118094672Y-103551624D01*
X117962384Y-103767498D01*
X117865495Y-104001409D01*
X117806391Y-104247597D01*
X117786526Y-104500000D01*
X109728500Y-104500000D01*
X109728500Y-91589654D01*
X110625618Y-91589654D01*
X110632673Y-91599627D01*
X110663679Y-91625551D01*
X110670598Y-91630579D01*
X110895272Y-91771515D01*
X110902807Y-91775556D01*
X111144520Y-91884694D01*
X111152551Y-91887680D01*
X111406832Y-91963002D01*
X111415184Y-91964869D01*
X111677340Y-92004984D01*
X111685874Y-92005700D01*
X111951045Y-92009867D01*
X111959596Y-92009418D01*
X112222883Y-91977557D01*
X112231284Y-91975955D01*
X112487824Y-91908653D01*
X112495926Y-91905926D01*
X112740949Y-91804434D01*
X112748617Y-91800628D01*
X112977598Y-91666822D01*
X112984679Y-91662009D01*
X113064655Y-91599301D01*
X113073125Y-91587442D01*
X113066608Y-91575818D01*
X111862812Y-90372022D01*
X111848868Y-90364408D01*
X111847035Y-90364539D01*
X111840420Y-90368790D01*
X110632910Y-91576300D01*
X110625618Y-91589654D01*
X109728500Y-91589654D01*
X109728500Y-90759818D01*
X109748502Y-90691697D01*
X109802158Y-90645204D01*
X109872432Y-90635100D01*
X109937012Y-90664594D01*
X109973707Y-90719005D01*
X109993184Y-90775894D01*
X109996499Y-90783779D01*
X110115664Y-91020713D01*
X110120020Y-91028079D01*
X110249347Y-91216250D01*
X110259601Y-91224594D01*
X110273342Y-91217448D01*
X111477978Y-90012812D01*
X111484356Y-90001132D01*
X112214408Y-90001132D01*
X112214539Y-90002965D01*
X112218790Y-90009580D01*
X113425730Y-91216520D01*
X113437939Y-91223187D01*
X113449439Y-91214497D01*
X113546831Y-91081913D01*
X113551418Y-91074685D01*
X113644498Y-90903254D01*
X113694581Y-90852932D01*
X113763919Y-90837676D01*
X113830498Y-90862328D01*
X113867794Y-90906762D01*
X113927160Y-91024799D01*
X113929586Y-91028328D01*
X113929589Y-91028334D01*
X114058741Y-91216250D01*
X114082274Y-91250490D01*
X114266582Y-91453043D01*
X114476675Y-91628707D01*
X114480316Y-91630991D01*
X114705024Y-91771951D01*
X114705028Y-91771953D01*
X114708664Y-91774234D01*
X114776544Y-91804883D01*
X114954345Y-91885164D01*
X114954349Y-91885166D01*
X114958257Y-91886930D01*
X114962377Y-91888150D01*
X114962376Y-91888150D01*
X115216723Y-91963491D01*
X115216727Y-91963492D01*
X115220836Y-91964709D01*
X115225070Y-91965357D01*
X115225075Y-91965358D01*
X115487298Y-92005483D01*
X115487300Y-92005483D01*
X115491540Y-92006132D01*
X115630912Y-92008322D01*
X115761071Y-92010367D01*
X115761077Y-92010367D01*
X115765362Y-92010434D01*
X116037235Y-91977534D01*
X116302127Y-91908041D01*
X116306087Y-91906401D01*
X116306092Y-91906399D01*
X116428631Y-91855641D01*
X116555136Y-91803241D01*
X116791582Y-91665073D01*
X116887767Y-91589654D01*
X118245618Y-91589654D01*
X118252673Y-91599627D01*
X118283679Y-91625551D01*
X118290598Y-91630579D01*
X118515272Y-91771515D01*
X118522807Y-91775556D01*
X118764520Y-91884694D01*
X118772551Y-91887680D01*
X119026832Y-91963002D01*
X119035184Y-91964869D01*
X119297340Y-92004984D01*
X119305874Y-92005700D01*
X119571045Y-92009867D01*
X119579596Y-92009418D01*
X119842883Y-91977557D01*
X119851284Y-91975955D01*
X120107824Y-91908653D01*
X120115926Y-91905926D01*
X120360949Y-91804434D01*
X120368617Y-91800628D01*
X120597598Y-91666822D01*
X120604679Y-91662009D01*
X120684655Y-91599301D01*
X120693125Y-91587442D01*
X120686608Y-91575818D01*
X119482812Y-90372022D01*
X119468868Y-90364408D01*
X119467035Y-90364539D01*
X119460420Y-90368790D01*
X118252910Y-91576300D01*
X118245618Y-91589654D01*
X116887767Y-91589654D01*
X117007089Y-91496094D01*
X117048809Y-91453043D01*
X117194686Y-91302509D01*
X117197669Y-91299431D01*
X117200202Y-91295983D01*
X117200206Y-91295978D01*
X117357257Y-91082178D01*
X117359795Y-91078723D01*
X117361841Y-91074955D01*
X117455062Y-90903264D01*
X117505145Y-90852942D01*
X117574483Y-90837686D01*
X117641062Y-90862339D01*
X117678358Y-90906772D01*
X117735664Y-91020713D01*
X117740020Y-91028079D01*
X117869347Y-91216250D01*
X117879601Y-91224594D01*
X117893342Y-91217448D01*
X119097978Y-90012812D01*
X119104356Y-90001132D01*
X119834408Y-90001132D01*
X119834539Y-90002965D01*
X119838790Y-90009580D01*
X121045730Y-91216520D01*
X121057939Y-91223187D01*
X121069439Y-91214497D01*
X121166831Y-91081913D01*
X121171418Y-91074685D01*
X121264498Y-90903254D01*
X121314581Y-90852932D01*
X121383919Y-90837676D01*
X121450498Y-90862328D01*
X121487794Y-90906762D01*
X121547160Y-91024799D01*
X121549586Y-91028328D01*
X121549589Y-91028334D01*
X121678741Y-91216250D01*
X121702274Y-91250490D01*
X121886582Y-91453043D01*
X122096675Y-91628707D01*
X122100316Y-91630991D01*
X122325024Y-91771951D01*
X122325028Y-91771953D01*
X122328664Y-91774234D01*
X122396544Y-91804883D01*
X122574345Y-91885164D01*
X122574349Y-91885166D01*
X122578257Y-91886930D01*
X122582377Y-91888150D01*
X122582376Y-91888150D01*
X122836723Y-91963491D01*
X122836727Y-91963492D01*
X122840836Y-91964709D01*
X122845070Y-91965357D01*
X122845075Y-91965358D01*
X123107298Y-92005483D01*
X123107300Y-92005483D01*
X123111540Y-92006132D01*
X123250912Y-92008322D01*
X123381071Y-92010367D01*
X123381077Y-92010367D01*
X123385362Y-92010434D01*
X123657235Y-91977534D01*
X123922127Y-91908041D01*
X123926087Y-91906401D01*
X123926092Y-91906399D01*
X124048631Y-91855641D01*
X124175136Y-91803241D01*
X124411582Y-91665073D01*
X124507767Y-91589654D01*
X125865618Y-91589654D01*
X125872673Y-91599627D01*
X125903679Y-91625551D01*
X125910598Y-91630579D01*
X126135272Y-91771515D01*
X126142807Y-91775556D01*
X126384520Y-91884694D01*
X126392551Y-91887680D01*
X126646832Y-91963002D01*
X126655184Y-91964869D01*
X126917340Y-92004984D01*
X126925874Y-92005700D01*
X127191045Y-92009867D01*
X127199596Y-92009418D01*
X127462883Y-91977557D01*
X127471284Y-91975955D01*
X127727824Y-91908653D01*
X127735926Y-91905926D01*
X127980949Y-91804434D01*
X127988617Y-91800628D01*
X128217598Y-91666822D01*
X128224679Y-91662009D01*
X128304655Y-91599301D01*
X128313125Y-91587442D01*
X128306608Y-91575818D01*
X127102812Y-90372022D01*
X127088868Y-90364408D01*
X127087035Y-90364539D01*
X127080420Y-90368790D01*
X125872910Y-91576300D01*
X125865618Y-91589654D01*
X124507767Y-91589654D01*
X124627089Y-91496094D01*
X124668809Y-91453043D01*
X124814686Y-91302509D01*
X124817669Y-91299431D01*
X124820202Y-91295983D01*
X124820206Y-91295978D01*
X124977257Y-91082178D01*
X124979795Y-91078723D01*
X124981841Y-91074955D01*
X125075062Y-90903264D01*
X125125145Y-90852942D01*
X125194483Y-90837686D01*
X125261062Y-90862339D01*
X125298358Y-90906772D01*
X125355664Y-91020713D01*
X125360020Y-91028079D01*
X125489347Y-91216250D01*
X125499601Y-91224594D01*
X125513342Y-91217448D01*
X126717978Y-90012812D01*
X126724356Y-90001132D01*
X127454408Y-90001132D01*
X127454539Y-90002965D01*
X127458790Y-90009580D01*
X128665730Y-91216520D01*
X128677939Y-91223187D01*
X128689439Y-91214497D01*
X128786831Y-91081913D01*
X128791418Y-91074685D01*
X128884498Y-90903254D01*
X128934581Y-90852932D01*
X129003919Y-90837676D01*
X129070498Y-90862328D01*
X129107794Y-90906762D01*
X129167160Y-91024799D01*
X129169586Y-91028328D01*
X129169589Y-91028334D01*
X129298741Y-91216250D01*
X129322274Y-91250490D01*
X129506582Y-91453043D01*
X129716675Y-91628707D01*
X129720316Y-91630991D01*
X129945024Y-91771951D01*
X129945028Y-91771953D01*
X129948664Y-91774234D01*
X130016544Y-91804883D01*
X130194345Y-91885164D01*
X130194349Y-91885166D01*
X130198257Y-91886930D01*
X130202377Y-91888150D01*
X130202376Y-91888150D01*
X130456723Y-91963491D01*
X130456727Y-91963492D01*
X130460836Y-91964709D01*
X130465070Y-91965357D01*
X130465075Y-91965358D01*
X130727298Y-92005483D01*
X130727300Y-92005483D01*
X130731540Y-92006132D01*
X130870912Y-92008322D01*
X131001071Y-92010367D01*
X131001077Y-92010367D01*
X131005362Y-92010434D01*
X131277235Y-91977534D01*
X131542127Y-91908041D01*
X131546087Y-91906401D01*
X131546092Y-91906399D01*
X131668631Y-91855641D01*
X131795136Y-91803241D01*
X132031582Y-91665073D01*
X132127767Y-91589654D01*
X133485618Y-91589654D01*
X133492673Y-91599627D01*
X133523679Y-91625551D01*
X133530598Y-91630579D01*
X133755272Y-91771515D01*
X133762807Y-91775556D01*
X134004520Y-91884694D01*
X134012551Y-91887680D01*
X134266832Y-91963002D01*
X134275184Y-91964869D01*
X134537340Y-92004984D01*
X134545874Y-92005700D01*
X134811045Y-92009867D01*
X134819596Y-92009418D01*
X135082883Y-91977557D01*
X135091284Y-91975955D01*
X135347824Y-91908653D01*
X135355926Y-91905926D01*
X135600949Y-91804434D01*
X135608617Y-91800628D01*
X135837598Y-91666822D01*
X135844679Y-91662009D01*
X135924655Y-91599301D01*
X135933125Y-91587442D01*
X135926608Y-91575818D01*
X134722812Y-90372022D01*
X134708868Y-90364408D01*
X134707035Y-90364539D01*
X134700420Y-90368790D01*
X133492910Y-91576300D01*
X133485618Y-91589654D01*
X132127767Y-91589654D01*
X132247089Y-91496094D01*
X132288809Y-91453043D01*
X132434686Y-91302509D01*
X132437669Y-91299431D01*
X132440202Y-91295983D01*
X132440206Y-91295978D01*
X132597257Y-91082178D01*
X132599795Y-91078723D01*
X132601841Y-91074955D01*
X132695062Y-90903264D01*
X132745145Y-90852942D01*
X132814483Y-90837686D01*
X132881062Y-90862339D01*
X132918358Y-90906772D01*
X132975664Y-91020713D01*
X132980020Y-91028079D01*
X133109347Y-91216250D01*
X133119601Y-91224594D01*
X133133342Y-91217448D01*
X134337978Y-90012812D01*
X134344356Y-90001132D01*
X135074408Y-90001132D01*
X135074539Y-90002965D01*
X135078790Y-90009580D01*
X136285730Y-91216520D01*
X136297939Y-91223187D01*
X136309439Y-91214497D01*
X136406831Y-91081913D01*
X136411418Y-91074685D01*
X136504498Y-90903254D01*
X136554581Y-90852932D01*
X136623919Y-90837676D01*
X136690498Y-90862328D01*
X136727794Y-90906762D01*
X136787160Y-91024799D01*
X136789586Y-91028328D01*
X136789589Y-91028334D01*
X136918741Y-91216250D01*
X136942274Y-91250490D01*
X137126582Y-91453043D01*
X137336675Y-91628707D01*
X137340316Y-91630991D01*
X137565024Y-91771951D01*
X137565028Y-91771953D01*
X137568664Y-91774234D01*
X137636544Y-91804883D01*
X137814345Y-91885164D01*
X137814349Y-91885166D01*
X137818257Y-91886930D01*
X137822377Y-91888150D01*
X137822376Y-91888150D01*
X138076723Y-91963491D01*
X138076727Y-91963492D01*
X138080836Y-91964709D01*
X138085070Y-91965357D01*
X138085075Y-91965358D01*
X138347298Y-92005483D01*
X138347300Y-92005483D01*
X138351540Y-92006132D01*
X138490912Y-92008322D01*
X138621071Y-92010367D01*
X138621077Y-92010367D01*
X138625362Y-92010434D01*
X138897235Y-91977534D01*
X139162127Y-91908041D01*
X139166087Y-91906401D01*
X139166092Y-91906399D01*
X139288631Y-91855641D01*
X139415136Y-91803241D01*
X139651582Y-91665073D01*
X139747767Y-91589654D01*
X141105618Y-91589654D01*
X141112673Y-91599627D01*
X141143679Y-91625551D01*
X141150598Y-91630579D01*
X141375272Y-91771515D01*
X141382807Y-91775556D01*
X141624520Y-91884694D01*
X141632551Y-91887680D01*
X141886832Y-91963002D01*
X141895184Y-91964869D01*
X142157340Y-92004984D01*
X142165874Y-92005700D01*
X142431045Y-92009867D01*
X142439596Y-92009418D01*
X142702883Y-91977557D01*
X142711284Y-91975955D01*
X142967824Y-91908653D01*
X142975926Y-91905926D01*
X143220949Y-91804434D01*
X143228617Y-91800628D01*
X143457598Y-91666822D01*
X143464679Y-91662009D01*
X143544655Y-91599301D01*
X143553125Y-91587442D01*
X143546608Y-91575818D01*
X142342812Y-90372022D01*
X142328868Y-90364408D01*
X142327035Y-90364539D01*
X142320420Y-90368790D01*
X141112910Y-91576300D01*
X141105618Y-91589654D01*
X139747767Y-91589654D01*
X139867089Y-91496094D01*
X139908809Y-91453043D01*
X140054686Y-91302509D01*
X140057669Y-91299431D01*
X140060202Y-91295983D01*
X140060206Y-91295978D01*
X140217257Y-91082178D01*
X140219795Y-91078723D01*
X140221841Y-91074955D01*
X140315062Y-90903264D01*
X140365145Y-90852942D01*
X140434483Y-90837686D01*
X140501062Y-90862339D01*
X140538358Y-90906772D01*
X140595664Y-91020713D01*
X140600020Y-91028079D01*
X140729347Y-91216250D01*
X140739601Y-91224594D01*
X140753342Y-91217448D01*
X141957978Y-90012812D01*
X141964356Y-90001132D01*
X142694408Y-90001132D01*
X142694539Y-90002965D01*
X142698790Y-90009580D01*
X143905730Y-91216520D01*
X143917939Y-91223187D01*
X143929439Y-91214497D01*
X144026831Y-91081913D01*
X144031418Y-91074685D01*
X144124498Y-90903254D01*
X144174581Y-90852932D01*
X144243919Y-90837676D01*
X144310498Y-90862328D01*
X144347794Y-90906762D01*
X144407160Y-91024799D01*
X144409586Y-91028328D01*
X144409589Y-91028334D01*
X144538741Y-91216250D01*
X144562274Y-91250490D01*
X144746582Y-91453043D01*
X144956675Y-91628707D01*
X144960316Y-91630991D01*
X145185024Y-91771951D01*
X145185028Y-91771953D01*
X145188664Y-91774234D01*
X145256544Y-91804883D01*
X145434345Y-91885164D01*
X145434349Y-91885166D01*
X145438257Y-91886930D01*
X145442377Y-91888150D01*
X145442376Y-91888150D01*
X145696723Y-91963491D01*
X145696727Y-91963492D01*
X145700836Y-91964709D01*
X145705070Y-91965357D01*
X145705075Y-91965358D01*
X145967298Y-92005483D01*
X145967300Y-92005483D01*
X145971540Y-92006132D01*
X146110912Y-92008322D01*
X146241071Y-92010367D01*
X146241077Y-92010367D01*
X146245362Y-92010434D01*
X146517235Y-91977534D01*
X146782127Y-91908041D01*
X146786087Y-91906401D01*
X146786092Y-91906399D01*
X146908631Y-91855641D01*
X147035136Y-91803241D01*
X147271582Y-91665073D01*
X147487089Y-91496094D01*
X147528809Y-91453043D01*
X147674686Y-91302509D01*
X147677669Y-91299431D01*
X147680202Y-91295983D01*
X147680206Y-91295978D01*
X147837257Y-91082178D01*
X147839795Y-91078723D01*
X147841841Y-91074955D01*
X147934772Y-90903798D01*
X147984855Y-90853476D01*
X148054193Y-90838220D01*
X148120772Y-90862873D01*
X148158067Y-90907304D01*
X148217160Y-91024799D01*
X148219586Y-91028328D01*
X148219589Y-91028334D01*
X148348741Y-91216250D01*
X148372274Y-91250490D01*
X148556582Y-91453043D01*
X148766675Y-91628707D01*
X148770316Y-91630991D01*
X148995024Y-91771951D01*
X148995028Y-91771953D01*
X148998664Y-91774234D01*
X149066544Y-91804883D01*
X149244345Y-91885164D01*
X149244349Y-91885166D01*
X149248257Y-91886930D01*
X149252377Y-91888150D01*
X149252376Y-91888150D01*
X149506723Y-91963491D01*
X149506727Y-91963492D01*
X149510836Y-91964709D01*
X149515070Y-91965357D01*
X149515075Y-91965358D01*
X149777298Y-92005483D01*
X149777300Y-92005483D01*
X149781540Y-92006132D01*
X149920912Y-92008322D01*
X150051071Y-92010367D01*
X150051077Y-92010367D01*
X150055362Y-92010434D01*
X150327235Y-91977534D01*
X150592127Y-91908041D01*
X150596087Y-91906401D01*
X150596092Y-91906399D01*
X150718631Y-91855641D01*
X150845136Y-91803241D01*
X151081582Y-91665073D01*
X151297089Y-91496094D01*
X151338809Y-91453043D01*
X151484686Y-91302509D01*
X151487669Y-91299431D01*
X151490202Y-91295983D01*
X151490206Y-91295978D01*
X151647257Y-91082178D01*
X151649795Y-91078723D01*
X151651841Y-91074955D01*
X151778418Y-90841830D01*
X151778419Y-90841828D01*
X151780468Y-90838054D01*
X151853340Y-90645204D01*
X151875751Y-90585895D01*
X151875752Y-90585891D01*
X151877269Y-90581877D01*
X151938407Y-90314933D01*
X151962751Y-90042161D01*
X151963193Y-90000000D01*
X151944567Y-89726778D01*
X151889032Y-89458612D01*
X151797617Y-89200465D01*
X151672013Y-88957112D01*
X151662040Y-88942921D01*
X151517008Y-88736562D01*
X151514545Y-88733057D01*
X151328125Y-88532445D01*
X151324810Y-88529731D01*
X151324806Y-88529728D01*
X151119523Y-88361706D01*
X151116205Y-88358990D01*
X150882704Y-88215901D01*
X150878768Y-88214173D01*
X150635873Y-88107549D01*
X150635869Y-88107548D01*
X150631945Y-88105825D01*
X150368566Y-88030800D01*
X150364324Y-88030196D01*
X150364318Y-88030195D01*
X150163834Y-88001662D01*
X150097443Y-87992213D01*
X149953589Y-87991460D01*
X149827877Y-87990802D01*
X149827871Y-87990802D01*
X149823591Y-87990780D01*
X149819347Y-87991339D01*
X149819343Y-87991339D01*
X149700302Y-88007011D01*
X149552078Y-88026525D01*
X149547938Y-88027658D01*
X149547936Y-88027658D01*
X149475008Y-88047609D01*
X149287928Y-88098788D01*
X149283980Y-88100472D01*
X149039982Y-88204546D01*
X149039978Y-88204548D01*
X149036030Y-88206232D01*
X149016125Y-88218145D01*
X148804725Y-88344664D01*
X148804721Y-88344667D01*
X148801043Y-88346868D01*
X148587318Y-88518094D01*
X148398808Y-88716742D01*
X148239002Y-88939136D01*
X148236998Y-88942921D01*
X148156185Y-89095551D01*
X148106632Y-89146394D01*
X148037457Y-89162376D01*
X147970624Y-89138422D01*
X147932864Y-89094382D01*
X147863978Y-88960919D01*
X147863978Y-88960918D01*
X147862013Y-88957112D01*
X147852040Y-88942921D01*
X147707008Y-88736562D01*
X147704545Y-88733057D01*
X147518125Y-88532445D01*
X147514810Y-88529731D01*
X147514806Y-88529728D01*
X147309523Y-88361706D01*
X147306205Y-88358990D01*
X147072704Y-88215901D01*
X147068768Y-88214173D01*
X146825873Y-88107549D01*
X146825869Y-88107548D01*
X146821945Y-88105825D01*
X146558566Y-88030800D01*
X146554324Y-88030196D01*
X146554318Y-88030195D01*
X146353834Y-88001662D01*
X146287443Y-87992213D01*
X146143589Y-87991460D01*
X146017877Y-87990802D01*
X146017871Y-87990802D01*
X146013591Y-87990780D01*
X146009347Y-87991339D01*
X146009343Y-87991339D01*
X145890302Y-88007011D01*
X145742078Y-88026525D01*
X145737938Y-88027658D01*
X145737936Y-88027658D01*
X145665008Y-88047609D01*
X145477928Y-88098788D01*
X145473980Y-88100472D01*
X145229982Y-88204546D01*
X145229978Y-88204548D01*
X145226030Y-88206232D01*
X145206125Y-88218145D01*
X144994725Y-88344664D01*
X144994721Y-88344667D01*
X144991043Y-88346868D01*
X144777318Y-88518094D01*
X144588808Y-88716742D01*
X144429002Y-88939136D01*
X144426998Y-88942921D01*
X144345900Y-89096089D01*
X144296347Y-89146932D01*
X144227172Y-89162914D01*
X144160339Y-89138960D01*
X144122579Y-89094920D01*
X144053550Y-88961178D01*
X144049122Y-88953866D01*
X143930031Y-88784417D01*
X143919509Y-88776037D01*
X143906121Y-88783089D01*
X142702022Y-89987188D01*
X142694408Y-90001132D01*
X141964356Y-90001132D01*
X141965592Y-89998868D01*
X141965461Y-89997035D01*
X141961210Y-89990420D01*
X140753814Y-88783024D01*
X140741804Y-88776466D01*
X140730064Y-88785434D01*
X140621935Y-88935911D01*
X140617418Y-88943196D01*
X140536463Y-89096093D01*
X140486910Y-89146936D01*
X140417736Y-89162918D01*
X140350902Y-89138964D01*
X140313143Y-89094924D01*
X140243978Y-88960919D01*
X140243978Y-88960918D01*
X140242013Y-88957112D01*
X140232040Y-88942921D01*
X140087008Y-88736562D01*
X140084545Y-88733057D01*
X139898125Y-88532445D01*
X139894810Y-88529731D01*
X139894806Y-88529728D01*
X139751581Y-88412500D01*
X141106584Y-88412500D01*
X141112980Y-88423770D01*
X142317188Y-89627978D01*
X142331132Y-89635592D01*
X142332965Y-89635461D01*
X142339580Y-89631210D01*
X143546604Y-88424186D01*
X143553795Y-88411017D01*
X143546473Y-88400780D01*
X143499233Y-88362115D01*
X143492261Y-88357160D01*
X143266122Y-88218582D01*
X143258552Y-88214624D01*
X143015704Y-88108022D01*
X143007644Y-88105120D01*
X142752592Y-88032467D01*
X142744214Y-88030685D01*
X142481656Y-87993318D01*
X142473111Y-87992691D01*
X142207908Y-87991302D01*
X142199374Y-87991839D01*
X141936433Y-88026456D01*
X141928035Y-88028149D01*
X141672238Y-88098127D01*
X141664143Y-88100946D01*
X141420199Y-88204997D01*
X141412577Y-88208881D01*
X141185013Y-88345075D01*
X141177981Y-88349962D01*
X141115053Y-88400377D01*
X141106584Y-88412500D01*
X139751581Y-88412500D01*
X139689523Y-88361706D01*
X139686205Y-88358990D01*
X139452704Y-88215901D01*
X139448768Y-88214173D01*
X139205873Y-88107549D01*
X139205869Y-88107548D01*
X139201945Y-88105825D01*
X138938566Y-88030800D01*
X138934324Y-88030196D01*
X138934318Y-88030195D01*
X138733834Y-88001662D01*
X138667443Y-87992213D01*
X138523589Y-87991460D01*
X138397877Y-87990802D01*
X138397871Y-87990802D01*
X138393591Y-87990780D01*
X138389347Y-87991339D01*
X138389343Y-87991339D01*
X138270302Y-88007011D01*
X138122078Y-88026525D01*
X138117938Y-88027658D01*
X138117936Y-88027658D01*
X138045008Y-88047609D01*
X137857928Y-88098788D01*
X137853980Y-88100472D01*
X137609982Y-88204546D01*
X137609978Y-88204548D01*
X137606030Y-88206232D01*
X137586125Y-88218145D01*
X137374725Y-88344664D01*
X137374721Y-88344667D01*
X137371043Y-88346868D01*
X137157318Y-88518094D01*
X136968808Y-88716742D01*
X136809002Y-88939136D01*
X136806998Y-88942921D01*
X136725900Y-89096089D01*
X136676347Y-89146932D01*
X136607172Y-89162914D01*
X136540339Y-89138960D01*
X136502579Y-89094920D01*
X136433550Y-88961178D01*
X136429122Y-88953866D01*
X136310031Y-88784417D01*
X136299509Y-88776037D01*
X136286121Y-88783089D01*
X135082022Y-89987188D01*
X135074408Y-90001132D01*
X134344356Y-90001132D01*
X134345592Y-89998868D01*
X134345461Y-89997035D01*
X134341210Y-89990420D01*
X133133814Y-88783024D01*
X133121804Y-88776466D01*
X133110064Y-88785434D01*
X133001935Y-88935911D01*
X132997418Y-88943196D01*
X132916463Y-89096093D01*
X132866910Y-89146936D01*
X132797736Y-89162918D01*
X132730902Y-89138964D01*
X132693143Y-89094924D01*
X132623978Y-88960919D01*
X132623978Y-88960918D01*
X132622013Y-88957112D01*
X132612040Y-88942921D01*
X132467008Y-88736562D01*
X132464545Y-88733057D01*
X132278125Y-88532445D01*
X132274810Y-88529731D01*
X132274806Y-88529728D01*
X132131581Y-88412500D01*
X133486584Y-88412500D01*
X133492980Y-88423770D01*
X134697188Y-89627978D01*
X134711132Y-89635592D01*
X134712965Y-89635461D01*
X134719580Y-89631210D01*
X135926604Y-88424186D01*
X135933795Y-88411017D01*
X135926473Y-88400780D01*
X135879233Y-88362115D01*
X135872261Y-88357160D01*
X135646122Y-88218582D01*
X135638552Y-88214624D01*
X135395704Y-88108022D01*
X135387644Y-88105120D01*
X135132592Y-88032467D01*
X135124214Y-88030685D01*
X134861656Y-87993318D01*
X134853111Y-87992691D01*
X134587908Y-87991302D01*
X134579374Y-87991839D01*
X134316433Y-88026456D01*
X134308035Y-88028149D01*
X134052238Y-88098127D01*
X134044143Y-88100946D01*
X133800199Y-88204997D01*
X133792577Y-88208881D01*
X133565013Y-88345075D01*
X133557981Y-88349962D01*
X133495053Y-88400377D01*
X133486584Y-88412500D01*
X132131581Y-88412500D01*
X132069523Y-88361706D01*
X132066205Y-88358990D01*
X131832704Y-88215901D01*
X131828768Y-88214173D01*
X131585873Y-88107549D01*
X131585869Y-88107548D01*
X131581945Y-88105825D01*
X131318566Y-88030800D01*
X131314324Y-88030196D01*
X131314318Y-88030195D01*
X131113834Y-88001662D01*
X131047443Y-87992213D01*
X130903589Y-87991460D01*
X130777877Y-87990802D01*
X130777871Y-87990802D01*
X130773591Y-87990780D01*
X130769347Y-87991339D01*
X130769343Y-87991339D01*
X130650302Y-88007011D01*
X130502078Y-88026525D01*
X130497938Y-88027658D01*
X130497936Y-88027658D01*
X130425008Y-88047609D01*
X130237928Y-88098788D01*
X130233980Y-88100472D01*
X129989982Y-88204546D01*
X129989978Y-88204548D01*
X129986030Y-88206232D01*
X129966125Y-88218145D01*
X129754725Y-88344664D01*
X129754721Y-88344667D01*
X129751043Y-88346868D01*
X129537318Y-88518094D01*
X129348808Y-88716742D01*
X129189002Y-88939136D01*
X129186998Y-88942921D01*
X129105900Y-89096089D01*
X129056347Y-89146932D01*
X128987172Y-89162914D01*
X128920339Y-89138960D01*
X128882579Y-89094920D01*
X128813550Y-88961178D01*
X128809122Y-88953866D01*
X128690031Y-88784417D01*
X128679509Y-88776037D01*
X128666121Y-88783089D01*
X127462022Y-89987188D01*
X127454408Y-90001132D01*
X126724356Y-90001132D01*
X126725592Y-89998868D01*
X126725461Y-89997035D01*
X126721210Y-89990420D01*
X125513814Y-88783024D01*
X125501804Y-88776466D01*
X125490064Y-88785434D01*
X125381935Y-88935911D01*
X125377418Y-88943196D01*
X125296463Y-89096093D01*
X125246910Y-89146936D01*
X125177736Y-89162918D01*
X125110902Y-89138964D01*
X125073143Y-89094924D01*
X125003978Y-88960919D01*
X125003978Y-88960918D01*
X125002013Y-88957112D01*
X124992040Y-88942921D01*
X124847008Y-88736562D01*
X124844545Y-88733057D01*
X124658125Y-88532445D01*
X124654810Y-88529731D01*
X124654806Y-88529728D01*
X124511581Y-88412500D01*
X125866584Y-88412500D01*
X125872980Y-88423770D01*
X127077188Y-89627978D01*
X127091132Y-89635592D01*
X127092965Y-89635461D01*
X127099580Y-89631210D01*
X128306604Y-88424186D01*
X128313795Y-88411017D01*
X128306473Y-88400780D01*
X128259233Y-88362115D01*
X128252261Y-88357160D01*
X128026122Y-88218582D01*
X128018552Y-88214624D01*
X127775704Y-88108022D01*
X127767644Y-88105120D01*
X127512592Y-88032467D01*
X127504214Y-88030685D01*
X127241656Y-87993318D01*
X127233111Y-87992691D01*
X126967908Y-87991302D01*
X126959374Y-87991839D01*
X126696433Y-88026456D01*
X126688035Y-88028149D01*
X126432238Y-88098127D01*
X126424143Y-88100946D01*
X126180199Y-88204997D01*
X126172577Y-88208881D01*
X125945013Y-88345075D01*
X125937981Y-88349962D01*
X125875053Y-88400377D01*
X125866584Y-88412500D01*
X124511581Y-88412500D01*
X124449523Y-88361706D01*
X124446205Y-88358990D01*
X124212704Y-88215901D01*
X124208768Y-88214173D01*
X123965873Y-88107549D01*
X123965869Y-88107548D01*
X123961945Y-88105825D01*
X123698566Y-88030800D01*
X123694324Y-88030196D01*
X123694318Y-88030195D01*
X123493834Y-88001662D01*
X123427443Y-87992213D01*
X123283589Y-87991460D01*
X123157877Y-87990802D01*
X123157871Y-87990802D01*
X123153591Y-87990780D01*
X123149347Y-87991339D01*
X123149343Y-87991339D01*
X123030302Y-88007011D01*
X122882078Y-88026525D01*
X122877938Y-88027658D01*
X122877936Y-88027658D01*
X122805008Y-88047609D01*
X122617928Y-88098788D01*
X122613980Y-88100472D01*
X122369982Y-88204546D01*
X122369978Y-88204548D01*
X122366030Y-88206232D01*
X122346125Y-88218145D01*
X122134725Y-88344664D01*
X122134721Y-88344667D01*
X122131043Y-88346868D01*
X121917318Y-88518094D01*
X121728808Y-88716742D01*
X121569002Y-88939136D01*
X121566998Y-88942921D01*
X121485900Y-89096089D01*
X121436347Y-89146932D01*
X121367172Y-89162914D01*
X121300339Y-89138960D01*
X121262579Y-89094920D01*
X121193550Y-88961178D01*
X121189122Y-88953866D01*
X121070031Y-88784417D01*
X121059509Y-88776037D01*
X121046121Y-88783089D01*
X119842022Y-89987188D01*
X119834408Y-90001132D01*
X119104356Y-90001132D01*
X119105592Y-89998868D01*
X119105461Y-89997035D01*
X119101210Y-89990420D01*
X117893814Y-88783024D01*
X117881804Y-88776466D01*
X117870064Y-88785434D01*
X117761935Y-88935911D01*
X117757418Y-88943196D01*
X117676463Y-89096093D01*
X117626910Y-89146936D01*
X117557736Y-89162918D01*
X117490902Y-89138964D01*
X117453143Y-89094924D01*
X117383978Y-88960919D01*
X117383978Y-88960918D01*
X117382013Y-88957112D01*
X117372040Y-88942921D01*
X117227008Y-88736562D01*
X117224545Y-88733057D01*
X117038125Y-88532445D01*
X117034810Y-88529731D01*
X117034806Y-88529728D01*
X116891581Y-88412500D01*
X118246584Y-88412500D01*
X118252980Y-88423770D01*
X119457188Y-89627978D01*
X119471132Y-89635592D01*
X119472965Y-89635461D01*
X119479580Y-89631210D01*
X120686604Y-88424186D01*
X120693795Y-88411017D01*
X120686473Y-88400780D01*
X120639233Y-88362115D01*
X120632261Y-88357160D01*
X120406122Y-88218582D01*
X120398552Y-88214624D01*
X120155704Y-88108022D01*
X120147644Y-88105120D01*
X119892592Y-88032467D01*
X119884214Y-88030685D01*
X119621656Y-87993318D01*
X119613111Y-87992691D01*
X119347908Y-87991302D01*
X119339374Y-87991839D01*
X119076433Y-88026456D01*
X119068035Y-88028149D01*
X118812238Y-88098127D01*
X118804143Y-88100946D01*
X118560199Y-88204997D01*
X118552577Y-88208881D01*
X118325013Y-88345075D01*
X118317981Y-88349962D01*
X118255053Y-88400377D01*
X118246584Y-88412500D01*
X116891581Y-88412500D01*
X116829523Y-88361706D01*
X116826205Y-88358990D01*
X116592704Y-88215901D01*
X116588768Y-88214173D01*
X116345873Y-88107549D01*
X116345869Y-88107548D01*
X116341945Y-88105825D01*
X116078566Y-88030800D01*
X116074324Y-88030196D01*
X116074318Y-88030195D01*
X115873834Y-88001662D01*
X115807443Y-87992213D01*
X115663589Y-87991460D01*
X115537877Y-87990802D01*
X115537871Y-87990802D01*
X115533591Y-87990780D01*
X115529347Y-87991339D01*
X115529343Y-87991339D01*
X115410302Y-88007011D01*
X115262078Y-88026525D01*
X115257938Y-88027658D01*
X115257936Y-88027658D01*
X115185008Y-88047609D01*
X114997928Y-88098788D01*
X114993980Y-88100472D01*
X114749982Y-88204546D01*
X114749978Y-88204548D01*
X114746030Y-88206232D01*
X114726125Y-88218145D01*
X114514725Y-88344664D01*
X114514721Y-88344667D01*
X114511043Y-88346868D01*
X114297318Y-88518094D01*
X114108808Y-88716742D01*
X113949002Y-88939136D01*
X113946998Y-88942921D01*
X113865900Y-89096089D01*
X113816347Y-89146932D01*
X113747172Y-89162914D01*
X113680339Y-89138960D01*
X113642579Y-89094920D01*
X113573550Y-88961178D01*
X113569122Y-88953866D01*
X113450031Y-88784417D01*
X113439509Y-88776037D01*
X113426121Y-88783089D01*
X112222022Y-89987188D01*
X112214408Y-90001132D01*
X111484356Y-90001132D01*
X111485592Y-89998868D01*
X111485461Y-89997035D01*
X111481210Y-89990420D01*
X110273814Y-88783024D01*
X110261804Y-88776466D01*
X110250064Y-88785434D01*
X110141935Y-88935911D01*
X110137418Y-88943196D01*
X110013325Y-89177567D01*
X110009839Y-89185395D01*
X109972826Y-89286539D01*
X109930632Y-89343637D01*
X109864267Y-89368859D01*
X109794801Y-89354197D01*
X109744289Y-89304307D01*
X109728500Y-89243238D01*
X109728500Y-88412500D01*
X110626584Y-88412500D01*
X110632980Y-88423770D01*
X111837188Y-89627978D01*
X111851132Y-89635592D01*
X111852965Y-89635461D01*
X111859580Y-89631210D01*
X113066604Y-88424186D01*
X113073795Y-88411017D01*
X113066473Y-88400780D01*
X113019233Y-88362115D01*
X113012261Y-88357160D01*
X112786122Y-88218582D01*
X112778552Y-88214624D01*
X112535704Y-88108022D01*
X112527644Y-88105120D01*
X112272592Y-88032467D01*
X112264214Y-88030685D01*
X112001656Y-87993318D01*
X111993111Y-87992691D01*
X111727908Y-87991302D01*
X111719374Y-87991839D01*
X111456433Y-88026456D01*
X111448035Y-88028149D01*
X111192238Y-88098127D01*
X111184143Y-88100946D01*
X110940199Y-88204997D01*
X110932577Y-88208881D01*
X110705013Y-88345075D01*
X110697981Y-88349962D01*
X110635053Y-88400377D01*
X110626584Y-88412500D01*
X109728500Y-88412500D01*
X109728500Y-84978918D01*
X111741917Y-84978918D01*
X111757682Y-85252320D01*
X111758507Y-85256525D01*
X111758508Y-85256533D01*
X111779698Y-85364539D01*
X111810405Y-85521053D01*
X111811792Y-85525103D01*
X111811793Y-85525108D01*
X111832605Y-85585895D01*
X111899112Y-85780144D01*
X112022160Y-86024799D01*
X112024586Y-86028328D01*
X112024589Y-86028334D01*
X112153741Y-86216250D01*
X112177274Y-86250490D01*
X112361582Y-86453043D01*
X112571675Y-86628707D01*
X112575316Y-86630991D01*
X112800024Y-86771951D01*
X112800028Y-86771953D01*
X112803664Y-86774234D01*
X112871544Y-86804883D01*
X113049345Y-86885164D01*
X113049349Y-86885166D01*
X113053257Y-86886930D01*
X113057377Y-86888150D01*
X113057376Y-86888150D01*
X113311723Y-86963491D01*
X113311727Y-86963492D01*
X113315836Y-86964709D01*
X113320070Y-86965357D01*
X113320075Y-86965358D01*
X113582298Y-87005483D01*
X113582300Y-87005483D01*
X113586540Y-87006132D01*
X113725912Y-87008322D01*
X113856071Y-87010367D01*
X113856077Y-87010367D01*
X113860362Y-87010434D01*
X114132235Y-86977534D01*
X114397127Y-86908041D01*
X114401087Y-86906401D01*
X114401092Y-86906399D01*
X114523631Y-86855641D01*
X114650136Y-86803241D01*
X114886582Y-86665073D01*
X114982767Y-86589654D01*
X116340618Y-86589654D01*
X116347673Y-86599627D01*
X116378679Y-86625551D01*
X116385598Y-86630579D01*
X116610272Y-86771515D01*
X116617807Y-86775556D01*
X116859520Y-86884694D01*
X116867551Y-86887680D01*
X117121832Y-86963002D01*
X117130184Y-86964869D01*
X117392340Y-87004984D01*
X117400874Y-87005700D01*
X117666045Y-87009867D01*
X117674596Y-87009418D01*
X117937883Y-86977557D01*
X117946284Y-86975955D01*
X118202824Y-86908653D01*
X118210926Y-86905926D01*
X118455949Y-86804434D01*
X118463617Y-86800628D01*
X118692598Y-86666822D01*
X118699679Y-86662009D01*
X118779655Y-86599301D01*
X118788125Y-86587442D01*
X118781608Y-86575818D01*
X117577812Y-85372022D01*
X117563868Y-85364408D01*
X117562035Y-85364539D01*
X117555420Y-85368790D01*
X116347910Y-86576300D01*
X116340618Y-86589654D01*
X114982767Y-86589654D01*
X115102089Y-86496094D01*
X115143809Y-86453043D01*
X115289686Y-86302509D01*
X115292669Y-86299431D01*
X115295202Y-86295983D01*
X115295206Y-86295978D01*
X115452257Y-86082178D01*
X115454795Y-86078723D01*
X115456841Y-86074955D01*
X115550062Y-85903264D01*
X115600145Y-85852942D01*
X115669483Y-85837686D01*
X115736062Y-85862339D01*
X115773358Y-85906772D01*
X115830664Y-86020713D01*
X115835020Y-86028079D01*
X115964347Y-86216250D01*
X115974601Y-86224594D01*
X115988342Y-86217448D01*
X117192978Y-85012812D01*
X117199356Y-85001132D01*
X117929408Y-85001132D01*
X117929539Y-85002965D01*
X117933790Y-85009580D01*
X119140730Y-86216520D01*
X119152939Y-86223187D01*
X119164439Y-86214497D01*
X119261831Y-86081913D01*
X119266418Y-86074685D01*
X119359498Y-85903254D01*
X119409581Y-85852932D01*
X119478919Y-85837676D01*
X119545498Y-85862328D01*
X119582794Y-85906762D01*
X119642160Y-86024799D01*
X119644586Y-86028328D01*
X119644589Y-86028334D01*
X119773741Y-86216250D01*
X119797274Y-86250490D01*
X119981582Y-86453043D01*
X120191675Y-86628707D01*
X120195316Y-86630991D01*
X120420024Y-86771951D01*
X120420028Y-86771953D01*
X120423664Y-86774234D01*
X120491544Y-86804883D01*
X120669345Y-86885164D01*
X120669349Y-86885166D01*
X120673257Y-86886930D01*
X120677377Y-86888150D01*
X120677376Y-86888150D01*
X120931723Y-86963491D01*
X120931727Y-86963492D01*
X120935836Y-86964709D01*
X120940070Y-86965357D01*
X120940075Y-86965358D01*
X121202298Y-87005483D01*
X121202300Y-87005483D01*
X121206540Y-87006132D01*
X121345912Y-87008322D01*
X121476071Y-87010367D01*
X121476077Y-87010367D01*
X121480362Y-87010434D01*
X121752235Y-86977534D01*
X122017127Y-86908041D01*
X122021087Y-86906401D01*
X122021092Y-86906399D01*
X122143631Y-86855641D01*
X122270136Y-86803241D01*
X122506582Y-86665073D01*
X122722089Y-86496094D01*
X122763809Y-86453043D01*
X122909686Y-86302509D01*
X122912669Y-86299431D01*
X122915202Y-86295983D01*
X122915206Y-86295978D01*
X123072257Y-86082178D01*
X123074795Y-86078723D01*
X123076841Y-86074955D01*
X123169772Y-85903798D01*
X123219855Y-85853476D01*
X123289193Y-85838220D01*
X123355772Y-85862873D01*
X123393067Y-85907304D01*
X123452160Y-86024799D01*
X123454586Y-86028328D01*
X123454589Y-86028334D01*
X123583741Y-86216250D01*
X123607274Y-86250490D01*
X123791582Y-86453043D01*
X124001675Y-86628707D01*
X124005316Y-86630991D01*
X124230024Y-86771951D01*
X124230028Y-86771953D01*
X124233664Y-86774234D01*
X124301544Y-86804883D01*
X124479345Y-86885164D01*
X124479349Y-86885166D01*
X124483257Y-86886930D01*
X124487377Y-86888150D01*
X124487376Y-86888150D01*
X124741723Y-86963491D01*
X124741727Y-86963492D01*
X124745836Y-86964709D01*
X124750070Y-86965357D01*
X124750075Y-86965358D01*
X125012298Y-87005483D01*
X125012300Y-87005483D01*
X125016540Y-87006132D01*
X125155912Y-87008322D01*
X125286071Y-87010367D01*
X125286077Y-87010367D01*
X125290362Y-87010434D01*
X125562235Y-86977534D01*
X125827127Y-86908041D01*
X125831087Y-86906401D01*
X125831092Y-86906399D01*
X125953631Y-86855641D01*
X126080136Y-86803241D01*
X126316582Y-86665073D01*
X126532089Y-86496094D01*
X126573809Y-86453043D01*
X126719686Y-86302509D01*
X126722669Y-86299431D01*
X126725202Y-86295983D01*
X126725206Y-86295978D01*
X126882257Y-86082178D01*
X126884795Y-86078723D01*
X126886841Y-86074955D01*
X126979772Y-85903798D01*
X127029855Y-85853476D01*
X127099193Y-85838220D01*
X127165772Y-85862873D01*
X127203067Y-85907304D01*
X127262160Y-86024799D01*
X127264586Y-86028328D01*
X127264589Y-86028334D01*
X127393741Y-86216250D01*
X127417274Y-86250490D01*
X127601582Y-86453043D01*
X127811675Y-86628707D01*
X127815316Y-86630991D01*
X128040024Y-86771951D01*
X128040028Y-86771953D01*
X128043664Y-86774234D01*
X128111544Y-86804883D01*
X128289345Y-86885164D01*
X128289349Y-86885166D01*
X128293257Y-86886930D01*
X128297377Y-86888150D01*
X128297376Y-86888150D01*
X128551723Y-86963491D01*
X128551727Y-86963492D01*
X128555836Y-86964709D01*
X128560070Y-86965357D01*
X128560075Y-86965358D01*
X128822298Y-87005483D01*
X128822300Y-87005483D01*
X128826540Y-87006132D01*
X128965912Y-87008322D01*
X129096071Y-87010367D01*
X129096077Y-87010367D01*
X129100362Y-87010434D01*
X129372235Y-86977534D01*
X129637127Y-86908041D01*
X129641087Y-86906401D01*
X129641092Y-86906399D01*
X129763631Y-86855641D01*
X129890136Y-86803241D01*
X130126582Y-86665073D01*
X130342089Y-86496094D01*
X130383809Y-86453043D01*
X130529686Y-86302509D01*
X130532669Y-86299431D01*
X130535202Y-86295983D01*
X130535206Y-86295978D01*
X130692257Y-86082178D01*
X130694795Y-86078723D01*
X130696841Y-86074955D01*
X130789772Y-85903798D01*
X130839855Y-85853476D01*
X130909193Y-85838220D01*
X130975772Y-85862873D01*
X131013067Y-85907304D01*
X131072160Y-86024799D01*
X131074586Y-86028328D01*
X131074589Y-86028334D01*
X131203741Y-86216250D01*
X131227274Y-86250490D01*
X131411582Y-86453043D01*
X131621675Y-86628707D01*
X131625316Y-86630991D01*
X131850024Y-86771951D01*
X131850028Y-86771953D01*
X131853664Y-86774234D01*
X131921544Y-86804883D01*
X132099345Y-86885164D01*
X132099349Y-86885166D01*
X132103257Y-86886930D01*
X132107377Y-86888150D01*
X132107376Y-86888150D01*
X132361723Y-86963491D01*
X132361727Y-86963492D01*
X132365836Y-86964709D01*
X132370070Y-86965357D01*
X132370075Y-86965358D01*
X132632298Y-87005483D01*
X132632300Y-87005483D01*
X132636540Y-87006132D01*
X132775912Y-87008322D01*
X132906071Y-87010367D01*
X132906077Y-87010367D01*
X132910362Y-87010434D01*
X133182235Y-86977534D01*
X133447127Y-86908041D01*
X133451087Y-86906401D01*
X133451092Y-86906399D01*
X133573631Y-86855641D01*
X133700136Y-86803241D01*
X133936582Y-86665073D01*
X134152089Y-86496094D01*
X134193809Y-86453043D01*
X134339686Y-86302509D01*
X134342669Y-86299431D01*
X134345202Y-86295983D01*
X134345206Y-86295978D01*
X134502257Y-86082178D01*
X134504795Y-86078723D01*
X134506841Y-86074955D01*
X134599772Y-85903798D01*
X134649855Y-85853476D01*
X134719193Y-85838220D01*
X134785772Y-85862873D01*
X134823067Y-85907304D01*
X134882160Y-86024799D01*
X134884586Y-86028328D01*
X134884589Y-86028334D01*
X135013741Y-86216250D01*
X135037274Y-86250490D01*
X135221582Y-86453043D01*
X135431675Y-86628707D01*
X135435316Y-86630991D01*
X135660024Y-86771951D01*
X135660028Y-86771953D01*
X135663664Y-86774234D01*
X135731544Y-86804883D01*
X135909345Y-86885164D01*
X135909349Y-86885166D01*
X135913257Y-86886930D01*
X135917377Y-86888150D01*
X135917376Y-86888150D01*
X136171723Y-86963491D01*
X136171727Y-86963492D01*
X136175836Y-86964709D01*
X136180070Y-86965357D01*
X136180075Y-86965358D01*
X136442298Y-87005483D01*
X136442300Y-87005483D01*
X136446540Y-87006132D01*
X136585912Y-87008322D01*
X136716071Y-87010367D01*
X136716077Y-87010367D01*
X136720362Y-87010434D01*
X136992235Y-86977534D01*
X137257127Y-86908041D01*
X137261087Y-86906401D01*
X137261092Y-86906399D01*
X137383631Y-86855641D01*
X137510136Y-86803241D01*
X137746582Y-86665073D01*
X137962089Y-86496094D01*
X138003809Y-86453043D01*
X138149686Y-86302509D01*
X138152669Y-86299431D01*
X138155202Y-86295983D01*
X138155206Y-86295978D01*
X138312257Y-86082178D01*
X138314795Y-86078723D01*
X138316841Y-86074955D01*
X138409772Y-85903798D01*
X138459855Y-85853476D01*
X138529193Y-85838220D01*
X138595772Y-85862873D01*
X138633067Y-85907304D01*
X138692160Y-86024799D01*
X138694586Y-86028328D01*
X138694589Y-86028334D01*
X138823741Y-86216250D01*
X138847274Y-86250490D01*
X139031582Y-86453043D01*
X139241675Y-86628707D01*
X139245316Y-86630991D01*
X139470024Y-86771951D01*
X139470028Y-86771953D01*
X139473664Y-86774234D01*
X139541544Y-86804883D01*
X139719345Y-86885164D01*
X139719349Y-86885166D01*
X139723257Y-86886930D01*
X139727377Y-86888150D01*
X139727376Y-86888150D01*
X139981723Y-86963491D01*
X139981727Y-86963492D01*
X139985836Y-86964709D01*
X139990070Y-86965357D01*
X139990075Y-86965358D01*
X140252298Y-87005483D01*
X140252300Y-87005483D01*
X140256540Y-87006132D01*
X140395912Y-87008322D01*
X140526071Y-87010367D01*
X140526077Y-87010367D01*
X140530362Y-87010434D01*
X140802235Y-86977534D01*
X141067127Y-86908041D01*
X141071087Y-86906401D01*
X141071092Y-86906399D01*
X141193631Y-86855641D01*
X141320136Y-86803241D01*
X141556582Y-86665073D01*
X141652767Y-86589654D01*
X143010618Y-86589654D01*
X143017673Y-86599627D01*
X143048679Y-86625551D01*
X143055598Y-86630579D01*
X143280272Y-86771515D01*
X143287807Y-86775556D01*
X143529520Y-86884694D01*
X143537551Y-86887680D01*
X143791832Y-86963002D01*
X143800184Y-86964869D01*
X144062340Y-87004984D01*
X144070874Y-87005700D01*
X144336045Y-87009867D01*
X144344596Y-87009418D01*
X144607883Y-86977557D01*
X144616284Y-86975955D01*
X144872824Y-86908653D01*
X144880926Y-86905926D01*
X145125949Y-86804434D01*
X145133617Y-86800628D01*
X145362598Y-86666822D01*
X145369679Y-86662009D01*
X145449655Y-86599301D01*
X145458125Y-86587442D01*
X145451608Y-86575818D01*
X144247812Y-85372022D01*
X144233868Y-85364408D01*
X144232035Y-85364539D01*
X144225420Y-85368790D01*
X143017910Y-86576300D01*
X143010618Y-86589654D01*
X141652767Y-86589654D01*
X141772089Y-86496094D01*
X141813809Y-86453043D01*
X141959686Y-86302509D01*
X141962669Y-86299431D01*
X141965202Y-86295983D01*
X141965206Y-86295978D01*
X142122257Y-86082178D01*
X142124795Y-86078723D01*
X142126841Y-86074955D01*
X142220062Y-85903264D01*
X142270145Y-85852942D01*
X142339483Y-85837686D01*
X142406062Y-85862339D01*
X142443358Y-85906772D01*
X142500664Y-86020713D01*
X142505020Y-86028079D01*
X142634347Y-86216250D01*
X142644601Y-86224594D01*
X142658342Y-86217448D01*
X143862978Y-85012812D01*
X143869356Y-85001132D01*
X144599408Y-85001132D01*
X144599539Y-85002965D01*
X144603790Y-85009580D01*
X145810730Y-86216520D01*
X145822939Y-86223187D01*
X145834439Y-86214497D01*
X145931831Y-86081913D01*
X145936418Y-86074685D01*
X146029498Y-85903254D01*
X146079581Y-85852932D01*
X146148919Y-85837676D01*
X146215498Y-85862328D01*
X146252794Y-85906762D01*
X146312160Y-86024799D01*
X146314586Y-86028328D01*
X146314589Y-86028334D01*
X146443741Y-86216250D01*
X146467274Y-86250490D01*
X146651582Y-86453043D01*
X146861675Y-86628707D01*
X146865316Y-86630991D01*
X147090024Y-86771951D01*
X147090028Y-86771953D01*
X147093664Y-86774234D01*
X147161544Y-86804883D01*
X147339345Y-86885164D01*
X147339349Y-86885166D01*
X147343257Y-86886930D01*
X147347377Y-86888150D01*
X147347376Y-86888150D01*
X147601723Y-86963491D01*
X147601727Y-86963492D01*
X147605836Y-86964709D01*
X147610070Y-86965357D01*
X147610075Y-86965358D01*
X147872298Y-87005483D01*
X147872300Y-87005483D01*
X147876540Y-87006132D01*
X148015912Y-87008322D01*
X148146071Y-87010367D01*
X148146077Y-87010367D01*
X148150362Y-87010434D01*
X148422235Y-86977534D01*
X148687127Y-86908041D01*
X148691087Y-86906401D01*
X148691092Y-86906399D01*
X148813631Y-86855641D01*
X148940136Y-86803241D01*
X149176582Y-86665073D01*
X149392089Y-86496094D01*
X149433809Y-86453043D01*
X149579686Y-86302509D01*
X149582669Y-86299431D01*
X149585202Y-86295983D01*
X149585206Y-86295978D01*
X149742257Y-86082178D01*
X149744795Y-86078723D01*
X149746841Y-86074955D01*
X149873418Y-85841830D01*
X149873419Y-85841828D01*
X149875468Y-85838054D01*
X149923868Y-85709966D01*
X149970751Y-85585895D01*
X149970752Y-85585891D01*
X149972269Y-85581877D01*
X150033407Y-85314933D01*
X150057751Y-85042161D01*
X150058193Y-85000000D01*
X150039567Y-84726778D01*
X149984032Y-84458612D01*
X149892617Y-84200465D01*
X149767013Y-83957112D01*
X149757040Y-83942921D01*
X149612008Y-83736562D01*
X149609545Y-83733057D01*
X149423125Y-83532445D01*
X149419810Y-83529731D01*
X149419806Y-83529728D01*
X149214523Y-83361706D01*
X149211205Y-83358990D01*
X148977704Y-83215901D01*
X148973768Y-83214173D01*
X148730873Y-83107549D01*
X148730869Y-83107548D01*
X148726945Y-83105825D01*
X148463566Y-83030800D01*
X148459324Y-83030196D01*
X148459318Y-83030195D01*
X148258834Y-83001662D01*
X148192443Y-82992213D01*
X148048589Y-82991460D01*
X147922877Y-82990802D01*
X147922871Y-82990802D01*
X147918591Y-82990780D01*
X147914347Y-82991339D01*
X147914343Y-82991339D01*
X147795302Y-83007011D01*
X147647078Y-83026525D01*
X147642938Y-83027658D01*
X147642936Y-83027658D01*
X147570008Y-83047609D01*
X147382928Y-83098788D01*
X147378980Y-83100472D01*
X147134982Y-83204546D01*
X147134978Y-83204548D01*
X147131030Y-83206232D01*
X147111125Y-83218145D01*
X146899725Y-83344664D01*
X146899721Y-83344667D01*
X146896043Y-83346868D01*
X146682318Y-83518094D01*
X146493808Y-83716742D01*
X146334002Y-83939136D01*
X146331998Y-83942921D01*
X146250900Y-84096089D01*
X146201347Y-84146932D01*
X146132172Y-84162914D01*
X146065339Y-84138960D01*
X146027579Y-84094920D01*
X145958550Y-83961178D01*
X145954122Y-83953866D01*
X145835031Y-83784417D01*
X145824509Y-83776037D01*
X145811121Y-83783089D01*
X144607022Y-84987188D01*
X144599408Y-85001132D01*
X143869356Y-85001132D01*
X143870592Y-84998868D01*
X143870461Y-84997035D01*
X143866210Y-84990420D01*
X142658814Y-83783024D01*
X142646804Y-83776466D01*
X142635064Y-83785434D01*
X142526935Y-83935911D01*
X142522418Y-83943196D01*
X142441463Y-84096093D01*
X142391910Y-84146936D01*
X142322736Y-84162918D01*
X142255902Y-84138964D01*
X142218143Y-84094924D01*
X142148978Y-83960919D01*
X142148978Y-83960918D01*
X142147013Y-83957112D01*
X142137040Y-83942921D01*
X141992008Y-83736562D01*
X141989545Y-83733057D01*
X141803125Y-83532445D01*
X141799810Y-83529731D01*
X141799806Y-83529728D01*
X141656581Y-83412500D01*
X143011584Y-83412500D01*
X143017980Y-83423770D01*
X144222188Y-84627978D01*
X144236132Y-84635592D01*
X144237965Y-84635461D01*
X144244580Y-84631210D01*
X145451604Y-83424186D01*
X145458795Y-83411017D01*
X145451473Y-83400780D01*
X145404233Y-83362115D01*
X145397261Y-83357160D01*
X145171122Y-83218582D01*
X145163552Y-83214624D01*
X144920704Y-83108022D01*
X144912644Y-83105120D01*
X144657592Y-83032467D01*
X144649214Y-83030685D01*
X144386656Y-82993318D01*
X144378111Y-82992691D01*
X144112908Y-82991302D01*
X144104374Y-82991839D01*
X143841433Y-83026456D01*
X143833035Y-83028149D01*
X143577238Y-83098127D01*
X143569143Y-83100946D01*
X143325199Y-83204997D01*
X143317577Y-83208881D01*
X143090013Y-83345075D01*
X143082981Y-83349962D01*
X143020053Y-83400377D01*
X143011584Y-83412500D01*
X141656581Y-83412500D01*
X141594523Y-83361706D01*
X141591205Y-83358990D01*
X141357704Y-83215901D01*
X141353768Y-83214173D01*
X141110873Y-83107549D01*
X141110869Y-83107548D01*
X141106945Y-83105825D01*
X140843566Y-83030800D01*
X140839324Y-83030196D01*
X140839318Y-83030195D01*
X140638834Y-83001662D01*
X140572443Y-82992213D01*
X140428589Y-82991460D01*
X140302877Y-82990802D01*
X140302871Y-82990802D01*
X140298591Y-82990780D01*
X140294347Y-82991339D01*
X140294343Y-82991339D01*
X140175302Y-83007011D01*
X140027078Y-83026525D01*
X140022938Y-83027658D01*
X140022936Y-83027658D01*
X139950008Y-83047609D01*
X139762928Y-83098788D01*
X139758980Y-83100472D01*
X139514982Y-83204546D01*
X139514978Y-83204548D01*
X139511030Y-83206232D01*
X139491125Y-83218145D01*
X139279725Y-83344664D01*
X139279721Y-83344667D01*
X139276043Y-83346868D01*
X139062318Y-83518094D01*
X138873808Y-83716742D01*
X138714002Y-83939136D01*
X138711998Y-83942921D01*
X138631185Y-84095551D01*
X138581632Y-84146394D01*
X138512457Y-84162376D01*
X138445624Y-84138422D01*
X138407864Y-84094382D01*
X138338978Y-83960919D01*
X138338978Y-83960918D01*
X138337013Y-83957112D01*
X138327040Y-83942921D01*
X138182008Y-83736562D01*
X138179545Y-83733057D01*
X137993125Y-83532445D01*
X137989810Y-83529731D01*
X137989806Y-83529728D01*
X137784523Y-83361706D01*
X137781205Y-83358990D01*
X137547704Y-83215901D01*
X137543768Y-83214173D01*
X137300873Y-83107549D01*
X137300869Y-83107548D01*
X137296945Y-83105825D01*
X137033566Y-83030800D01*
X137029324Y-83030196D01*
X137029318Y-83030195D01*
X136828834Y-83001662D01*
X136762443Y-82992213D01*
X136618589Y-82991460D01*
X136492877Y-82990802D01*
X136492871Y-82990802D01*
X136488591Y-82990780D01*
X136484347Y-82991339D01*
X136484343Y-82991339D01*
X136365302Y-83007011D01*
X136217078Y-83026525D01*
X136212938Y-83027658D01*
X136212936Y-83027658D01*
X136140008Y-83047609D01*
X135952928Y-83098788D01*
X135948980Y-83100472D01*
X135704982Y-83204546D01*
X135704978Y-83204548D01*
X135701030Y-83206232D01*
X135681125Y-83218145D01*
X135469725Y-83344664D01*
X135469721Y-83344667D01*
X135466043Y-83346868D01*
X135252318Y-83518094D01*
X135063808Y-83716742D01*
X134904002Y-83939136D01*
X134901998Y-83942921D01*
X134821185Y-84095551D01*
X134771632Y-84146394D01*
X134702457Y-84162376D01*
X134635624Y-84138422D01*
X134597864Y-84094382D01*
X134528978Y-83960919D01*
X134528978Y-83960918D01*
X134527013Y-83957112D01*
X134517040Y-83942921D01*
X134372008Y-83736562D01*
X134369545Y-83733057D01*
X134183125Y-83532445D01*
X134179810Y-83529731D01*
X134179806Y-83529728D01*
X133974523Y-83361706D01*
X133971205Y-83358990D01*
X133737704Y-83215901D01*
X133733768Y-83214173D01*
X133490873Y-83107549D01*
X133490869Y-83107548D01*
X133486945Y-83105825D01*
X133223566Y-83030800D01*
X133219324Y-83030196D01*
X133219318Y-83030195D01*
X133018834Y-83001662D01*
X132952443Y-82992213D01*
X132808589Y-82991460D01*
X132682877Y-82990802D01*
X132682871Y-82990802D01*
X132678591Y-82990780D01*
X132674347Y-82991339D01*
X132674343Y-82991339D01*
X132555302Y-83007011D01*
X132407078Y-83026525D01*
X132402938Y-83027658D01*
X132402936Y-83027658D01*
X132330008Y-83047609D01*
X132142928Y-83098788D01*
X132138980Y-83100472D01*
X131894982Y-83204546D01*
X131894978Y-83204548D01*
X131891030Y-83206232D01*
X131871125Y-83218145D01*
X131659725Y-83344664D01*
X131659721Y-83344667D01*
X131656043Y-83346868D01*
X131442318Y-83518094D01*
X131253808Y-83716742D01*
X131094002Y-83939136D01*
X131091998Y-83942921D01*
X131011185Y-84095551D01*
X130961632Y-84146394D01*
X130892457Y-84162376D01*
X130825624Y-84138422D01*
X130787864Y-84094382D01*
X130718978Y-83960919D01*
X130718978Y-83960918D01*
X130717013Y-83957112D01*
X130707040Y-83942921D01*
X130562008Y-83736562D01*
X130559545Y-83733057D01*
X130373125Y-83532445D01*
X130369810Y-83529731D01*
X130369806Y-83529728D01*
X130164523Y-83361706D01*
X130161205Y-83358990D01*
X129927704Y-83215901D01*
X129923768Y-83214173D01*
X129680873Y-83107549D01*
X129680869Y-83107548D01*
X129676945Y-83105825D01*
X129413566Y-83030800D01*
X129409324Y-83030196D01*
X129409318Y-83030195D01*
X129208834Y-83001662D01*
X129142443Y-82992213D01*
X128998589Y-82991460D01*
X128872877Y-82990802D01*
X128872871Y-82990802D01*
X128868591Y-82990780D01*
X128864347Y-82991339D01*
X128864343Y-82991339D01*
X128745302Y-83007011D01*
X128597078Y-83026525D01*
X128592938Y-83027658D01*
X128592936Y-83027658D01*
X128520008Y-83047609D01*
X128332928Y-83098788D01*
X128328980Y-83100472D01*
X128084982Y-83204546D01*
X128084978Y-83204548D01*
X128081030Y-83206232D01*
X128061125Y-83218145D01*
X127849725Y-83344664D01*
X127849721Y-83344667D01*
X127846043Y-83346868D01*
X127632318Y-83518094D01*
X127443808Y-83716742D01*
X127284002Y-83939136D01*
X127281998Y-83942921D01*
X127201185Y-84095551D01*
X127151632Y-84146394D01*
X127082457Y-84162376D01*
X127015624Y-84138422D01*
X126977864Y-84094382D01*
X126908978Y-83960919D01*
X126908978Y-83960918D01*
X126907013Y-83957112D01*
X126897040Y-83942921D01*
X126752008Y-83736562D01*
X126749545Y-83733057D01*
X126563125Y-83532445D01*
X126559810Y-83529731D01*
X126559806Y-83529728D01*
X126354523Y-83361706D01*
X126351205Y-83358990D01*
X126117704Y-83215901D01*
X126113768Y-83214173D01*
X125870873Y-83107549D01*
X125870869Y-83107548D01*
X125866945Y-83105825D01*
X125603566Y-83030800D01*
X125599324Y-83030196D01*
X125599318Y-83030195D01*
X125398834Y-83001662D01*
X125332443Y-82992213D01*
X125188589Y-82991460D01*
X125062877Y-82990802D01*
X125062871Y-82990802D01*
X125058591Y-82990780D01*
X125054347Y-82991339D01*
X125054343Y-82991339D01*
X124935302Y-83007011D01*
X124787078Y-83026525D01*
X124782938Y-83027658D01*
X124782936Y-83027658D01*
X124710008Y-83047609D01*
X124522928Y-83098788D01*
X124518980Y-83100472D01*
X124274982Y-83204546D01*
X124274978Y-83204548D01*
X124271030Y-83206232D01*
X124251125Y-83218145D01*
X124039725Y-83344664D01*
X124039721Y-83344667D01*
X124036043Y-83346868D01*
X123822318Y-83518094D01*
X123633808Y-83716742D01*
X123474002Y-83939136D01*
X123471998Y-83942921D01*
X123391185Y-84095551D01*
X123341632Y-84146394D01*
X123272457Y-84162376D01*
X123205624Y-84138422D01*
X123167864Y-84094382D01*
X123098978Y-83960919D01*
X123098978Y-83960918D01*
X123097013Y-83957112D01*
X123087040Y-83942921D01*
X122942008Y-83736562D01*
X122939545Y-83733057D01*
X122753125Y-83532445D01*
X122749810Y-83529731D01*
X122749806Y-83529728D01*
X122544523Y-83361706D01*
X122541205Y-83358990D01*
X122307704Y-83215901D01*
X122303768Y-83214173D01*
X122060873Y-83107549D01*
X122060869Y-83107548D01*
X122056945Y-83105825D01*
X121793566Y-83030800D01*
X121789324Y-83030196D01*
X121789318Y-83030195D01*
X121588834Y-83001662D01*
X121522443Y-82992213D01*
X121378589Y-82991460D01*
X121252877Y-82990802D01*
X121252871Y-82990802D01*
X121248591Y-82990780D01*
X121244347Y-82991339D01*
X121244343Y-82991339D01*
X121125302Y-83007011D01*
X120977078Y-83026525D01*
X120972938Y-83027658D01*
X120972936Y-83027658D01*
X120900008Y-83047609D01*
X120712928Y-83098788D01*
X120708980Y-83100472D01*
X120464982Y-83204546D01*
X120464978Y-83204548D01*
X120461030Y-83206232D01*
X120441125Y-83218145D01*
X120229725Y-83344664D01*
X120229721Y-83344667D01*
X120226043Y-83346868D01*
X120012318Y-83518094D01*
X119823808Y-83716742D01*
X119664002Y-83939136D01*
X119661998Y-83942921D01*
X119580900Y-84096089D01*
X119531347Y-84146932D01*
X119462172Y-84162914D01*
X119395339Y-84138960D01*
X119357579Y-84094920D01*
X119288550Y-83961178D01*
X119284122Y-83953866D01*
X119165031Y-83784417D01*
X119154509Y-83776037D01*
X119141121Y-83783089D01*
X117937022Y-84987188D01*
X117929408Y-85001132D01*
X117199356Y-85001132D01*
X117200592Y-84998868D01*
X117200461Y-84997035D01*
X117196210Y-84990420D01*
X115988814Y-83783024D01*
X115976804Y-83776466D01*
X115965064Y-83785434D01*
X115856935Y-83935911D01*
X115852418Y-83943196D01*
X115771463Y-84096093D01*
X115721910Y-84146936D01*
X115652736Y-84162918D01*
X115585902Y-84138964D01*
X115548143Y-84094924D01*
X115478978Y-83960919D01*
X115478978Y-83960918D01*
X115477013Y-83957112D01*
X115467040Y-83942921D01*
X115322008Y-83736562D01*
X115319545Y-83733057D01*
X115133125Y-83532445D01*
X115129810Y-83529731D01*
X115129806Y-83529728D01*
X114986581Y-83412500D01*
X116341584Y-83412500D01*
X116347980Y-83423770D01*
X117552188Y-84627978D01*
X117566132Y-84635592D01*
X117567965Y-84635461D01*
X117574580Y-84631210D01*
X118781604Y-83424186D01*
X118788795Y-83411017D01*
X118781473Y-83400780D01*
X118734233Y-83362115D01*
X118727261Y-83357160D01*
X118501122Y-83218582D01*
X118493552Y-83214624D01*
X118250704Y-83108022D01*
X118242644Y-83105120D01*
X117987592Y-83032467D01*
X117979214Y-83030685D01*
X117716656Y-82993318D01*
X117708111Y-82992691D01*
X117442908Y-82991302D01*
X117434374Y-82991839D01*
X117171433Y-83026456D01*
X117163035Y-83028149D01*
X116907238Y-83098127D01*
X116899143Y-83100946D01*
X116655199Y-83204997D01*
X116647577Y-83208881D01*
X116420013Y-83345075D01*
X116412981Y-83349962D01*
X116350053Y-83400377D01*
X116341584Y-83412500D01*
X114986581Y-83412500D01*
X114924523Y-83361706D01*
X114921205Y-83358990D01*
X114687704Y-83215901D01*
X114683768Y-83214173D01*
X114440873Y-83107549D01*
X114440869Y-83107548D01*
X114436945Y-83105825D01*
X114173566Y-83030800D01*
X114169324Y-83030196D01*
X114169318Y-83030195D01*
X113968834Y-83001662D01*
X113902443Y-82992213D01*
X113758589Y-82991460D01*
X113632877Y-82990802D01*
X113632871Y-82990802D01*
X113628591Y-82990780D01*
X113624347Y-82991339D01*
X113624343Y-82991339D01*
X113505302Y-83007011D01*
X113357078Y-83026525D01*
X113352938Y-83027658D01*
X113352936Y-83027658D01*
X113280008Y-83047609D01*
X113092928Y-83098788D01*
X113088980Y-83100472D01*
X112844982Y-83204546D01*
X112844978Y-83204548D01*
X112841030Y-83206232D01*
X112821125Y-83218145D01*
X112609725Y-83344664D01*
X112609721Y-83344667D01*
X112606043Y-83346868D01*
X112392318Y-83518094D01*
X112203808Y-83716742D01*
X112044002Y-83939136D01*
X111915857Y-84181161D01*
X111914385Y-84185184D01*
X111914383Y-84185188D01*
X111907314Y-84204506D01*
X111821743Y-84438337D01*
X111763404Y-84705907D01*
X111741917Y-84978918D01*
X109728500Y-84978918D01*
X109728500Y-81406500D01*
X109748502Y-81338379D01*
X109802158Y-81291886D01*
X109854500Y-81280500D01*
X153035500Y-81280500D01*
X153103621Y-81300502D01*
G37*
%TD.AperFunction*%
%TD*%
M02*
