%TF.GenerationSoftware,KiCad,Pcbnew,(6.0.8)*%
%TF.CreationDate,2023-05-31T19:07:23+02:00*%
%TF.ProjectId,RT5XP-EXP-Interconnect,52543558-502d-4455-9850-2d496e746572,rev?*%
%TF.SameCoordinates,Original*%
%TF.FileFunction,Legend,Bot*%
%TF.FilePolarity,Positive*%
%FSLAX46Y46*%
G04 Gerber Fmt 4.6, Leading zero omitted, Abs format (unit mm)*
G04 Created by KiCad (PCBNEW (6.0.8)) date 2023-05-31 19:07:23*
%MOMM*%
%LPD*%
G01*
G04 APERTURE LIST*
%ADD10C,0.300000*%
%ADD11C,0.120000*%
G04 APERTURE END LIST*
D10*
X150816571Y-105371142D02*
X150816571Y-106228285D01*
X152316571Y-105799714D02*
X150816571Y-105799714D01*
X152316571Y-106728285D02*
X150816571Y-106728285D01*
X152316571Y-107371142D02*
X151530857Y-107371142D01*
X151388000Y-107299714D01*
X151316571Y-107156857D01*
X151316571Y-106942571D01*
X151388000Y-106799714D01*
X151459428Y-106728285D01*
X152316571Y-108085428D02*
X151316571Y-108085428D01*
X150816571Y-108085428D02*
X150888000Y-108014000D01*
X150959428Y-108085428D01*
X150888000Y-108156857D01*
X150816571Y-108085428D01*
X150959428Y-108085428D01*
X152245142Y-108728285D02*
X152316571Y-108871142D01*
X152316571Y-109156857D01*
X152245142Y-109299714D01*
X152102285Y-109371142D01*
X152030857Y-109371142D01*
X151888000Y-109299714D01*
X151816571Y-109156857D01*
X151816571Y-108942571D01*
X151745142Y-108799714D01*
X151602285Y-108728285D01*
X151530857Y-108728285D01*
X151388000Y-108799714D01*
X151316571Y-108942571D01*
X151316571Y-109156857D01*
X151388000Y-109299714D01*
X152245142Y-111085428D02*
X152316571Y-111299714D01*
X152316571Y-111656857D01*
X152245142Y-111799714D01*
X152173714Y-111871142D01*
X152030857Y-111942571D01*
X151888000Y-111942571D01*
X151745142Y-111871142D01*
X151673714Y-111799714D01*
X151602285Y-111656857D01*
X151530857Y-111371142D01*
X151459428Y-111228285D01*
X151388000Y-111156857D01*
X151245142Y-111085428D01*
X151102285Y-111085428D01*
X150959428Y-111156857D01*
X150888000Y-111228285D01*
X150816571Y-111371142D01*
X150816571Y-111728285D01*
X150888000Y-111942571D01*
X152316571Y-112585428D02*
X151316571Y-112585428D01*
X150816571Y-112585428D02*
X150888000Y-112514000D01*
X150959428Y-112585428D01*
X150888000Y-112656857D01*
X150816571Y-112585428D01*
X150959428Y-112585428D01*
X152316571Y-113942571D02*
X150816571Y-113942571D01*
X152245142Y-113942571D02*
X152316571Y-113799714D01*
X152316571Y-113514000D01*
X152245142Y-113371142D01*
X152173714Y-113299714D01*
X152030857Y-113228285D01*
X151602285Y-113228285D01*
X151459428Y-113299714D01*
X151388000Y-113371142D01*
X151316571Y-113514000D01*
X151316571Y-113799714D01*
X151388000Y-113942571D01*
X152245142Y-115228285D02*
X152316571Y-115085428D01*
X152316571Y-114799714D01*
X152245142Y-114656857D01*
X152102285Y-114585428D01*
X151530857Y-114585428D01*
X151388000Y-114656857D01*
X151316571Y-114799714D01*
X151316571Y-115085428D01*
X151388000Y-115228285D01*
X151530857Y-115299714D01*
X151673714Y-115299714D01*
X151816571Y-114585428D01*
X152316571Y-117085428D02*
X150816571Y-117085428D01*
X151316571Y-117799714D02*
X152316571Y-117799714D01*
X151459428Y-117799714D02*
X151388000Y-117871142D01*
X151316571Y-118014000D01*
X151316571Y-118228285D01*
X151388000Y-118371142D01*
X151530857Y-118442571D01*
X152316571Y-118442571D01*
D11*
%TO.C,J2*%
X153350000Y-94000000D02*
X153350000Y-81000000D01*
X109750000Y-81000000D02*
X111850000Y-87500000D01*
X111850000Y-94000000D02*
X153350000Y-94000000D01*
X153350000Y-81000000D02*
X109750000Y-81000000D01*
X111850000Y-87500000D02*
X111850000Y-94000000D01*
%TO.C,J1*%
X111850000Y-137500000D02*
X111850000Y-144000000D01*
X153350000Y-131000000D02*
X109750000Y-131000000D01*
X111850000Y-144000000D02*
X153350000Y-144000000D01*
X109750000Y-131000000D02*
X111850000Y-137500000D01*
X153350000Y-144000000D02*
X153350000Y-131000000D01*
%TD*%
M02*
