M48
; DRILL file {KiCad (6.0.8)} date Wed May 31 19:07:21 2023
; FORMAT={-:-/ absolute / inch / decimal}
; #@! TF.CreationDate,2023-05-31T19:07:21+02:00
; #@! TF.GenerationSoftware,Kicad,Pcbnew,(6.0.8)
; #@! TF.FileFunction,Plated,1,2,PTH
FMAT,2
INCH
; #@! TA.AperFunction,Plated,PTH,ComponentDrill
T1C0.0787
%
G90
G05
T1
X4.4035Y-3.5433
X4.4035Y-5.5118
X4.4785Y-3.3465
X4.4785Y-5.315
X4.5535Y-3.5433
X4.5535Y-5.5118
X4.6285Y-3.3465
X4.6285Y-5.315
X4.7035Y-3.5433
X4.7035Y-5.5118
X4.7785Y-3.3465
X4.7785Y-5.315
X4.8535Y-3.5433
X4.8535Y-5.5118
X4.9285Y-3.3465
X4.9285Y-5.315
X5.0035Y-3.5433
X5.0035Y-5.5118
X5.0785Y-3.3465
X5.0785Y-5.315
X5.1535Y-3.5433
X5.1535Y-5.5118
X5.2285Y-3.3465
X5.2285Y-5.315
X5.3035Y-3.5433
X5.3035Y-5.5118
X5.3785Y-3.3465
X5.3785Y-5.315
X5.4535Y-3.5433
X5.4535Y-5.5118
X5.5285Y-3.3465
X5.5285Y-5.315
X5.6035Y-3.5433
X5.6035Y-5.5118
X5.6785Y-3.3465
X5.6785Y-5.315
X5.7535Y-3.5433
X5.7535Y-5.5118
X5.8285Y-3.3465
X5.8285Y-5.315
X5.9035Y-3.5433
X5.9035Y-5.5118
T0
M30
