%TF.GenerationSoftware,KiCad,Pcbnew,(6.0.8)*%
%TF.CreationDate,2023-03-28T17:34:24+02:00*%
%TF.ProjectId,RT5XP-EXP,52543558-502d-4455-9850-2e6b69636164,V1.0*%
%TF.SameCoordinates,Original*%
%TF.FileFunction,Paste,Top*%
%TF.FilePolarity,Positive*%
%FSLAX46Y46*%
G04 Gerber Fmt 4.6, Leading zero omitted, Abs format (unit mm)*
G04 Created by KiCad (PCBNEW (6.0.8)) date 2023-03-28 17:34:24*
%MOMM*%
%LPD*%
G01*
G04 APERTURE LIST*
G04 Aperture macros list*
%AMRoundRect*
0 Rectangle with rounded corners*
0 $1 Rounding radius*
0 $2 $3 $4 $5 $6 $7 $8 $9 X,Y pos of 4 corners*
0 Add a 4 corners polygon primitive as box body*
4,1,4,$2,$3,$4,$5,$6,$7,$8,$9,$2,$3,0*
0 Add four circle primitives for the rounded corners*
1,1,$1+$1,$2,$3*
1,1,$1+$1,$4,$5*
1,1,$1+$1,$6,$7*
1,1,$1+$1,$8,$9*
0 Add four rect primitives between the rounded corners*
20,1,$1+$1,$2,$3,$4,$5,0*
20,1,$1+$1,$4,$5,$6,$7,0*
20,1,$1+$1,$6,$7,$8,$9,0*
20,1,$1+$1,$8,$9,$2,$3,0*%
G04 Aperture macros list end*
%ADD10RoundRect,0.225000X0.225000X0.225000X-0.225000X0.225000X-0.225000X-0.225000X0.225000X-0.225000X0*%
%ADD11RoundRect,0.062500X0.337500X0.062500X-0.337500X0.062500X-0.337500X-0.062500X0.337500X-0.062500X0*%
%ADD12RoundRect,0.062500X0.062500X0.337500X-0.062500X0.337500X-0.062500X-0.337500X0.062500X-0.337500X0*%
%ADD13RoundRect,0.200000X0.200000X0.275000X-0.200000X0.275000X-0.200000X-0.275000X0.200000X-0.275000X0*%
%ADD14RoundRect,0.200000X-0.200000X-0.275000X0.200000X-0.275000X0.200000X0.275000X-0.200000X0.275000X0*%
%ADD15RoundRect,0.218750X-0.218750X-0.256250X0.218750X-0.256250X0.218750X0.256250X-0.218750X0.256250X0*%
%ADD16RoundRect,0.218750X0.218750X0.256250X-0.218750X0.256250X-0.218750X-0.256250X0.218750X-0.256250X0*%
%ADD17RoundRect,0.225000X-0.250000X0.225000X-0.250000X-0.225000X0.250000X-0.225000X0.250000X0.225000X0*%
%ADD18RoundRect,0.200000X-0.275000X0.200000X-0.275000X-0.200000X0.275000X-0.200000X0.275000X0.200000X0*%
%ADD19RoundRect,0.075000X0.650000X0.075000X-0.650000X0.075000X-0.650000X-0.075000X0.650000X-0.075000X0*%
%ADD20RoundRect,0.225000X0.250000X-0.225000X0.250000X0.225000X-0.250000X0.225000X-0.250000X-0.225000X0*%
%ADD21RoundRect,0.200000X0.275000X-0.200000X0.275000X0.200000X-0.275000X0.200000X-0.275000X-0.200000X0*%
%ADD22RoundRect,0.225000X0.225000X0.250000X-0.225000X0.250000X-0.225000X-0.250000X0.225000X-0.250000X0*%
%ADD23RoundRect,0.225000X-0.225000X-0.250000X0.225000X-0.250000X0.225000X0.250000X-0.225000X0.250000X0*%
%ADD24RoundRect,0.150000X0.150000X-0.587500X0.150000X0.587500X-0.150000X0.587500X-0.150000X-0.587500X0*%
%ADD25RoundRect,0.100000X-0.100000X0.637500X-0.100000X-0.637500X0.100000X-0.637500X0.100000X0.637500X0*%
%ADD26RoundRect,0.150000X-0.587500X-0.150000X0.587500X-0.150000X0.587500X0.150000X-0.587500X0.150000X0*%
%ADD27RoundRect,0.150000X-0.150000X0.512500X-0.150000X-0.512500X0.150000X-0.512500X0.150000X0.512500X0*%
%ADD28RoundRect,0.100000X0.637500X0.100000X-0.637500X0.100000X-0.637500X-0.100000X0.637500X-0.100000X0*%
%ADD29RoundRect,0.250000X-1.075000X0.375000X-1.075000X-0.375000X1.075000X-0.375000X1.075000X0.375000X0*%
%ADD30RoundRect,0.075000X-0.075000X0.650000X-0.075000X-0.650000X0.075000X-0.650000X0.075000X0.650000X0*%
%ADD31R,0.400000X1.350000*%
%ADD32R,1.500000X1.900000*%
%ADD33R,0.800000X0.300000*%
%ADD34RoundRect,0.250000X-0.475000X0.250000X-0.475000X-0.250000X0.475000X-0.250000X0.475000X0.250000X0*%
%ADD35RoundRect,0.075000X0.662500X0.075000X-0.662500X0.075000X-0.662500X-0.075000X0.662500X-0.075000X0*%
%ADD36RoundRect,0.075000X0.075000X0.662500X-0.075000X0.662500X-0.075000X-0.662500X0.075000X-0.662500X0*%
%ADD37RoundRect,0.125000X0.125000X-0.125000X0.125000X0.125000X-0.125000X0.125000X-0.125000X-0.125000X0*%
%ADD38RoundRect,0.062500X0.062500X-0.350000X0.062500X0.350000X-0.062500X0.350000X-0.062500X-0.350000X0*%
%ADD39RoundRect,0.062500X0.350000X-0.062500X0.350000X0.062500X-0.350000X0.062500X-0.350000X-0.062500X0*%
%ADD40RoundRect,0.125000X0.000000X-0.176777X0.176777X0.000000X0.000000X0.176777X-0.176777X0.000000X0*%
%ADD41RoundRect,0.062500X-0.203293X-0.291682X0.291682X0.203293X0.203293X0.291682X-0.291682X-0.203293X0*%
%ADD42RoundRect,0.062500X0.203293X-0.291682X0.291682X-0.203293X-0.203293X0.291682X-0.291682X0.203293X0*%
%ADD43RoundRect,0.180000X0.180000X0.295000X-0.180000X0.295000X-0.180000X-0.295000X0.180000X-0.295000X0*%
%ADD44RoundRect,0.050000X0.337500X0.050000X-0.337500X0.050000X-0.337500X-0.050000X0.337500X-0.050000X0*%
%ADD45RoundRect,0.150000X0.150000X-0.512500X0.150000X0.512500X-0.150000X0.512500X-0.150000X-0.512500X0*%
G04 APERTURE END LIST*
D10*
%TO.C,U5*%
X69621500Y-60198000D03*
X70741500Y-61318000D03*
X68501500Y-60198000D03*
X70741500Y-59078000D03*
X68501500Y-59078000D03*
X70741500Y-60198000D03*
X69621500Y-61318000D03*
X69621500Y-59078000D03*
X68501500Y-61318000D03*
D11*
X72071500Y-61698000D03*
X72071500Y-61198000D03*
X72071500Y-60698000D03*
X72071500Y-60198000D03*
X72071500Y-59698000D03*
X72071500Y-59198000D03*
X72071500Y-58698000D03*
D12*
X71121500Y-57748000D03*
X70621500Y-57748000D03*
X70121500Y-57748000D03*
X69621500Y-57748000D03*
X69121500Y-57748000D03*
X68621500Y-57748000D03*
X68121500Y-57748000D03*
D11*
X67171500Y-58698000D03*
X67171500Y-59198000D03*
X67171500Y-59698000D03*
X67171500Y-60198000D03*
X67171500Y-60698000D03*
X67171500Y-61198000D03*
X67171500Y-61698000D03*
D12*
X68121500Y-62648000D03*
X68621500Y-62648000D03*
X69121500Y-62648000D03*
X69621500Y-62648000D03*
X70121500Y-62648000D03*
X70621500Y-62648000D03*
X71121500Y-62648000D03*
%TD*%
D13*
%TO.C,R28*%
X70700500Y-66548000D03*
X69050500Y-66548000D03*
%TD*%
D14*
%TO.C,R27*%
X72352500Y-66548000D03*
X74002500Y-66548000D03*
%TD*%
%TO.C,R26*%
X69558500Y-56134000D03*
X71208500Y-56134000D03*
%TD*%
D13*
%TO.C,R25*%
X67398500Y-66548000D03*
X65748500Y-66548000D03*
%TD*%
D15*
%TO.C,D3*%
X69596000Y-54356000D03*
X71171000Y-54356000D03*
%TD*%
D16*
%TO.C,D2*%
X73965000Y-64770000D03*
X72390000Y-64770000D03*
%TD*%
D15*
%TO.C,D1*%
X65786000Y-64770000D03*
X67361000Y-64770000D03*
%TD*%
D17*
%TO.C,C19*%
X72898000Y-54597000D03*
X72898000Y-56147000D03*
%TD*%
%TO.C,C8*%
X74676000Y-54597000D03*
X74676000Y-56147000D03*
%TD*%
D18*
%TO.C,R19*%
X74874000Y-43625000D03*
X74874000Y-45275000D03*
%TD*%
D19*
%TO.C,U10*%
X125984000Y-67159000D03*
X125984000Y-66659000D03*
X125984000Y-66159000D03*
X125984000Y-65659000D03*
X125984000Y-65159000D03*
X121584000Y-65159000D03*
X121584000Y-65659000D03*
X121584000Y-66159000D03*
X121584000Y-66659000D03*
X121584000Y-67159000D03*
%TD*%
D14*
%TO.C,R53*%
X123762000Y-60071000D03*
X125412000Y-60071000D03*
%TD*%
D17*
%TO.C,C23*%
X100076000Y-37071000D03*
X100076000Y-38621000D03*
%TD*%
D20*
%TO.C,C35*%
X115697000Y-53399000D03*
X115697000Y-51849000D03*
%TD*%
D17*
%TO.C,C37*%
X131064000Y-61074000D03*
X131064000Y-62624000D03*
%TD*%
D13*
%TO.C,R40*%
X36385000Y-62230000D03*
X34735000Y-62230000D03*
%TD*%
D20*
%TO.C,C31*%
X68494000Y-35151000D03*
X68494000Y-33601000D03*
%TD*%
%TO.C,C24*%
X132588000Y-39891000D03*
X132588000Y-38341000D03*
%TD*%
D21*
%TO.C,R46*%
X134160500Y-68770000D03*
X134160500Y-67120000D03*
%TD*%
D22*
%TO.C,C3*%
X89795500Y-34884000D03*
X88245500Y-34884000D03*
%TD*%
%TO.C,C6*%
X60973000Y-39202000D03*
X59423000Y-39202000D03*
%TD*%
D14*
%TO.C,R24*%
X55055000Y-53848000D03*
X56705000Y-53848000D03*
%TD*%
D23*
%TO.C,C13*%
X43929000Y-22860000D03*
X45479000Y-22860000D03*
%TD*%
D24*
%TO.C,Q2*%
X105349000Y-54023500D03*
X107249000Y-54023500D03*
X106299000Y-52148500D03*
%TD*%
D25*
%TO.C,U12*%
X126029000Y-45397500D03*
X125379000Y-45397500D03*
X124729000Y-45397500D03*
X124079000Y-45397500D03*
X123429000Y-45397500D03*
X122779000Y-45397500D03*
X122129000Y-45397500D03*
X122129000Y-51122500D03*
X122779000Y-51122500D03*
X123429000Y-51122500D03*
X124079000Y-51122500D03*
X124729000Y-51122500D03*
X125379000Y-51122500D03*
X126029000Y-51122500D03*
%TD*%
D13*
%TO.C,R61*%
X125539000Y-53086000D03*
X123889000Y-53086000D03*
%TD*%
%TO.C,R12*%
X44322000Y-38638000D03*
X42672000Y-38638000D03*
%TD*%
D26*
%TO.C,Q1*%
X127205500Y-60137000D03*
X127205500Y-62037000D03*
X129080500Y-61087000D03*
%TD*%
D18*
%TO.C,R35*%
X26162000Y-56833000D03*
X26162000Y-58483000D03*
%TD*%
D27*
%TO.C,U14*%
X130744000Y-53091500D03*
X129794000Y-53091500D03*
X128844000Y-53091500D03*
X128844000Y-55366500D03*
X129794000Y-55366500D03*
X130744000Y-55366500D03*
%TD*%
D17*
%TO.C,C16*%
X33274000Y-54216000D03*
X33274000Y-55766000D03*
%TD*%
D14*
%TO.C,R57*%
X125413000Y-42799000D03*
X127063000Y-42799000D03*
%TD*%
D13*
%TO.C,R31*%
X115252000Y-79121000D03*
X113602000Y-79121000D03*
%TD*%
D17*
%TO.C,C32*%
X132588000Y-52819000D03*
X132588000Y-54369000D03*
%TD*%
D21*
%TO.C,R43*%
X45720000Y-55181000D03*
X45720000Y-53531000D03*
%TD*%
%TO.C,R48*%
X110736000Y-50269000D03*
X110736000Y-48619000D03*
%TD*%
D13*
%TO.C,R5*%
X93005500Y-31709000D03*
X91355500Y-31709000D03*
%TD*%
D28*
%TO.C,U1*%
X55567500Y-40263000D03*
X55567500Y-39613000D03*
X55567500Y-38963000D03*
X55567500Y-38313000D03*
X55567500Y-37663000D03*
X55567500Y-37013000D03*
X55567500Y-36363000D03*
X49842500Y-36363000D03*
X49842500Y-37013000D03*
X49842500Y-37663000D03*
X49842500Y-38313000D03*
X49842500Y-38963000D03*
X49842500Y-39613000D03*
X49842500Y-40263000D03*
%TD*%
D23*
%TO.C,C14*%
X55232000Y-20447000D03*
X56782000Y-20447000D03*
%TD*%
D13*
%TO.C,R60*%
X108203000Y-65151000D03*
X106553000Y-65151000D03*
%TD*%
D29*
%TO.C,F1*%
X145796000Y-12062000D03*
X145796000Y-14862000D03*
%TD*%
D23*
%TO.C,C36*%
X127924500Y-70612000D03*
X129474500Y-70612000D03*
%TD*%
D13*
%TO.C,R8*%
X44322000Y-41940000D03*
X42672000Y-41940000D03*
%TD*%
D22*
%TO.C,C22*%
X107201000Y-28448000D03*
X105651000Y-28448000D03*
%TD*%
D13*
%TO.C,R32*%
X98488000Y-79121000D03*
X96838000Y-79121000D03*
%TD*%
D30*
%TO.C,U7*%
X29956000Y-56728000D03*
X29456000Y-56728000D03*
X28956000Y-56728000D03*
X28456000Y-56728000D03*
X27956000Y-56728000D03*
X27956000Y-61128000D03*
X28456000Y-61128000D03*
X28956000Y-61128000D03*
X29456000Y-61128000D03*
X29956000Y-61128000D03*
%TD*%
D23*
%TO.C,C2*%
X88230500Y-36546000D03*
X89780500Y-36546000D03*
%TD*%
D14*
%TO.C,R45*%
X55055000Y-63754000D03*
X56705000Y-63754000D03*
%TD*%
D23*
%TO.C,C11*%
X43929000Y-21082000D03*
X45479000Y-21082000D03*
%TD*%
D21*
%TO.C,R50*%
X112387000Y-53444000D03*
X112387000Y-51794000D03*
%TD*%
D22*
%TO.C,C39*%
X129512000Y-65651000D03*
X127962000Y-65651000D03*
%TD*%
D14*
%TO.C,R16*%
X55055000Y-59182000D03*
X56705000Y-59182000D03*
%TD*%
D30*
%TO.C,U11*%
X112117000Y-55372000D03*
X111617000Y-55372000D03*
X111117000Y-55372000D03*
X110617000Y-55372000D03*
X110117000Y-55372000D03*
X110117000Y-59772000D03*
X110617000Y-59772000D03*
X111117000Y-59772000D03*
X111617000Y-59772000D03*
X112117000Y-59772000D03*
%TD*%
D18*
%TO.C,R20*%
X76525000Y-43625000D03*
X76525000Y-45275000D03*
%TD*%
D31*
%TO.C,J12*%
X146550000Y-8193500D03*
X145900000Y-8193500D03*
X145250000Y-8193500D03*
X144600000Y-8193500D03*
X143950000Y-8193500D03*
D32*
X144250000Y-5493500D03*
X146250000Y-5493500D03*
%TD*%
D13*
%TO.C,R30*%
X131762000Y-79121000D03*
X130112000Y-79121000D03*
%TD*%
D21*
%TO.C,R58*%
X127000000Y-41211000D03*
X127000000Y-39561000D03*
%TD*%
D22*
%TO.C,C30*%
X129474500Y-68961000D03*
X127924500Y-68961000D03*
%TD*%
D33*
%TO.C,U13*%
X113183000Y-67933000D03*
X113183000Y-67433000D03*
X113183000Y-66933000D03*
X113183000Y-66433000D03*
X110083000Y-66433000D03*
X110083000Y-66933000D03*
X110083000Y-67433000D03*
X110083000Y-67933000D03*
%TD*%
D21*
%TO.C,R42*%
X43942000Y-55181000D03*
X43942000Y-53531000D03*
%TD*%
D22*
%TO.C,C29*%
X78611000Y-32172000D03*
X77061000Y-32172000D03*
%TD*%
D13*
%TO.C,R59*%
X108203000Y-66802000D03*
X106553000Y-66802000D03*
%TD*%
D17*
%TO.C,C26*%
X114046000Y-51849000D03*
X114046000Y-53399000D03*
%TD*%
D14*
%TO.C,R23*%
X55055000Y-55626000D03*
X56705000Y-55626000D03*
%TD*%
D18*
%TO.C,R18*%
X73223000Y-43625000D03*
X73223000Y-45275000D03*
%TD*%
D23*
%TO.C,C12*%
X55232000Y-22225000D03*
X56782000Y-22225000D03*
%TD*%
D14*
%TO.C,R47*%
X131087000Y-65651000D03*
X132737000Y-65651000D03*
%TD*%
D17*
%TO.C,C42*%
X127762000Y-45326000D03*
X127762000Y-46876000D03*
%TD*%
D21*
%TO.C,R2*%
X53721000Y-43964000D03*
X53721000Y-42314000D03*
%TD*%
D13*
%TO.C,R4*%
X93005500Y-38197000D03*
X91355500Y-38197000D03*
%TD*%
D21*
%TO.C,R56*%
X123825000Y-41211000D03*
X123825000Y-39561000D03*
%TD*%
D13*
%TO.C,R36*%
X36385000Y-58801000D03*
X34735000Y-58801000D03*
%TD*%
D15*
%TO.C,D4*%
X141706500Y-12954000D03*
X143281500Y-12954000D03*
%TD*%
D23*
%TO.C,C10*%
X55232000Y-24003000D03*
X56782000Y-24003000D03*
%TD*%
D13*
%TO.C,R13*%
X86670500Y-34884000D03*
X85020500Y-34884000D03*
%TD*%
%TO.C,R10*%
X44322000Y-40289000D03*
X42672000Y-40289000D03*
%TD*%
D14*
%TO.C,R6*%
X91355500Y-33233000D03*
X93005500Y-33233000D03*
%TD*%
D23*
%TO.C,C1*%
X88245500Y-33233000D03*
X89795500Y-33233000D03*
%TD*%
D22*
%TO.C,C7*%
X60973000Y-37551000D03*
X59423000Y-37551000D03*
%TD*%
D13*
%TO.C,R14*%
X44322000Y-36987000D03*
X42672000Y-36987000D03*
%TD*%
D23*
%TO.C,C4*%
X88230500Y-40046000D03*
X89780500Y-40046000D03*
%TD*%
%TO.C,C20*%
X50343000Y-25445000D03*
X51893000Y-25445000D03*
%TD*%
D13*
%TO.C,R38*%
X36385000Y-67310000D03*
X34735000Y-67310000D03*
%TD*%
D18*
%TO.C,R15*%
X81407000Y-43625000D03*
X81407000Y-45275000D03*
%TD*%
D13*
%TO.C,R33*%
X81851000Y-79121000D03*
X80201000Y-79121000D03*
%TD*%
D21*
%TO.C,R34*%
X31623000Y-55816000D03*
X31623000Y-54166000D03*
%TD*%
D13*
%TO.C,R41*%
X36385000Y-60452000D03*
X34735000Y-60452000D03*
%TD*%
D14*
%TO.C,R9*%
X91355500Y-36546000D03*
X93005500Y-36546000D03*
%TD*%
D21*
%TO.C,R7*%
X51943000Y-43964000D03*
X51943000Y-42314000D03*
%TD*%
D34*
%TO.C,C17*%
X148590000Y-13020000D03*
X148590000Y-14920000D03*
%TD*%
D21*
%TO.C,R54*%
X105283000Y-57467000D03*
X105283000Y-55817000D03*
%TD*%
D23*
%TO.C,C15*%
X43929000Y-24638000D03*
X45479000Y-24638000D03*
%TD*%
%TO.C,C33*%
X77061000Y-30521000D03*
X78611000Y-30521000D03*
%TD*%
D35*
%TO.C,U6*%
X52676500Y-64218000D03*
X52676500Y-63718000D03*
X52676500Y-63218000D03*
X52676500Y-62718000D03*
X52676500Y-62218000D03*
X52676500Y-61718000D03*
X52676500Y-61218000D03*
X52676500Y-60718000D03*
X52676500Y-60218000D03*
X52676500Y-59718000D03*
X52676500Y-59218000D03*
X52676500Y-58718000D03*
D36*
X51264000Y-57305500D03*
X50764000Y-57305500D03*
X50264000Y-57305500D03*
X49764000Y-57305500D03*
X49264000Y-57305500D03*
X48764000Y-57305500D03*
X48264000Y-57305500D03*
X47764000Y-57305500D03*
X47264000Y-57305500D03*
X46764000Y-57305500D03*
X46264000Y-57305500D03*
X45764000Y-57305500D03*
D35*
X44351500Y-58718000D03*
X44351500Y-59218000D03*
X44351500Y-59718000D03*
X44351500Y-60218000D03*
X44351500Y-60718000D03*
X44351500Y-61218000D03*
X44351500Y-61718000D03*
X44351500Y-62218000D03*
X44351500Y-62718000D03*
X44351500Y-63218000D03*
X44351500Y-63718000D03*
X44351500Y-64218000D03*
D36*
X45764000Y-65630500D03*
X46264000Y-65630500D03*
X46764000Y-65630500D03*
X47264000Y-65630500D03*
X47764000Y-65630500D03*
X48264000Y-65630500D03*
X48764000Y-65630500D03*
X49264000Y-65630500D03*
X49764000Y-65630500D03*
X50264000Y-65630500D03*
X50764000Y-65630500D03*
X51264000Y-65630500D03*
%TD*%
D28*
%TO.C,U2*%
X78483500Y-41391000D03*
X78483500Y-40741000D03*
X78483500Y-40091000D03*
X78483500Y-39441000D03*
X78483500Y-38791000D03*
X78483500Y-38141000D03*
X78483500Y-37491000D03*
X78483500Y-36841000D03*
X78483500Y-36191000D03*
X78483500Y-35541000D03*
X78483500Y-34891000D03*
X78483500Y-34241000D03*
X72758500Y-34241000D03*
X72758500Y-34891000D03*
X72758500Y-35541000D03*
X72758500Y-36191000D03*
X72758500Y-36841000D03*
X72758500Y-37491000D03*
X72758500Y-38141000D03*
X72758500Y-38791000D03*
X72758500Y-39441000D03*
X72758500Y-40091000D03*
X72758500Y-40741000D03*
X72758500Y-41391000D03*
%TD*%
D22*
%TO.C,C9*%
X29985000Y-54737000D03*
X28435000Y-54737000D03*
%TD*%
D13*
%TO.C,R37*%
X36385000Y-63881000D03*
X34735000Y-63881000D03*
%TD*%
D14*
%TO.C,R17*%
X55055000Y-57404000D03*
X56705000Y-57404000D03*
%TD*%
D20*
%TO.C,C18*%
X34925000Y-55766000D03*
X34925000Y-54216000D03*
%TD*%
D18*
%TO.C,R51*%
X108331000Y-58484000D03*
X108331000Y-60134000D03*
%TD*%
D13*
%TO.C,R1*%
X61079000Y-42448000D03*
X59429000Y-42448000D03*
%TD*%
D20*
%TO.C,C41*%
X120351000Y-46617000D03*
X120351000Y-45067000D03*
%TD*%
D37*
%TO.C,U4*%
X105851000Y-36814500D03*
X105851000Y-37434500D03*
X105231000Y-37434500D03*
X105231000Y-36814500D03*
D38*
X104791000Y-38562000D03*
X105291000Y-38562000D03*
X105791000Y-38562000D03*
X106291000Y-38562000D03*
D39*
X106978500Y-37874500D03*
X106978500Y-37374500D03*
X106978500Y-36874500D03*
X106978500Y-36374500D03*
D38*
X106291000Y-35687000D03*
X105791000Y-35687000D03*
X105291000Y-35687000D03*
X104791000Y-35687000D03*
D39*
X104103500Y-36374500D03*
X104103500Y-36874500D03*
X104103500Y-37374500D03*
X104103500Y-37874500D03*
%TD*%
D14*
%TO.C,R55*%
X122238000Y-42799000D03*
X123888000Y-42799000D03*
%TD*%
D13*
%TO.C,R39*%
X36385000Y-65659000D03*
X34735000Y-65659000D03*
%TD*%
D17*
%TO.C,C28*%
X127762000Y-49390000D03*
X127762000Y-50940000D03*
%TD*%
D13*
%TO.C,R52*%
X122872000Y-63246000D03*
X121222000Y-63246000D03*
%TD*%
%TO.C,R62*%
X56705000Y-65532000D03*
X55055000Y-65532000D03*
%TD*%
D40*
%TO.C,U3*%
X110748000Y-32736906D03*
X110748000Y-31860094D03*
X110309594Y-32298500D03*
X111186406Y-32298500D03*
D41*
X109201204Y-32784636D03*
X109554757Y-33138189D03*
X109908311Y-33491743D03*
X110261864Y-33845296D03*
D42*
X111234136Y-33845296D03*
X111587689Y-33491743D03*
X111941243Y-33138189D03*
X112294796Y-32784636D03*
D41*
X112294796Y-31812364D03*
X111941243Y-31458811D03*
X111587689Y-31105257D03*
X111234136Y-30751704D03*
D42*
X110261864Y-30751704D03*
X109908311Y-31105257D03*
X109554757Y-31458811D03*
X109201204Y-31812364D03*
%TD*%
D43*
%TO.C,U8*%
X50864000Y-22143000D03*
X50864000Y-23323000D03*
X49974000Y-23323000D03*
X49974000Y-22143000D03*
D44*
X51906500Y-23933000D03*
X51906500Y-23533000D03*
X51906500Y-23133000D03*
X51906500Y-22733000D03*
X51906500Y-22333000D03*
X51906500Y-21933000D03*
X51906500Y-21533000D03*
X48931500Y-21533000D03*
X48931500Y-21933000D03*
X48931500Y-22333000D03*
X48931500Y-22733000D03*
X48931500Y-23133000D03*
X48931500Y-23533000D03*
X48931500Y-23933000D03*
%TD*%
D18*
%TO.C,R22*%
X78176000Y-43625000D03*
X78176000Y-45275000D03*
%TD*%
D13*
%TO.C,R11*%
X93005500Y-40046000D03*
X91355500Y-40046000D03*
%TD*%
D17*
%TO.C,C27*%
X66929000Y-33601000D03*
X66929000Y-35151000D03*
%TD*%
D45*
%TO.C,U9*%
X128844000Y-39491500D03*
X129794000Y-39491500D03*
X130744000Y-39491500D03*
X130744000Y-37216500D03*
X129794000Y-37216500D03*
X128844000Y-37216500D03*
%TD*%
D13*
%TO.C,R29*%
X30035000Y-53086000D03*
X28385000Y-53086000D03*
%TD*%
D17*
%TO.C,C40*%
X110736000Y-51844000D03*
X110736000Y-53394000D03*
%TD*%
%TO.C,C25*%
X47808000Y-34053000D03*
X47808000Y-35603000D03*
%TD*%
D14*
%TO.C,R49*%
X127912000Y-67302000D03*
X129562000Y-67302000D03*
%TD*%
D13*
%TO.C,R3*%
X93005500Y-41697000D03*
X91355500Y-41697000D03*
%TD*%
D22*
%TO.C,C34*%
X111646000Y-69342000D03*
X110096000Y-69342000D03*
%TD*%
D14*
%TO.C,R44*%
X141669000Y-14732000D03*
X143319000Y-14732000D03*
%TD*%
D18*
%TO.C,R21*%
X70541000Y-33562000D03*
X70541000Y-35212000D03*
%TD*%
D23*
%TO.C,C38*%
X106286000Y-50292000D03*
X107836000Y-50292000D03*
%TD*%
D22*
%TO.C,C5*%
X61029000Y-40797000D03*
X59479000Y-40797000D03*
%TD*%
D23*
%TO.C,C21*%
X40881000Y-57404000D03*
X42431000Y-57404000D03*
%TD*%
M02*
