M48
; DRILL file {KiCad (6.0.8)} date Tue Mar 28 17:34:22 2023
; FORMAT={-:-/ absolute / inch / decimal}
; #@! TF.CreationDate,2023-03-28T17:34:22+02:00
; #@! TF.GenerationSoftware,Kicad,Pcbnew,(6.0.8)
; #@! TF.FileFunction,Plated,1,4,PTH
FMAT,2
INCH
; #@! TA.AperFunction,Plated,PTH,ViaDrill
T1C0.0157
; #@! TA.AperFunction,Plated,PTH,ComponentDrill
T2C0.0236
; #@! TA.AperFunction,Plated,PTH,ComponentDrill
T3C0.0335
; #@! TA.AperFunction,Plated,PTH,ComponentDrill
T4C0.0390
; #@! TA.AperFunction,Plated,PTH,ComponentDrill
T5C0.0394
; #@! TA.AperFunction,Plated,PTH,ComponentDrill
T6C0.0469
; #@! TA.AperFunction,Plated,PTH,ComponentDrill
T7C0.0512
; #@! TA.AperFunction,Plated,PTH,ComponentDrill
T8C0.1059
; #@! TA.AperFunction,Plated,PTH,ComponentDrill
T9C0.1110
; #@! TA.AperFunction,Plated,PTH,ComponentDrill
T10C0.1201
%
G90
G05
T1
X0.46Y-2.9
X0.5Y-0.43
X0.84Y-2.43
X1.03Y-2.34
X1.09Y-0.69
X1.09Y-1.03
X1.09Y-1.83
X1.1004Y-2.2992
X1.12Y-2.05
X1.12Y-2.47
X1.18Y-1.53
X1.2047Y-2.2992
X1.2475Y-2.09
X1.31Y-2.25
X1.32Y-2.385
X1.32Y-2.515
X1.32Y-2.585
X1.38Y-1.63
X1.55Y-1.33
X1.55Y-2.52
X1.56Y-2.26
X1.64Y-2.42
X1.67Y-1.83
X1.6775Y-0.8995
X1.6775Y-0.9668
X1.73Y-1.05
X1.73Y-1.91
X1.73Y-2.06
X1.77Y-2.59
X1.8Y-2.06
X1.81Y-2.4
X1.85Y-1.91
X1.86Y-2.67
X1.8675Y-0.9518
X1.89Y-1.46
X1.9Y-2.67
X1.9002Y-2.4198
X1.93Y-0.82
X1.93Y-2.52
X1.9393Y-2.6703
X1.9598Y-2.3198
X1.9789Y-2.6711
X2.0Y-2.51
X2.02Y-2.67
X2.043Y-1.0423
X2.06Y-2.58
X2.11Y-0.85
X2.13Y-2.58
X2.26Y-1.47
X2.28Y-2.51
X2.28Y-2.58
X2.2875Y-0.8768
X2.2875Y-0.9468
X2.35Y-2.21
X2.36Y-1.12
X2.36Y-1.33
X2.38Y-2.18
X2.38Y-2.24
X2.41Y-2.15
X2.41Y-2.27
X2.44Y-2.12
X2.44Y-2.3
X2.4538Y-1.6712
X2.4748Y-2.3248
X2.48Y-2.02
X2.51Y-2.35
X2.545Y-2.375
X2.69Y-2.55
X2.72Y-1.4498
X2.79Y-2.89
X2.81Y-2.55
X2.87Y-2.27
X2.94Y-1.41
X2.94Y-1.48
X2.94Y-2.28
X2.97Y-2.5
X3.0Y-1.29
X3.0Y-2.39
X3.0344Y-1.4916
X3.15Y-1.3461
X3.15Y-1.78
X3.1544Y-1.4716
X3.18Y-2.51
X3.2Y-1.99
X3.26Y-0.6514
X3.36Y-1.17
X3.36Y-1.78
X3.38Y-0.77
X3.3924Y-1.48
X3.395Y-1.645
X3.48Y-0.97
X3.55Y-1.51
X3.55Y-1.64
X3.56Y-2.53
X3.7088Y-1.5038
X3.71Y-1.31
X3.73Y-1.78
X3.91Y-2.31
X3.95Y-1.72
X4.0Y-1.49
X4.04Y-1.45
X4.04Y-1.52
X4.135Y-2.56
X4.135Y-2.63
X4.14Y-1.62
X4.14Y-2.31
X4.2Y-0.77
X4.2052Y-1.3166
X4.2052Y-1.3616
X4.21Y-2.37
X4.22Y-1.55
X4.24Y-1.19
X4.24Y-1.24
X4.285Y-1.485
X4.2852Y-1.3866
X4.295Y-2.73
X4.3Y-1.17
X4.3302Y-1.3866
X4.3524Y-2.2697
X4.425Y-1.99
X4.43Y-1.385
X4.4311Y-2.2657
X4.46Y-0.77
X4.46Y-2.57
X4.49Y-2.15
X4.55Y-1.62
X4.725Y-2.49
X4.79Y-1.83
X4.825Y-2.365
X4.84Y-2.77
X4.875Y-1.51
X4.8839Y-2.6535
X4.9Y-0.76
X4.9Y-2.59
X4.99Y-2.01
X4.99Y-2.715
X5.025Y-0.47
X5.03Y-1.47
X5.065Y-0.47
X5.08Y-1.89
X5.11Y-1.61
X5.11Y-2.03
X5.14Y-2.23
X5.145Y-1.4
X5.15Y-2.65
X5.22Y-1.47
X5.22Y-2.18
X5.27Y-0.76
X5.27Y-1.08
X5.45Y-1.76
X5.45Y-2.15
X5.5Y-2.59
X5.51Y-0.22
X5.51Y-0.26
X5.51Y-0.3
X5.51Y-0.34
X5.525Y-0.375
X5.56Y-0.39
X5.6Y-0.39
X5.64Y-0.39
X5.65Y-0.44
X5.72Y-0.41
X5.74Y-0.63
X5.74Y-0.67
X5.76Y-0.71
X5.79Y-0.74
X5.83Y-0.75
X5.83Y-2.93
X5.87Y-0.75
X5.91Y-0.75
X5.94Y-0.5
X5.95Y-0.75
X5.99Y-0.75
X6.03Y-0.75
X6.07Y-0.75
X6.11Y-0.75
T3
X5.6201Y-0.3226
X5.8169Y-0.3226
T4
X3.3574Y-3.1177
X3.5346Y-3.1177
X4.0108Y-3.1177
X4.188Y-3.1177
X4.6722Y-3.1177
X4.8494Y-3.1177
X5.3258Y-3.1177
X5.503Y-3.1177
T5
X0.9055Y-2.8297
X1.0055Y-2.8297
X1.1055Y-2.8297
X1.2055Y-2.8297
X1.3055Y-2.8297
X1.4055Y-2.8297
X1.5055Y-2.8297
X1.6055Y-2.8297
X1.7055Y-2.8297
X1.8055Y-2.8297
X1.9055Y-2.8297
X2.3192Y-2.891
X2.4192Y-2.891
T6
X4.5246Y-0.4504
X4.5697Y-0.3504
X4.5697Y-0.5504
X4.6148Y-0.4504
X4.6599Y-0.3504
X4.6599Y-0.5504
X4.705Y-0.4504
X4.75Y-0.3504
X4.75Y-0.5504
X4.7951Y-0.4504
X4.8402Y-0.3504
X4.8402Y-0.5504
X4.8853Y-0.4504
X4.9304Y-0.3504
X4.9304Y-0.5504
T7
X0.4213Y-0.9982
X0.4215Y-1.1482
X0.4215Y-1.2982
X0.4215Y-1.4482
X0.4215Y-1.5982
X0.4215Y-1.7482
X0.4215Y-1.8982
X0.4215Y-2.0535
X0.4215Y-2.1982
X0.4215Y-2.3482
X0.6215Y-0.9232
X0.6215Y-1.0732
X0.6215Y-1.2232
X0.6215Y-1.3732
X0.6215Y-1.5232
X0.6215Y-1.6732
X0.6215Y-1.8232
X0.6215Y-1.9732
X0.6215Y-2.1232
X0.6215Y-2.2732
X0.6215Y-2.4232
X3.3078Y-3.0197
X3.5838Y-3.0197
X3.9612Y-3.0197
X4.2372Y-3.0197
X4.6226Y-3.0197
X4.8986Y-3.0197
X5.2762Y-3.0197
X5.5522Y-3.0197
X5.7171Y-0.9232
X5.7171Y-1.0732
X5.7171Y-1.2232
X5.7171Y-1.3732
X5.7171Y-1.5232
X5.7171Y-1.6732
X5.7171Y-1.8232
X5.7171Y-1.9732
X5.7171Y-2.1232
X5.7171Y-2.2732
X5.7171Y-2.4232
X5.9171Y-0.9982
X5.9171Y-1.1482
X5.9171Y-1.2929
X5.9171Y-1.4482
X5.9171Y-1.5982
X5.9171Y-1.7482
X5.9171Y-1.8982
X5.9171Y-2.0482
X5.9171Y-2.1982
X5.9171Y-2.3482
T8
X0.8507Y-0.4606
X1.146Y-0.4606
X1.4413Y-0.4606
X1.7365Y-0.4606
X2.0318Y-0.4606
X2.3271Y-0.4606
X2.6224Y-0.4606
X2.9176Y-0.4606
X3.2129Y-0.4606
X3.5082Y-0.4606
T9
X0.9983Y-0.315
X1.5889Y-0.315
X2.1794Y-0.315
X2.77Y-0.315
X3.3606Y-0.315
T10
X4.2481Y-0.4504
X5.2319Y-0.4504
T2
G00X5.5807Y-0.2301
M15
G01X5.5807Y-0.2025
M16
G05
G00X5.8563Y-0.2025
M15
G01X5.8563Y-0.2301
M16
G05
T5
G00X3.8464Y-0.21
M15
G01X3.8857Y-0.21
M16
G05
G00X3.8464Y-0.4502
M15
G01X3.8857Y-0.4502
M16
G05
G00X3.8464Y-0.6667
M15
G01X3.8857Y-0.6667
M16
G05
G00X3.9251Y-0.3045
M15
G01X3.9645Y-0.3045
M16
G05
G00X3.9251Y-0.521
M15
G01X3.9645Y-0.521
M16
G05
T0
M30
