%TF.GenerationSoftware,KiCad,Pcbnew,(6.0.8)*%
%TF.CreationDate,2023-03-28T17:34:24+02:00*%
%TF.ProjectId,RT5XP-EXP,52543558-502d-4455-9850-2e6b69636164,V1.0*%
%TF.SameCoordinates,Original*%
%TF.FileFunction,Profile,NP*%
%FSLAX46Y46*%
G04 Gerber Fmt 4.6, Leading zero omitted, Abs format (unit mm)*
G04 Created by KiCad (PCBNEW (6.0.8)) date 2023-03-28 17:34:24*
%MOMM*%
%LPD*%
G01*
G04 APERTURE LIST*
%TA.AperFunction,Profile*%
%ADD10C,0.150000*%
%TD*%
G04 APERTURE END LIST*
D10*
X157000000Y-7500000D02*
X157000000Y-14500000D01*
X72500000Y-82000000D02*
X153500000Y-82000000D01*
X150000000Y-70500000D02*
X157000000Y-70500000D01*
X11000000Y-17500000D02*
X4000000Y-17500000D01*
X4000000Y-14500000D02*
X11000000Y-14500000D01*
X72500000Y-76000000D02*
X72500000Y-82000000D01*
X13000000Y-82000000D02*
X13000000Y-76000000D01*
X150000000Y-67500000D02*
X150000000Y-70500000D01*
X157000000Y-17500000D02*
X157000000Y-67500000D01*
X13000000Y-76000000D02*
X72500000Y-76000000D01*
X153500000Y-82000000D02*
G75*
G03*
X157000000Y-78500000I0J3500000D01*
G01*
X157000000Y-70500000D02*
X157000000Y-78500000D01*
X11000000Y-67500000D02*
X11000000Y-70500000D01*
X157000000Y-14500000D02*
X150000000Y-14500000D01*
X4000000Y-17500000D02*
X4000000Y-67500000D01*
X150000000Y-17500000D02*
X157000000Y-17500000D01*
X153500000Y-4000000D02*
X7500000Y-4000000D01*
X7500000Y-4000000D02*
G75*
G03*
X4000000Y-7500000I0J-3500000D01*
G01*
X4000000Y-67500000D02*
X11000000Y-67500000D01*
X4000000Y-70500000D02*
X4000000Y-78500000D01*
X11000000Y-70500000D02*
X4000000Y-70500000D01*
X4000000Y-78500000D02*
G75*
G03*
X7500000Y-82000000I3500000J0D01*
G01*
X7500000Y-82000000D02*
X13000000Y-82000000D01*
X157000000Y-7500000D02*
G75*
G03*
X153500000Y-4000000I-3500000J0D01*
G01*
X157000000Y-67500000D02*
X150000000Y-67500000D01*
X4000000Y-7500000D02*
X4000000Y-14500000D01*
X150000000Y-14500000D02*
X150000000Y-17500000D01*
X11000000Y-14500000D02*
X11000000Y-17500000D01*
M02*
