%TF.GenerationSoftware,KiCad,Pcbnew,(6.0.8)*%
%TF.CreationDate,2023-03-11T21:42:28+01:00*%
%TF.ProjectId,RT5XP-EXP-Display,52543558-502d-4455-9850-2d446973706c,rev?*%
%TF.SameCoordinates,Original*%
%TF.FileFunction,Profile,NP*%
%FSLAX46Y46*%
G04 Gerber Fmt 4.6, Leading zero omitted, Abs format (unit mm)*
G04 Created by KiCad (PCBNEW (6.0.8)) date 2023-03-11 21:42:28*
%MOMM*%
%LPD*%
G01*
G04 APERTURE LIST*
%TA.AperFunction,Profile*%
%ADD10C,0.100000*%
%TD*%
%ADD11C,0.150000*%
G04 APERTURE END LIST*
D10*
X0Y0D02*
X25000000Y0D01*
X0Y-30000000D02*
X0Y0D01*
X50000000Y-30000000D02*
X0Y-30000000D01*
X50000000Y-25000000D02*
X50000000Y-30000000D01*
X50000000Y-25000000D02*
X25000000Y0D01*
D11*
X50802380Y-31119047D02*
X50802380Y-31595238D01*
X51278571Y-31642857D01*
X51230952Y-31595238D01*
X51183333Y-31500000D01*
X51183333Y-31261904D01*
X51230952Y-31166666D01*
X51278571Y-31119047D01*
X51373809Y-31071428D01*
X51611904Y-31071428D01*
X51707142Y-31119047D01*
X51754761Y-31166666D01*
X51802380Y-31261904D01*
X51802380Y-31500000D01*
X51754761Y-31595238D01*
X51707142Y-31642857D01*
X51754761Y-30595238D02*
X51802380Y-30595238D01*
X51897619Y-30642857D01*
X51945238Y-30690476D01*
X50802380Y-29976190D02*
X50802380Y-29880952D01*
X50850000Y-29785714D01*
X50897619Y-29738095D01*
X50992857Y-29690476D01*
X51183333Y-29642857D01*
X51421428Y-29642857D01*
X51611904Y-29690476D01*
X51707142Y-29738095D01*
X51754761Y-29785714D01*
X51802380Y-29880952D01*
X51802380Y-29976190D01*
X51754761Y-30071428D01*
X51707142Y-30119047D01*
X51611904Y-30166666D01*
X51421428Y-30214285D01*
X51183333Y-30214285D01*
X50992857Y-30166666D01*
X50897619Y-30119047D01*
X50850000Y-30071428D01*
X50802380Y-29976190D01*
X50802380Y-29023809D02*
X50802380Y-28928571D01*
X50850000Y-28833333D01*
X50897619Y-28785714D01*
X50992857Y-28738095D01*
X51183333Y-28690476D01*
X51421428Y-28690476D01*
X51611904Y-28738095D01*
X51707142Y-28785714D01*
X51754761Y-28833333D01*
X51802380Y-28928571D01*
X51802380Y-29023809D01*
X51754761Y-29119047D01*
X51707142Y-29166666D01*
X51611904Y-29214285D01*
X51421428Y-29261904D01*
X51183333Y-29261904D01*
X50992857Y-29214285D01*
X50897619Y-29166666D01*
X50850000Y-29119047D01*
X50802380Y-29023809D01*
X50802380Y-28071428D02*
X50802380Y-27976190D01*
X50850000Y-27880952D01*
X50897619Y-27833333D01*
X50992857Y-27785714D01*
X51183333Y-27738095D01*
X51421428Y-27738095D01*
X51611904Y-27785714D01*
X51707142Y-27833333D01*
X51754761Y-27880952D01*
X51802380Y-27976190D01*
X51802380Y-28071428D01*
X51754761Y-28166666D01*
X51707142Y-28214285D01*
X51611904Y-28261904D01*
X51421428Y-28309523D01*
X51183333Y-28309523D01*
X50992857Y-28261904D01*
X50897619Y-28214285D01*
X50850000Y-28166666D01*
X50802380Y-28071428D01*
X50802380Y-27119047D02*
X50802380Y-27023809D01*
X50850000Y-26928571D01*
X50897619Y-26880952D01*
X50992857Y-26833333D01*
X51183333Y-26785714D01*
X51421428Y-26785714D01*
X51611904Y-26833333D01*
X51707142Y-26880952D01*
X51754761Y-26928571D01*
X51802380Y-27023809D01*
X51802380Y-27119047D01*
X51754761Y-27214285D01*
X51707142Y-27261904D01*
X51611904Y-27309523D01*
X51421428Y-27357142D01*
X51183333Y-27357142D01*
X50992857Y-27309523D01*
X50897619Y-27261904D01*
X50850000Y-27214285D01*
X50802380Y-27119047D01*
X51802380Y-25595238D02*
X51135714Y-25595238D01*
X51230952Y-25595238D02*
X51183333Y-25547619D01*
X51135714Y-25452380D01*
X51135714Y-25309523D01*
X51183333Y-25214285D01*
X51278571Y-25166666D01*
X51802380Y-25166666D01*
X51278571Y-25166666D02*
X51183333Y-25119047D01*
X51135714Y-25023809D01*
X51135714Y-24880952D01*
X51183333Y-24785714D01*
X51278571Y-24738095D01*
X51802380Y-24738095D01*
X51802380Y-24261904D02*
X51135714Y-24261904D01*
X51230952Y-24261904D02*
X51183333Y-24214285D01*
X51135714Y-24119047D01*
X51135714Y-23976190D01*
X51183333Y-23880952D01*
X51278571Y-23833333D01*
X51802380Y-23833333D01*
X51278571Y-23833333D02*
X51183333Y-23785714D01*
X51135714Y-23690476D01*
X51135714Y-23547619D01*
X51183333Y-23452380D01*
X51278571Y-23404761D01*
X51802380Y-23404761D01*
D10*
X50500000Y-30000000D02*
X53086420Y-30000000D01*
X50500000Y-25000000D02*
X53086420Y-25000000D01*
X52500000Y-30000000D02*
X52500000Y-25000000D01*
X52500000Y-30000000D02*
X52500000Y-25000000D01*
X52500000Y-30000000D02*
X53086421Y-28873496D01*
X52500000Y-30000000D02*
X51913579Y-28873496D01*
X52500000Y-25000000D02*
X51913579Y-26126504D01*
X52500000Y-25000000D02*
X53086421Y-26126504D01*
D11*
X7880952Y4702380D02*
X7928571Y4750000D01*
X8023809Y4797619D01*
X8261904Y4797619D01*
X8357142Y4750000D01*
X8404761Y4702380D01*
X8452380Y4607142D01*
X8452380Y4511904D01*
X8404761Y4369047D01*
X7833333Y3797619D01*
X8452380Y3797619D01*
X9357142Y4797619D02*
X8880952Y4797619D01*
X8833333Y4321428D01*
X8880952Y4369047D01*
X8976190Y4416666D01*
X9214285Y4416666D01*
X9309523Y4369047D01*
X9357142Y4321428D01*
X9404761Y4226190D01*
X9404761Y3988095D01*
X9357142Y3892857D01*
X9309523Y3845238D01*
X9214285Y3797619D01*
X8976190Y3797619D01*
X8880952Y3845238D01*
X8833333Y3892857D01*
X9880952Y3845238D02*
X9880952Y3797619D01*
X9833333Y3702380D01*
X9785714Y3654761D01*
X10499999Y4797619D02*
X10595238Y4797619D01*
X10690476Y4750000D01*
X10738095Y4702380D01*
X10785714Y4607142D01*
X10833333Y4416666D01*
X10833333Y4178571D01*
X10785714Y3988095D01*
X10738095Y3892857D01*
X10690476Y3845238D01*
X10595238Y3797619D01*
X10499999Y3797619D01*
X10404761Y3845238D01*
X10357142Y3892857D01*
X10309523Y3988095D01*
X10261904Y4178571D01*
X10261904Y4416666D01*
X10309523Y4607142D01*
X10357142Y4702380D01*
X10404761Y4750000D01*
X10499999Y4797619D01*
X11452380Y4797619D02*
X11547619Y4797619D01*
X11642857Y4750000D01*
X11690476Y4702380D01*
X11738095Y4607142D01*
X11785714Y4416666D01*
X11785714Y4178571D01*
X11738095Y3988095D01*
X11690476Y3892857D01*
X11642857Y3845238D01*
X11547619Y3797619D01*
X11452380Y3797619D01*
X11357142Y3845238D01*
X11309523Y3892857D01*
X11261904Y3988095D01*
X11214285Y4178571D01*
X11214285Y4416666D01*
X11261904Y4607142D01*
X11309523Y4702380D01*
X11357142Y4750000D01*
X11452380Y4797619D01*
X12404761Y4797619D02*
X12499999Y4797619D01*
X12595238Y4750000D01*
X12642857Y4702380D01*
X12690476Y4607142D01*
X12738095Y4416666D01*
X12738095Y4178571D01*
X12690476Y3988095D01*
X12642857Y3892857D01*
X12595238Y3845238D01*
X12499999Y3797619D01*
X12404761Y3797619D01*
X12309523Y3845238D01*
X12261904Y3892857D01*
X12214285Y3988095D01*
X12166666Y4178571D01*
X12166666Y4416666D01*
X12214285Y4607142D01*
X12261904Y4702380D01*
X12309523Y4750000D01*
X12404761Y4797619D01*
X13357142Y4797619D02*
X13452380Y4797619D01*
X13547619Y4750000D01*
X13595238Y4702380D01*
X13642857Y4607142D01*
X13690476Y4416666D01*
X13690476Y4178571D01*
X13642857Y3988095D01*
X13595238Y3892857D01*
X13547619Y3845238D01*
X13452380Y3797619D01*
X13357142Y3797619D01*
X13261904Y3845238D01*
X13214285Y3892857D01*
X13166666Y3988095D01*
X13119047Y4178571D01*
X13119047Y4416666D01*
X13166666Y4607142D01*
X13214285Y4702380D01*
X13261904Y4750000D01*
X13357142Y4797619D01*
X14880952Y3797619D02*
X14880952Y4464285D01*
X14880952Y4369047D02*
X14928571Y4416666D01*
X15023809Y4464285D01*
X15166666Y4464285D01*
X15261904Y4416666D01*
X15309523Y4321428D01*
X15309523Y3797619D01*
X15309523Y4321428D02*
X15357142Y4416666D01*
X15452380Y4464285D01*
X15595238Y4464285D01*
X15690476Y4416666D01*
X15738095Y4321428D01*
X15738095Y3797619D01*
X16214285Y3797619D02*
X16214285Y4464285D01*
X16214285Y4369047D02*
X16261904Y4416666D01*
X16357142Y4464285D01*
X16500000Y4464285D01*
X16595238Y4416666D01*
X16642857Y4321428D01*
X16642857Y3797619D01*
X16642857Y4321428D02*
X16690476Y4416666D01*
X16785714Y4464285D01*
X16928571Y4464285D01*
X17023809Y4416666D01*
X17071428Y4321428D01*
X17071428Y3797619D01*
D10*
X0Y500000D02*
X0Y3686420D01*
X25000000Y500000D02*
X25000000Y3686420D01*
X0Y3100000D02*
X25000000Y3100000D01*
X0Y3100000D02*
X25000000Y3100000D01*
X0Y3100000D02*
X1126504Y2513579D01*
X0Y3100000D02*
X1126504Y3686421D01*
X25000000Y3100000D02*
X23873496Y3686421D01*
X25000000Y3100000D02*
X23873496Y2513579D01*
M02*
