M48
; DRILL file {KiCad (6.0.8)} date Sat Mar 11 21:42:26 2023
; FORMAT={-:-/ absolute / inch / decimal}
; #@! TF.CreationDate,2023-03-11T21:42:26+01:00
; #@! TF.GenerationSoftware,Kicad,Pcbnew,(6.0.8)
; #@! TF.FileFunction,Plated,1,2,PTH
FMAT,2
INCH
; #@! TA.AperFunction,Plated,PTH,ComponentDrill
T1C0.0394
%
G90
G05
T1
X0.0512Y-0.0512
X0.0512Y-0.1512
X0.0512Y-0.2512
X0.0512Y-0.3512
X0.0512Y-0.4512
X0.0512Y-0.5512
X0.0512Y-0.6512
X0.0512Y-0.7512
X0.0512Y-0.8512
X0.0512Y-0.9512
X0.0512Y-1.0512
X0.8583Y-1.0945
X0.9583Y-1.0945
X1.0583Y-1.0945
X1.1583Y-1.0945
X1.2583Y-1.0945
X1.3583Y-1.0945
X1.4583Y-1.0945
X1.5583Y-1.0945
X1.6583Y-1.0945
X1.7583Y-1.0945
X1.8583Y-1.0945
T0
M30
